<svg width="596" height="444" viewBox="0 0 596 444" fill="none" xmlns="http://www.w3.org/2000/svg">
<path d="M470.482 408.885H536.281V409.123H470.482V408.885Z" fill="#EBEBEB"/>
<path d="M383.585 402.576H393.956V402.933H383.585V402.576Z" fill="#EBEBEB"/>
<path d="M444.02 397.814H466.906V398.172H444.02V397.814Z" fill="#EBEBEB"/>
<path fill-rule="evenodd" clip-rule="evenodd" d="M540.334 336.631H310.159C306.463 336.631 303.364 333.536 303.364 329.846V6.78499C303.364 2.97587 306.463 0 310.159 0H540.334C544.148 0 547.128 2.97587 547.128 6.78499V329.846C547.128 333.536 544.148 336.631 540.334 336.631V336.631ZM310.159 0.23807C306.583 0.23807 303.722 3.21394 303.722 6.78499V329.846C303.722 333.417 306.583 336.273 310.159 336.273H540.334C543.91 336.273 546.89 333.417 546.89 329.846V6.78499C546.89 3.21394 543.91 0.23807 540.334 0.23807H310.159Z" fill="#EBEBEB"/>
<path d="M246.267 133.438C246.267 147.246 235.182 158.435 221.355 158.435H109.187C89.7578 158.435 74.0234 142.723 74.0234 123.201C74.0234 104.632 88.5658 89.2761 106.923 88.0858C110.975 69.8735 127.306 56.1844 146.855 56.1844C163.066 56.1844 177.012 65.4692 183.687 79.0391C187.621 77.4917 191.912 76.6584 196.323 76.6584C215.037 76.6584 230.056 91.6568 230.295 110.226C239.592 113.797 246.267 122.844 246.267 133.438V133.438Z" fill="#7D97F4"/>
<path d="M533.42 295.921C533.42 309.729 522.334 320.799 508.507 320.799H396.34C376.91 320.799 361.057 305.086 361.057 285.684C361.057 266.995 375.718 251.759 394.075 250.568C398.128 232.237 414.458 218.548 434.007 218.548C450.218 218.548 464.165 227.952 470.84 241.522C474.773 239.974 479.065 239.022 483.475 239.022C502.07 239.022 517.209 254.02 517.328 272.59C526.745 276.161 533.42 285.207 533.42 295.921V295.921Z" fill="#F5F5F5"/>
<path d="M418.392 174.981C418.392 182.123 412.551 187.956 405.399 187.956H347.23C337.098 187.956 328.992 179.743 328.992 169.744C328.992 159.983 336.502 152.126 346.038 151.531C348.183 142.009 356.647 134.866 366.779 134.866C375.123 134.866 382.394 139.747 385.851 146.77C387.877 145.937 390.142 145.461 392.407 145.461C402.062 145.461 409.929 153.317 410.048 162.959C414.935 164.744 418.392 169.506 418.392 174.981Z" fill="#E0E0E0"/>
<path d="M503.024 74.0397C503.024 83.5625 495.395 91.1807 485.979 91.1807H409.095C395.744 91.1807 384.897 80.3486 384.897 67.0167C384.897 54.2799 394.91 43.8049 407.545 42.9716C410.287 30.473 421.491 21.0692 434.842 21.0692C445.927 21.0692 455.583 27.4971 460.112 36.7818C462.854 35.7105 465.715 35.1153 468.814 35.1153C481.568 35.1153 491.939 45.3523 492.058 58.0891C498.495 60.5888 503.024 66.7786 503.024 74.0397V74.0397Z" fill="#7D97F4"/>
<path d="M256.637 278.065C256.637 287.588 249.009 295.206 239.592 295.206H162.708C149.357 295.206 138.629 284.374 138.629 271.042C138.629 258.306 148.523 247.831 161.158 246.997C163.9 234.499 175.105 225.095 188.574 225.095C199.66 225.095 209.196 231.523 213.725 240.808C216.467 239.736 219.328 239.141 222.427 239.141C235.181 239.141 245.552 249.378 245.671 262.115C252.108 264.615 256.637 270.804 256.637 278.065V278.065Z" fill="#F5F5F5"/>
<path d="M156.152 142.961C155.993 142.961 155.834 142.881 155.675 142.723C155.675 142.643 155.636 142.564 155.556 142.485C155.556 142.485 155.556 142.445 155.556 142.366C155.556 142.286 155.556 142.207 155.556 142.128C155.636 142.048 155.675 141.969 155.675 141.89C155.914 141.77 156.152 141.651 156.391 141.77C156.47 141.77 156.51 141.81 156.51 141.89C156.669 141.969 156.748 142.128 156.748 142.366C156.748 142.445 156.748 142.485 156.748 142.485C156.669 142.564 156.589 142.643 156.51 142.723C156.43 142.881 156.311 142.961 156.152 142.961V142.961Z" fill="#E0E0E0"/>
<path d="M155.556 168.553C155.556 168.196 155.795 167.958 156.152 167.958C156.51 167.958 156.748 168.196 156.748 168.553C156.748 168.91 156.51 169.148 156.152 169.148C155.795 169.148 155.556 168.91 155.556 168.553ZM155.556 162.006C155.556 161.649 155.795 161.411 156.152 161.411C156.51 161.411 156.748 161.649 156.748 162.006C156.748 162.364 156.51 162.602 156.152 162.602C155.795 162.602 155.556 162.364 155.556 162.006ZM155.556 155.459C155.556 155.102 155.795 154.864 156.152 154.864C156.51 154.864 156.748 155.102 156.748 155.459C156.748 155.698 156.51 156.055 156.152 156.055C155.795 156.055 155.556 155.698 155.556 155.459ZM155.556 148.913C155.556 148.555 155.795 148.317 156.152 148.317C156.51 148.317 156.748 148.555 156.748 148.913C156.748 149.151 156.51 149.508 156.152 149.508C155.795 149.508 155.556 149.151 155.556 148.913Z" fill="#E0E0E0"/>
<path d="M156.152 175.695C156.073 175.695 155.993 175.695 155.914 175.695C155.834 175.616 155.755 175.576 155.675 175.576C155.675 175.497 155.636 175.418 155.556 175.338C155.556 175.259 155.556 175.18 155.556 175.1C155.556 175.021 155.556 174.942 155.556 174.862C155.636 174.783 155.675 174.743 155.675 174.743C155.755 174.664 155.834 174.584 155.914 174.505C156.073 174.505 156.232 174.505 156.391 174.505C156.47 174.584 156.51 174.664 156.51 174.743C156.589 174.743 156.669 174.783 156.748 174.862C156.748 174.942 156.748 175.021 156.748 175.1C156.748 175.259 156.669 175.418 156.51 175.576C156.51 175.576 156.47 175.616 156.391 175.695C156.311 175.695 156.232 175.695 156.152 175.695V175.695Z" fill="#E0E0E0"/>
<path d="M264.862 175.1C264.862 174.743 265.101 174.505 265.458 174.505C265.697 174.505 266.054 174.743 266.054 175.1C266.054 175.457 265.697 175.695 265.458 175.695C265.101 175.695 264.862 175.457 264.862 175.1ZM257.591 175.1C257.591 174.743 257.83 174.505 258.187 174.505C258.426 174.505 258.664 174.743 258.664 175.1C258.664 175.457 258.426 175.695 258.187 175.695C257.83 175.695 257.591 175.457 257.591 175.1ZM250.32 175.1C250.32 174.743 250.558 174.505 250.916 174.505C251.154 174.505 251.512 174.743 251.512 175.1C251.512 175.457 251.154 175.695 250.916 175.695C250.558 175.695 250.32 175.457 250.32 175.1ZM242.93 175.1C242.93 174.743 243.287 174.505 243.526 174.505C243.883 174.505 244.122 174.743 244.122 175.1C244.122 175.457 243.883 175.695 243.526 175.695C243.287 175.695 242.93 175.457 242.93 175.1ZM235.658 175.1C235.658 174.743 236.016 174.505 236.254 174.505C236.612 174.505 236.85 174.743 236.85 175.1C236.85 175.457 236.612 175.695 236.254 175.695C236.016 175.695 235.658 175.457 235.658 175.1ZM228.387 175.1C228.387 174.743 228.626 174.505 228.983 174.505C229.341 174.505 229.579 174.743 229.579 175.1C229.579 175.457 229.341 175.695 228.983 175.695C228.626 175.695 228.387 175.457 228.387 175.1ZM221.116 175.1C221.116 174.743 221.354 174.505 221.712 174.505C222.07 174.505 222.308 174.743 222.308 175.1C222.308 175.457 222.07 175.695 221.712 175.695C221.354 175.695 221.116 175.457 221.116 175.1ZM213.845 175.1C213.845 174.743 214.083 174.505 214.441 174.505C214.798 174.505 215.037 174.743 215.037 175.1C215.037 175.457 214.798 175.695 214.441 175.695C214.083 175.695 213.845 175.457 213.845 175.1ZM206.574 175.1C206.574 174.743 206.812 174.505 207.17 174.505C207.408 174.505 207.766 174.743 207.766 175.1C207.766 175.457 207.408 175.695 207.17 175.695C206.812 175.695 206.574 175.457 206.574 175.1ZM199.302 175.1C199.302 174.743 199.541 174.505 199.898 174.505C200.137 174.505 200.494 174.743 200.494 175.1C200.494 175.457 200.137 175.695 199.898 175.695C199.541 175.695 199.302 175.457 199.302 175.1ZM191.912 175.1C191.912 174.743 192.27 174.505 192.508 174.505C192.866 174.505 193.223 174.743 193.223 175.1C193.223 175.457 192.866 175.695 192.508 175.695C192.27 175.695 191.912 175.457 191.912 175.1ZM184.76 175.1C184.76 174.743 184.998 174.505 185.356 174.505C185.594 174.505 185.833 174.743 185.833 175.1C185.833 175.457 185.594 175.695 185.356 175.695C184.998 175.695 184.76 175.457 184.76 175.1ZM177.37 175.1C177.37 174.743 177.727 174.505 177.966 174.505C178.323 174.505 178.562 174.743 178.562 175.1C178.562 175.457 178.323 175.695 177.966 175.695C177.727 175.695 177.37 175.457 177.37 175.1ZM170.098 175.1C170.098 174.743 170.456 174.505 170.694 174.505C171.052 174.505 171.29 174.743 171.29 175.1C171.29 175.457 171.052 175.695 170.694 175.695C170.456 175.695 170.098 175.457 170.098 175.1ZM162.827 175.1C162.827 174.743 163.066 174.505 163.423 174.505C163.781 174.505 164.019 174.743 164.019 175.1C164.019 175.457 163.781 175.695 163.423 175.695C163.066 175.695 162.827 175.457 162.827 175.1Z" fill="#E0E0E0"/>
<path d="M272.73 175.695C272.65 175.695 272.571 175.695 272.491 175.695C272.412 175.616 272.332 175.576 272.253 175.576C272.253 175.497 272.213 175.418 272.134 175.338C272.134 175.259 272.134 175.18 272.134 175.1C272.134 175.021 272.134 174.942 272.134 174.862C272.213 174.783 272.253 174.743 272.253 174.743C272.332 174.664 272.412 174.584 272.491 174.505C272.65 174.505 272.809 174.505 272.968 174.505C273.048 174.584 273.087 174.664 273.087 174.743C273.167 174.743 273.207 174.783 273.207 174.862C273.286 174.942 273.326 175.021 273.326 175.1C273.326 175.259 273.246 175.418 273.087 175.576C273.087 175.576 273.048 175.616 272.968 175.695C272.889 175.695 272.809 175.695 272.73 175.695V175.695Z" fill="#E0E0E0"/>
<path d="M272.134 168.077C272.134 167.72 272.372 167.482 272.73 167.482C272.968 167.482 273.326 167.72 273.326 168.077C273.326 168.315 272.968 168.672 272.73 168.672C272.372 168.672 272.134 168.315 272.134 168.077ZM272.134 160.935C272.134 160.578 272.372 160.34 272.73 160.34C272.968 160.34 273.326 160.578 273.326 160.935C273.326 161.292 272.968 161.53 272.73 161.53C272.372 161.53 272.134 161.292 272.134 160.935ZM272.134 153.793C272.134 153.555 272.372 153.198 272.73 153.198C272.968 153.198 273.326 153.555 273.326 153.793C273.326 154.15 272.968 154.388 272.73 154.388C272.372 154.388 272.134 154.15 272.134 153.793ZM272.134 146.77C272.134 146.413 272.372 146.175 272.73 146.175C272.968 146.175 273.326 146.413 273.326 146.77C273.326 147.127 272.968 147.365 272.73 147.365C272.372 147.365 272.134 147.127 272.134 146.77ZM272.134 139.628C272.134 139.39 272.372 139.033 272.73 139.033C272.968 139.033 273.326 139.39 273.326 139.628C273.326 139.985 272.968 140.223 272.73 140.223C272.372 140.223 272.134 139.985 272.134 139.628ZM272.134 132.605C272.134 132.248 272.372 132.01 272.73 132.01C272.968 132.01 273.326 132.248 273.326 132.605C273.326 132.843 272.968 133.2 272.73 133.2C272.372 133.2 272.134 132.843 272.134 132.605ZM272.134 125.463C272.134 125.106 272.372 124.868 272.73 124.868C272.968 124.868 273.326 125.106 273.326 125.463C273.326 125.82 272.968 126.058 272.73 126.058C272.372 126.058 272.134 125.82 272.134 125.463ZM272.134 118.44C272.134 118.083 272.372 117.844 272.73 117.844C272.968 117.844 273.326 118.083 273.326 118.44C273.326 118.678 272.968 119.035 272.73 119.035C272.372 119.035 272.134 118.678 272.134 118.44ZM272.134 111.298C272.134 110.94 272.372 110.702 272.73 110.702C272.968 110.702 273.326 110.94 273.326 111.298C273.326 111.655 272.968 111.893 272.73 111.893C272.372 111.893 272.134 111.655 272.134 111.298Z" fill="#E0E0E0"/>
<path d="M272.73 104.87C272.65 104.87 272.571 104.83 272.491 104.751C272.412 104.751 272.332 104.711 272.253 104.632C272.253 104.552 272.213 104.473 272.134 104.394C272.134 104.394 272.134 104.354 272.134 104.275C272.134 104.195 272.134 104.116 272.134 104.036C272.213 103.957 272.253 103.878 272.253 103.798C272.332 103.719 272.412 103.679 272.491 103.679C272.65 103.6 272.809 103.6 272.968 103.679C273.048 103.679 273.087 103.719 273.087 103.798C273.246 103.957 273.326 104.116 273.326 104.275C273.326 104.433 273.246 104.552 273.087 104.632C273.008 104.79 272.889 104.87 272.73 104.87V104.87Z" fill="#E0E0E0"/>
<path d="M436.272 104.275C436.272 103.917 436.51 103.56 436.868 103.56C437.226 103.56 437.464 103.917 437.464 104.275C437.464 104.513 437.226 104.87 436.868 104.87C436.51 104.87 436.272 104.513 436.272 104.275ZM429.12 104.275C429.12 103.917 429.358 103.56 429.716 103.56C430.074 103.56 430.312 103.917 430.312 104.275C430.312 104.513 430.074 104.87 429.716 104.87C429.358 104.87 429.12 104.513 429.12 104.275ZM421.968 104.275C421.968 103.917 422.206 103.56 422.564 103.56C422.922 103.56 423.16 103.917 423.16 104.275C423.16 104.513 422.922 104.87 422.564 104.87C422.206 104.87 421.968 104.513 421.968 104.275ZM414.816 104.275C414.816 103.917 415.054 103.56 415.412 103.56C415.77 103.56 416.008 103.917 416.008 104.275C416.008 104.513 415.77 104.87 415.412 104.87C415.054 104.87 414.816 104.513 414.816 104.275ZM407.664 104.275C407.664 103.917 408.022 103.56 408.26 103.56C408.618 103.56 408.856 103.917 408.856 104.275C408.856 104.513 408.618 104.87 408.26 104.87C408.022 104.87 407.664 104.513 407.664 104.275ZM400.512 104.275C400.512 103.917 400.87 103.56 401.108 103.56C401.466 103.56 401.704 103.917 401.704 104.275C401.704 104.513 401.466 104.87 401.108 104.87C400.87 104.87 400.512 104.513 400.512 104.275ZM393.479 104.275C393.479 103.917 393.718 103.56 394.075 103.56C394.314 103.56 394.671 103.917 394.671 104.275C394.671 104.513 394.314 104.87 394.075 104.87C393.718 104.87 393.479 104.513 393.479 104.275ZM386.327 104.275C386.327 103.917 386.566 103.56 386.923 103.56C387.162 103.56 387.519 103.917 387.519 104.275C387.519 104.513 387.162 104.87 386.923 104.87C386.566 104.87 386.327 104.513 386.327 104.275ZM379.175 104.275C379.175 103.917 379.414 103.56 379.771 103.56C380.129 103.56 380.367 103.917 380.367 104.275C380.367 104.513 380.129 104.87 379.771 104.87C379.414 104.87 379.175 104.513 379.175 104.275ZM372.023 104.275C372.023 103.917 372.262 103.56 372.619 103.56C372.977 103.56 373.215 103.917 373.215 104.275C373.215 104.513 372.977 104.87 372.619 104.87C372.262 104.87 372.023 104.513 372.023 104.275ZM364.871 104.275C364.871 103.917 365.11 103.56 365.467 103.56C365.825 103.56 366.063 103.917 366.063 104.275C366.063 104.513 365.825 104.87 365.467 104.87C365.11 104.87 364.871 104.513 364.871 104.275ZM357.719 104.275C357.719 103.917 357.958 103.56 358.315 103.56C358.673 103.56 358.911 103.917 358.911 104.275C358.911 104.513 358.673 104.87 358.315 104.87C357.958 104.87 357.719 104.513 357.719 104.275ZM350.567 104.275C350.567 103.917 350.925 103.56 351.163 103.56C351.521 103.56 351.759 103.917 351.759 104.275C351.759 104.513 351.521 104.87 351.163 104.87C350.925 104.87 350.567 104.513 350.567 104.275ZM343.415 104.275C343.415 103.917 343.773 103.56 344.011 103.56C344.369 103.56 344.607 103.917 344.607 104.275C344.607 104.513 344.369 104.87 344.011 104.87C343.773 104.87 343.415 104.513 343.415 104.275ZM336.382 104.275C336.382 103.917 336.621 103.56 336.978 103.56C337.217 103.56 337.574 103.917 337.574 104.275C337.574 104.513 337.217 104.87 336.978 104.87C336.621 104.87 336.382 104.513 336.382 104.275ZM329.23 104.275C329.23 103.917 329.469 103.56 329.826 103.56C330.184 103.56 330.422 103.917 330.422 104.275C330.422 104.513 330.184 104.87 329.826 104.87C329.469 104.87 329.23 104.513 329.23 104.275ZM322.078 104.275C322.078 103.917 322.317 103.56 322.674 103.56C323.032 103.56 323.27 103.917 323.27 104.275C323.27 104.513 323.032 104.87 322.674 104.87C322.317 104.87 322.078 104.513 322.078 104.275ZM314.926 104.275C314.926 103.917 315.165 103.56 315.522 103.56C315.88 103.56 316.118 103.917 316.118 104.275C316.118 104.513 315.88 104.87 315.522 104.87C315.165 104.87 314.926 104.513 314.926 104.275ZM307.774 104.275C307.774 103.917 308.013 103.56 308.37 103.56C308.728 103.56 308.966 103.917 308.966 104.275C308.966 104.513 308.728 104.87 308.37 104.87C308.013 104.87 307.774 104.513 307.774 104.275ZM300.622 104.275C300.622 103.917 300.98 103.56 301.218 103.56C301.576 103.56 301.814 103.917 301.814 104.275C301.814 104.513 301.576 104.87 301.218 104.87C300.98 104.87 300.622 104.513 300.622 104.275ZM293.47 104.275C293.47 103.917 293.828 103.56 294.066 103.56C294.424 103.56 294.662 103.917 294.662 104.275C294.662 104.513 294.424 104.87 294.066 104.87C293.828 104.87 293.47 104.513 293.47 104.275ZM286.318 104.275C286.318 103.917 286.676 103.56 286.914 103.56C287.272 103.56 287.51 103.917 287.51 104.275C287.51 104.513 287.272 104.87 286.914 104.87C286.676 104.87 286.318 104.513 286.318 104.275ZM279.286 104.275C279.286 103.917 279.524 103.56 279.882 103.56C280.12 103.56 280.478 103.917 280.478 104.275C280.478 104.513 280.12 104.87 279.882 104.87C279.524 104.87 279.286 104.513 279.286 104.275Z" fill="#E0E0E0"/>
<path d="M444.02 104.87C443.861 104.87 443.702 104.79 443.543 104.632C443.464 104.552 443.424 104.433 443.424 104.274C443.424 104.116 443.464 103.957 443.543 103.798C443.622 103.719 443.702 103.679 443.781 103.679C444.02 103.56 444.258 103.679 444.377 103.798C444.457 103.878 444.497 103.957 444.497 104.036C444.576 104.116 444.616 104.195 444.616 104.274C444.616 104.433 444.536 104.552 444.377 104.632C444.298 104.79 444.179 104.87 444.02 104.87V104.87Z" fill="#E0E0E0"/>
<path d="M443.424 97.3705C443.424 97.0134 443.662 96.7753 444.02 96.7753C444.258 96.7753 444.616 97.0134 444.616 97.3705C444.616 97.7276 444.258 97.9657 444.02 97.9657C443.662 97.9657 443.424 97.7276 443.424 97.3705ZM443.424 90.4665C443.424 90.1094 443.662 89.8713 444.02 89.8713C444.258 89.8713 444.616 90.1094 444.616 90.4665C444.616 90.8236 444.258 91.0617 444.02 91.0617C443.662 91.0617 443.424 90.8236 443.424 90.4665ZM443.424 83.5625C443.424 83.3244 443.662 82.9673 444.02 82.9673C444.258 82.9673 444.616 83.3244 444.616 83.5625C444.616 83.9196 444.258 84.1576 444.02 84.1576C443.662 84.1576 443.424 83.9196 443.424 83.5625ZM443.424 76.7775C443.424 76.4204 443.662 76.1823 444.02 76.1823C444.258 76.1823 444.616 76.4204 444.616 76.7775C444.616 77.0156 444.258 77.3727 444.02 77.3727C443.662 77.3727 443.424 77.0156 443.424 76.7775ZM443.424 69.8735C443.424 69.5164 443.662 69.2783 444.02 69.2783C444.258 69.2783 444.616 69.5164 444.616 69.8735C444.616 70.2306 444.258 70.4686 444.02 70.4686C443.662 70.4686 443.424 70.2306 443.424 69.8735ZM443.424 62.9694C443.424 62.7314 443.662 62.3743 444.02 62.3743C444.258 62.3743 444.616 62.7314 444.616 62.9694C444.616 63.3265 444.258 63.5646 444.02 63.5646C443.662 63.5646 443.424 63.3265 443.424 62.9694Z" fill="#E0E0E0"/>
<path d="M444.02 56.7797C443.861 56.7797 443.702 56.7003 443.543 56.5416C443.464 56.4622 443.424 56.3432 443.424 56.1845C443.424 56.1051 443.424 56.0258 443.424 55.9464C443.503 55.8671 443.543 55.7877 443.543 55.7083C443.781 55.4703 444.139 55.4703 444.377 55.7083C444.536 55.8671 444.616 56.0258 444.616 56.1845C444.616 56.2638 444.576 56.3035 444.497 56.3035C444.497 56.3829 444.457 56.4622 444.377 56.5416C444.377 56.6209 444.338 56.6606 444.258 56.6606C444.179 56.74 444.099 56.7797 444.02 56.7797V56.7797Z" fill="#E0E0E0"/>
<path d="M197.634 280.684C197.475 280.684 197.316 280.644 197.157 280.565C197.157 280.486 197.117 280.406 197.038 280.327C197.038 280.248 197.038 280.168 197.038 280.089C197.038 279.93 197.077 279.811 197.157 279.732C197.395 279.494 197.634 279.494 197.872 279.613C197.951 279.613 197.991 279.653 197.991 279.732C198.15 279.811 198.23 279.93 198.23 280.089C198.23 280.168 198.23 280.248 198.23 280.327C198.15 280.406 198.071 280.486 197.991 280.565C197.991 280.644 197.951 280.684 197.872 280.684C197.793 280.684 197.713 280.684 197.634 280.684Z" fill="#E0E0E0"/>
<path d="M197.038 309.372C197.038 309.015 197.276 308.776 197.634 308.776C197.991 308.776 198.23 309.015 198.23 309.372C198.23 309.61 197.991 309.967 197.634 309.967C197.276 309.967 197.038 309.61 197.038 309.372ZM197.038 301.991C197.038 301.753 197.276 301.396 197.634 301.396C197.991 301.396 198.23 301.753 198.23 301.991C198.23 302.349 197.991 302.587 197.634 302.587C197.276 302.587 197.038 302.349 197.038 301.991ZM197.038 294.73C197.038 294.373 197.276 294.135 197.634 294.135C197.991 294.135 198.23 294.373 198.23 294.73C198.23 295.087 197.991 295.326 197.634 295.326C197.276 295.326 197.038 295.087 197.038 294.73ZM197.038 287.469C197.038 287.112 197.276 286.874 197.634 286.874C197.991 286.874 198.23 287.112 198.23 287.469C198.23 287.707 197.991 288.064 197.634 288.064C197.276 288.064 197.038 287.707 197.038 287.469Z" fill="#E0E0E0"/>
<path d="M197.634 317.228C197.475 317.228 197.316 317.149 197.157 316.99C197.157 316.99 197.117 316.95 197.038 316.871C197.038 316.792 197.038 316.712 197.038 316.633C197.038 316.553 197.038 316.474 197.038 316.395C197.117 316.315 197.157 316.236 197.157 316.157C197.395 316.038 197.634 316.038 197.872 316.038C197.951 316.117 197.991 316.157 197.991 316.157C198.071 316.236 198.15 316.315 198.23 316.395C198.23 316.474 198.23 316.553 198.23 316.633C198.23 316.712 198.23 316.792 198.23 316.871C198.15 316.95 198.071 316.99 197.991 316.99C197.991 317.069 197.951 317.149 197.872 317.228C197.793 317.228 197.713 317.228 197.634 317.228Z" fill="#E0E0E0"/>
<path d="M265.22 316.633C265.22 316.276 265.578 316.038 265.816 316.038C266.174 316.038 266.412 316.276 266.412 316.633C266.412 316.99 266.174 317.228 265.816 317.228C265.578 317.228 265.22 316.99 265.22 316.633ZM258.426 316.633C258.426 316.276 258.664 316.038 259.022 316.038C259.379 316.038 259.618 316.276 259.618 316.633C259.618 316.99 259.379 317.228 259.022 317.228C258.664 317.228 258.426 316.99 258.426 316.633ZM251.631 316.633C251.631 316.276 251.87 316.038 252.227 316.038C252.585 316.038 252.823 316.276 252.823 316.633C252.823 316.99 252.585 317.228 252.227 317.228C251.87 317.228 251.631 316.99 251.631 316.633ZM244.837 316.633C244.837 316.276 245.075 316.038 245.433 316.038C245.671 316.038 246.029 316.276 246.029 316.633C246.029 316.99 245.671 317.228 245.433 317.228C245.075 317.228 244.837 316.99 244.837 316.633ZM237.923 316.633C237.923 316.276 238.281 316.038 238.519 316.038C238.877 316.038 239.115 316.276 239.115 316.633C239.115 316.99 238.877 317.228 238.519 317.228C238.281 317.228 237.923 316.99 237.923 316.633ZM231.129 316.633C231.129 316.276 231.367 316.038 231.725 316.038C232.082 316.038 232.321 316.276 232.321 316.633C232.321 316.99 232.082 317.228 231.725 317.228C231.367 317.228 231.129 316.99 231.129 316.633ZM224.334 316.633C224.334 316.276 224.573 316.038 224.93 316.038C225.288 316.038 225.526 316.276 225.526 316.633C225.526 316.99 225.288 317.228 224.93 317.228C224.573 317.228 224.334 316.99 224.334 316.633ZM217.54 316.633C217.54 316.276 217.778 316.038 218.136 316.038C218.374 316.038 218.732 316.276 218.732 316.633C218.732 316.99 218.374 317.228 218.136 317.228C217.778 317.228 217.54 316.99 217.54 316.633ZM210.626 316.633C210.626 316.276 210.984 316.038 211.222 316.038C211.58 316.038 211.818 316.276 211.818 316.633C211.818 316.99 211.58 317.228 211.222 317.228C210.984 317.228 210.626 316.99 210.626 316.633ZM203.832 316.633C203.832 316.276 204.07 316.038 204.428 316.038C204.786 316.038 205.024 316.276 205.024 316.633C205.024 316.99 204.786 317.228 204.428 317.228C204.07 317.228 203.832 316.99 203.832 316.633Z" fill="#E0E0E0"/>
<path d="M272.73 317.228C272.65 317.228 272.571 317.228 272.491 317.228C272.412 317.149 272.332 317.069 272.253 316.99C272.253 316.99 272.213 316.95 272.134 316.871C272.134 316.792 272.134 316.712 272.134 316.633C272.134 316.474 272.174 316.315 272.253 316.157C272.332 316.157 272.412 316.117 272.491 316.038C272.65 316.038 272.809 316.038 272.968 316.038C273.048 316.117 273.087 316.157 273.087 316.157C273.246 316.315 273.326 316.474 273.326 316.633C273.326 316.712 273.286 316.792 273.207 316.871C273.207 316.95 273.167 316.99 273.087 316.99C273.087 317.069 273.048 317.149 272.968 317.228C272.889 317.228 272.809 317.228 272.73 317.228V317.228Z" fill="#E0E0E0"/>
<path d="M272.134 309.729C272.134 309.372 272.372 309.134 272.73 309.134C272.968 309.134 273.326 309.372 273.326 309.729C273.326 309.967 272.968 310.324 272.73 310.324C272.372 310.324 272.134 309.967 272.134 309.729ZM272.134 302.825C272.134 302.468 272.372 302.111 272.73 302.111C272.968 302.111 273.326 302.468 273.326 302.825C273.326 303.063 272.968 303.42 272.73 303.42C272.372 303.42 272.134 303.063 272.134 302.825ZM272.134 295.802C272.134 295.564 272.372 295.207 272.73 295.207C272.968 295.207 273.326 295.564 273.326 295.802C273.326 296.159 272.968 296.397 272.73 296.397C272.372 296.397 272.134 296.159 272.134 295.802ZM272.134 288.898C272.134 288.541 272.372 288.302 272.73 288.302C272.968 288.302 273.326 288.541 273.326 288.898C273.326 289.255 272.968 289.493 272.73 289.493C272.372 289.493 272.134 289.255 272.134 288.898ZM272.134 281.994C272.134 281.637 272.372 281.398 272.73 281.398C272.968 281.398 273.326 281.637 273.326 281.994C273.326 282.351 272.968 282.589 272.73 282.589C272.372 282.589 272.134 282.351 272.134 281.994ZM272.134 275.09C272.134 274.733 272.372 274.494 272.73 274.494C272.968 274.494 273.326 274.733 273.326 275.09C273.326 275.328 272.968 275.685 272.73 275.685C272.372 275.685 272.134 275.328 272.134 275.09ZM272.134 268.067C272.134 267.828 272.372 267.471 272.73 267.471C272.968 267.471 273.326 267.828 273.326 268.067C273.326 268.424 272.968 268.662 272.73 268.662C272.372 268.662 272.134 268.424 272.134 268.067ZM272.134 261.163C272.134 260.805 272.372 260.567 272.73 260.567C272.968 260.567 273.326 260.805 273.326 261.163C273.326 261.52 272.968 261.758 272.73 261.758C272.372 261.758 272.134 261.52 272.134 261.163ZM272.134 254.259C272.134 253.901 272.372 253.663 272.73 253.663C272.968 253.663 273.326 253.901 273.326 254.259C273.326 254.616 272.968 254.854 272.73 254.854C272.372 254.854 272.134 254.616 272.134 254.259ZM272.134 247.354C272.134 246.997 272.372 246.759 272.73 246.759C272.968 246.759 273.326 246.997 273.326 247.354C273.326 247.593 272.968 247.95 272.73 247.95C272.372 247.95 272.134 247.593 272.134 247.354ZM272.134 240.45C272.134 240.093 272.372 239.855 272.73 239.855C272.968 239.855 273.326 240.093 273.326 240.45C273.326 240.689 272.968 241.046 272.73 241.046C272.372 241.046 272.134 240.689 272.134 240.45ZM272.134 233.427C272.134 233.189 272.372 232.832 272.73 232.832C272.968 232.832 273.326 233.189 273.326 233.427C273.326 233.785 272.968 234.023 272.73 234.023C272.372 234.023 272.134 233.785 272.134 233.427ZM272.134 226.523C272.134 226.166 272.372 225.928 272.73 225.928C272.968 225.928 273.326 226.166 273.326 226.523C273.326 226.88 272.968 227.119 272.73 227.119C272.372 227.119 272.134 226.88 272.134 226.523ZM272.134 219.619C272.134 219.262 272.372 219.024 272.73 219.024C272.968 219.024 273.326 219.262 273.326 219.619C273.326 219.976 272.968 220.215 272.73 220.215C272.372 220.215 272.134 219.976 272.134 219.619Z" fill="#E0E0E0"/>
<path d="M272.73 213.31C272.65 213.31 272.571 213.271 272.491 213.191C272.412 213.191 272.332 213.152 272.253 213.072C272.253 212.993 272.213 212.953 272.134 212.953C272.134 212.874 272.134 212.795 272.134 212.715C272.134 212.557 272.174 212.398 272.253 212.239C272.332 212.16 272.412 212.12 272.491 212.12C272.65 212.041 272.809 212.041 272.968 212.12C273.048 212.12 273.087 212.16 273.087 212.239C273.246 212.398 273.326 212.557 273.326 212.715C273.326 212.795 273.286 212.874 273.207 212.953C273.207 212.953 273.167 212.993 273.087 213.072C273.087 213.152 273.048 213.191 272.968 213.191C272.889 213.271 272.809 213.31 272.73 213.31V213.31Z" fill="#E0E0E0"/>
<path d="M365.825 212.715C365.825 212.358 366.063 212.12 366.421 212.12C366.778 212.12 367.017 212.358 367.017 212.715C367.017 212.953 366.778 213.31 366.421 213.31C366.063 213.31 365.825 212.953 365.825 212.715ZM358.673 212.715C358.673 212.358 358.911 212.12 359.269 212.12C359.507 212.12 359.865 212.358 359.865 212.715C359.865 212.953 359.507 213.31 359.269 213.31C358.911 213.31 358.673 212.953 358.673 212.715ZM351.402 212.715C351.402 212.358 351.64 212.12 351.998 212.12C352.355 212.12 352.594 212.358 352.594 212.715C352.594 212.953 352.355 213.31 351.998 213.31C351.64 213.31 351.402 212.953 351.402 212.715ZM344.25 212.715C344.25 212.358 344.488 212.12 344.846 212.12C345.084 212.12 345.442 212.358 345.442 212.715C345.442 212.953 345.084 213.31 344.846 213.31C344.488 213.31 344.25 212.953 344.25 212.715ZM336.978 212.715C336.978 212.358 337.217 212.12 337.574 212.12C337.932 212.12 338.17 212.358 338.17 212.715C338.17 212.953 337.932 213.31 337.574 213.31C337.217 213.31 336.978 212.953 336.978 212.715ZM329.826 212.715C329.826 212.358 330.065 212.12 330.422 212.12C330.661 212.12 331.018 212.358 331.018 212.715C331.018 212.953 330.661 213.31 330.422 213.31C330.065 213.31 329.826 212.953 329.826 212.715ZM322.555 212.715C322.555 212.358 322.794 212.12 323.151 212.12C323.509 212.12 323.747 212.358 323.747 212.715C323.747 212.953 323.509 213.31 323.151 213.31C322.794 213.31 322.555 212.953 322.555 212.715ZM315.403 212.715C315.403 212.358 315.642 212.12 315.999 212.12C316.238 212.12 316.595 212.358 316.595 212.715C316.595 212.953 316.238 213.31 315.999 213.31C315.642 213.31 315.403 212.953 315.403 212.715ZM308.132 212.715C308.132 212.358 308.37 212.12 308.728 212.12C309.086 212.12 309.324 212.358 309.324 212.715C309.324 212.953 309.086 213.31 308.728 213.31C308.37 213.31 308.132 212.953 308.132 212.715ZM300.98 212.715C300.98 212.358 301.218 212.12 301.576 212.12C301.814 212.12 302.172 212.358 302.172 212.715C302.172 212.953 301.814 213.31 301.576 213.31C301.218 213.31 300.98 212.953 300.98 212.715ZM293.709 212.715C293.709 212.358 293.947 212.12 294.305 212.12C294.662 212.12 294.901 212.358 294.901 212.715C294.901 212.953 294.662 213.31 294.305 213.31C293.947 213.31 293.709 212.953 293.709 212.715ZM286.557 212.715C286.557 212.358 286.795 212.12 287.153 212.12C287.391 212.12 287.749 212.358 287.749 212.715C287.749 212.953 287.391 213.31 287.153 213.31C286.795 213.31 286.557 212.953 286.557 212.715ZM279.286 212.715C279.286 212.358 279.524 212.12 279.882 212.12C280.239 212.12 280.478 212.358 280.478 212.715C280.478 212.953 280.239 213.31 279.882 213.31C279.524 213.31 279.286 212.953 279.286 212.715Z" fill="#E0E0E0"/>
<path d="M373.692 213.31C373.533 213.31 373.374 213.231 373.215 213.072C373.136 212.993 373.096 212.953 373.096 212.953C373.096 212.874 373.096 212.795 373.096 212.715C373.096 212.636 373.096 212.557 373.096 212.477C373.096 212.398 373.136 212.318 373.215 212.239C373.295 212.16 373.374 212.12 373.454 212.12C373.613 212.041 373.732 212.041 373.811 212.12C373.891 212.12 373.97 212.16 374.05 212.239C374.129 212.318 374.169 212.398 374.169 212.477C374.248 212.557 374.288 212.636 374.288 212.715C374.288 212.874 374.209 212.993 374.05 213.072C373.97 213.231 373.851 213.31 373.692 213.31V213.31Z" fill="#E0E0E0"/>
<path d="M373.096 205.216C373.096 204.859 373.335 204.621 373.692 204.621C373.931 204.621 374.288 204.859 374.288 205.216C374.288 205.454 373.931 205.811 373.692 205.811C373.335 205.811 373.096 205.454 373.096 205.216ZM373.096 197.598C373.096 197.36 373.335 197.003 373.692 197.003C373.931 197.003 374.288 197.36 374.288 197.598C374.288 197.955 373.931 198.193 373.692 198.193C373.335 198.193 373.096 197.955 373.096 197.598ZM373.096 190.099C373.096 189.861 373.335 189.503 373.692 189.503C373.931 189.503 374.288 189.861 374.288 190.099C374.288 190.456 373.931 190.694 373.692 190.694C373.335 190.694 373.096 190.456 373.096 190.099ZM373.096 182.599C373.096 182.242 373.335 182.004 373.692 182.004C373.931 182.004 374.288 182.242 374.288 182.599C374.288 182.957 373.931 183.195 373.692 183.195C373.335 183.195 373.096 182.957 373.096 182.599Z" fill="#E0E0E0"/>
<path d="M373.692 175.695C373.533 175.695 373.374 175.656 373.215 175.576C373.136 175.497 373.096 175.418 373.096 175.338C373.096 175.259 373.096 175.18 373.096 175.1C373.096 175.021 373.096 174.942 373.096 174.862C373.096 174.783 373.136 174.743 373.215 174.743C373.295 174.664 373.374 174.584 373.454 174.505C373.613 174.505 373.732 174.505 373.811 174.505C373.891 174.584 373.97 174.664 374.05 174.743C374.129 174.743 374.169 174.783 374.169 174.862C374.248 174.942 374.288 175.021 374.288 175.1C374.288 175.259 374.209 175.418 374.05 175.576C373.97 175.656 373.851 175.695 373.692 175.695V175.695Z" fill="#E0E0E0"/>
<path d="M444.02 307.348C443.861 307.348 443.702 307.269 443.543 307.11C443.464 307.031 443.424 306.912 443.424 306.753C443.424 306.594 443.464 306.435 443.543 306.277C443.781 306.158 444.02 306.039 444.258 306.158C444.338 306.158 444.377 306.197 444.377 306.277C444.457 306.356 444.497 306.435 444.497 306.515C444.576 306.594 444.616 306.674 444.616 306.753C444.616 306.912 444.536 307.031 444.377 307.11C444.298 307.269 444.179 307.348 444.02 307.348V307.348Z" fill="#E0E0E0"/>
<path d="M443.424 347.82C443.424 347.582 443.662 347.225 444.02 347.225C444.258 347.225 444.616 347.582 444.616 347.82C444.616 348.177 444.258 348.415 444.02 348.415C443.662 348.415 443.424 348.177 443.424 347.82ZM443.424 341.035C443.424 340.678 443.662 340.44 444.02 340.44C444.258 340.44 444.616 340.678 444.616 341.035C444.616 341.273 444.258 341.63 444.02 341.63C443.662 341.63 443.424 341.273 443.424 341.035ZM443.424 334.131C443.424 333.774 443.662 333.536 444.02 333.536C444.258 333.536 444.616 333.774 444.616 334.131C444.616 334.488 444.258 334.726 444.02 334.726C443.662 334.726 443.424 334.488 443.424 334.131ZM443.424 327.227C443.424 326.989 443.662 326.632 444.02 326.632C444.258 326.632 444.616 326.989 444.616 327.227C444.616 327.584 444.258 327.822 444.02 327.822C443.662 327.822 443.424 327.584 443.424 327.227ZM443.424 320.442C443.424 320.085 443.662 319.847 444.02 319.847C444.258 319.847 444.616 320.085 444.616 320.442C444.616 320.799 444.258 321.037 444.02 321.037C443.662 321.037 443.424 320.799 443.424 320.442ZM443.424 313.538C443.424 313.181 443.662 312.943 444.02 312.943C444.258 312.943 444.616 313.181 444.616 313.538C444.616 313.895 444.258 314.133 444.02 314.133C443.662 314.133 443.424 313.895 443.424 313.538Z" fill="#E0E0E0"/>
<path d="M444.02 355.319C443.861 355.319 443.702 355.24 443.543 355.081C443.464 355.002 443.424 354.883 443.424 354.724C443.424 354.644 443.424 354.565 443.424 354.486C443.503 354.406 443.543 354.327 443.543 354.248C443.781 354.129 444.139 354.129 444.377 354.248C444.536 354.406 444.616 354.565 444.616 354.724C444.616 354.803 444.576 354.883 444.497 354.962C444.497 355.041 444.457 355.081 444.377 355.081C444.377 355.16 444.338 355.24 444.258 355.319C444.179 355.319 444.099 355.319 444.02 355.319V355.319Z" fill="#E0E0E0"/>
<path d="M436.272 354.724C436.272 354.367 436.51 354.129 436.868 354.129C437.226 354.129 437.464 354.367 437.464 354.724C437.464 355.081 437.226 355.319 436.868 355.319C436.51 355.319 436.272 355.081 436.272 354.724ZM429.12 354.724C429.12 354.367 429.358 354.129 429.716 354.129C430.074 354.129 430.312 354.367 430.312 354.724C430.312 355.081 430.074 355.319 429.716 355.319C429.358 355.319 429.12 355.081 429.12 354.724ZM421.968 354.724C421.968 354.367 422.206 354.129 422.564 354.129C422.922 354.129 423.16 354.367 423.16 354.724C423.16 355.081 422.922 355.319 422.564 355.319C422.206 355.319 421.968 355.081 421.968 354.724ZM414.816 354.724C414.816 354.367 415.054 354.129 415.412 354.129C415.77 354.129 416.008 354.367 416.008 354.724C416.008 355.081 415.77 355.319 415.412 355.319C415.054 355.319 414.816 355.081 414.816 354.724ZM407.664 354.724C407.664 354.367 408.022 354.129 408.26 354.129C408.618 354.129 408.856 354.367 408.856 354.724C408.856 355.081 408.618 355.319 408.26 355.319C408.022 355.319 407.664 355.081 407.664 354.724ZM400.512 354.724C400.512 354.367 400.87 354.129 401.108 354.129C401.466 354.129 401.704 354.367 401.704 354.724C401.704 355.081 401.466 355.319 401.108 355.319C400.87 355.319 400.512 355.081 400.512 354.724ZM393.479 354.724C393.479 354.367 393.718 354.129 394.075 354.129C394.314 354.129 394.671 354.367 394.671 354.724C394.671 355.081 394.314 355.319 394.075 355.319C393.718 355.319 393.479 355.081 393.479 354.724ZM386.327 354.724C386.327 354.367 386.566 354.129 386.923 354.129C387.162 354.129 387.519 354.367 387.519 354.724C387.519 355.081 387.162 355.319 386.923 355.319C386.566 355.319 386.327 355.081 386.327 354.724ZM379.175 354.724C379.175 354.367 379.414 354.129 379.771 354.129C380.129 354.129 380.367 354.367 380.367 354.724C380.367 355.081 380.129 355.319 379.771 355.319C379.414 355.319 379.175 355.081 379.175 354.724ZM372.023 354.724C372.023 354.367 372.262 354.129 372.619 354.129C372.977 354.129 373.215 354.367 373.215 354.724C373.215 355.081 372.977 355.319 372.619 355.319C372.262 355.319 372.023 355.081 372.023 354.724ZM364.871 354.724C364.871 354.367 365.11 354.129 365.467 354.129C365.825 354.129 366.063 354.367 366.063 354.724C366.063 355.081 365.825 355.319 365.467 355.319C365.11 355.319 364.871 355.081 364.871 354.724ZM357.719 354.724C357.719 354.367 357.958 354.129 358.315 354.129C358.673 354.129 358.911 354.367 358.911 354.724C358.911 355.081 358.673 355.319 358.315 355.319C357.958 355.319 357.719 355.081 357.719 354.724ZM350.567 354.724C350.567 354.367 350.925 354.129 351.163 354.129C351.521 354.129 351.759 354.367 351.759 354.724C351.759 355.081 351.521 355.319 351.163 355.319C350.925 355.319 350.567 355.081 350.567 354.724ZM343.415 354.724C343.415 354.367 343.773 354.129 344.011 354.129C344.369 354.129 344.607 354.367 344.607 354.724C344.607 355.081 344.369 355.319 344.011 355.319C343.773 355.319 343.415 355.081 343.415 354.724ZM336.382 354.724C336.382 354.367 336.621 354.129 336.978 354.129C337.217 354.129 337.574 354.367 337.574 354.724C337.574 355.081 337.217 355.319 336.978 355.319C336.621 355.319 336.382 355.081 336.382 354.724ZM329.23 354.724C329.23 354.367 329.469 354.129 329.826 354.129C330.184 354.129 330.422 354.367 330.422 354.724C330.422 355.081 330.184 355.319 329.826 355.319C329.469 355.319 329.23 355.081 329.23 354.724ZM322.078 354.724C322.078 354.367 322.317 354.129 322.674 354.129C323.032 354.129 323.27 354.367 323.27 354.724C323.27 355.081 323.032 355.319 322.674 355.319C322.317 355.319 322.078 355.081 322.078 354.724ZM314.926 354.724C314.926 354.367 315.165 354.129 315.522 354.129C315.88 354.129 316.118 354.367 316.118 354.724C316.118 355.081 315.88 355.319 315.522 355.319C315.165 355.319 314.926 355.081 314.926 354.724ZM307.774 354.724C307.774 354.367 308.013 354.129 308.37 354.129C308.728 354.129 308.966 354.367 308.966 354.724C308.966 355.081 308.728 355.319 308.37 355.319C308.013 355.319 307.774 355.081 307.774 354.724ZM300.622 354.724C300.622 354.367 300.98 354.129 301.218 354.129C301.576 354.129 301.814 354.367 301.814 354.724C301.814 355.081 301.576 355.319 301.218 355.319C300.98 355.319 300.622 355.081 300.622 354.724ZM293.47 354.724C293.47 354.367 293.828 354.129 294.066 354.129C294.424 354.129 294.662 354.367 294.662 354.724C294.662 355.081 294.424 355.319 294.066 355.319C293.828 355.319 293.47 355.081 293.47 354.724ZM286.318 354.724C286.318 354.367 286.676 354.129 286.914 354.129C287.272 354.129 287.51 354.367 287.51 354.724C287.51 355.081 287.272 355.319 286.914 355.319C286.676 355.319 286.318 355.081 286.318 354.724ZM279.286 354.724C279.286 354.367 279.524 354.129 279.882 354.129C280.12 354.129 280.478 354.367 280.478 354.724C280.478 355.081 280.12 355.319 279.882 355.319C279.524 355.319 279.286 355.081 279.286 354.724Z" fill="#E0E0E0"/>
<path d="M272.73 355.319C272.65 355.319 272.571 355.319 272.491 355.319C272.412 355.24 272.332 355.16 272.253 355.081C272.253 355.081 272.213 355.041 272.134 354.962C272.134 354.883 272.134 354.803 272.134 354.724C272.134 354.644 272.134 354.565 272.134 354.486C272.213 354.406 272.253 354.327 272.253 354.248C272.332 354.248 272.412 354.208 272.491 354.129C272.65 354.129 272.809 354.129 272.968 354.129C273.048 354.208 273.087 354.248 273.087 354.248C273.167 354.327 273.207 354.406 273.207 354.486C273.286 354.565 273.326 354.644 273.326 354.724C273.326 354.803 273.286 354.883 273.207 354.962C273.207 355.041 273.167 355.081 273.087 355.081C273.087 355.16 273.048 355.24 272.968 355.319C272.889 355.319 272.809 355.319 272.73 355.319V355.319Z" fill="#E0E0E0"/>
<path d="M272.134 347.106C272.134 346.748 272.372 346.51 272.73 346.51C272.968 346.51 273.326 346.748 273.326 347.106C273.326 347.463 272.968 347.701 272.73 347.701C272.372 347.701 272.134 347.463 272.134 347.106ZM272.134 339.487C272.134 339.13 272.372 338.892 272.73 338.892C272.968 338.892 273.326 339.13 273.326 339.487C273.326 339.844 272.968 340.083 272.73 340.083C272.372 340.083 272.134 339.844 272.134 339.487ZM272.134 331.869C272.134 331.512 272.372 331.274 272.73 331.274C272.968 331.274 273.326 331.512 273.326 331.869C273.326 332.226 272.968 332.464 272.73 332.464C272.372 332.464 272.134 332.226 272.134 331.869ZM272.134 324.251C272.134 323.894 272.372 323.656 272.73 323.656C272.968 323.656 273.326 323.894 273.326 324.251C273.326 324.608 272.968 324.846 272.73 324.846C272.372 324.846 272.134 324.608 272.134 324.251Z" fill="#E0E0E0"/>
<path d="M272.73 317.228C272.65 317.228 272.571 317.228 272.491 317.228C272.412 317.149 272.332 317.069 272.253 316.99C272.253 316.99 272.213 316.95 272.134 316.871C272.134 316.792 272.134 316.712 272.134 316.633C272.134 316.474 272.174 316.315 272.253 316.157C272.332 316.157 272.412 316.117 272.491 316.038C272.65 316.038 272.809 316.038 272.968 316.038C273.048 316.117 273.087 316.157 273.087 316.157C273.246 316.315 273.326 316.474 273.326 316.633C273.326 316.712 273.286 316.792 273.207 316.871C273.207 316.95 273.167 316.99 273.087 316.99C273.087 317.069 273.048 317.149 272.968 317.228C272.889 317.228 272.809 317.228 272.73 317.228V317.228Z" fill="#E0E0E0"/>
<path d="M272.73 175.695C272.65 175.695 272.571 175.695 272.491 175.695C272.412 175.616 272.332 175.576 272.253 175.576C272.253 175.497 272.213 175.418 272.134 175.338C272.134 175.259 272.134 175.18 272.134 175.1C272.134 175.021 272.134 174.942 272.134 174.862C272.213 174.783 272.253 174.743 272.253 174.743C272.332 174.664 272.412 174.584 272.491 174.505C272.65 174.505 272.809 174.505 272.968 174.505C273.048 174.584 273.087 174.664 273.087 174.743C273.167 174.743 273.207 174.783 273.207 174.862C273.286 174.942 273.326 175.021 273.326 175.1C273.326 175.259 273.246 175.418 273.087 175.576C273.087 175.576 273.048 175.616 272.968 175.695C272.889 175.695 272.809 175.695 272.73 175.695V175.695Z" fill="#E0E0E0"/>
<path d="M272.134 205.216C272.134 204.859 272.372 204.502 272.73 204.502C272.968 204.502 273.326 204.859 273.326 205.216C273.326 205.454 272.968 205.811 272.73 205.811C272.372 205.811 272.134 205.454 272.134 205.216ZM272.134 197.598C272.134 197.36 272.372 197.003 272.73 197.003C272.968 197.003 273.326 197.36 273.326 197.598C273.326 197.955 272.968 198.193 272.73 198.193C272.372 198.193 272.134 197.955 272.134 197.598ZM272.134 190.099C272.134 189.861 272.372 189.503 272.73 189.503C272.968 189.503 273.326 189.861 273.326 190.099C273.326 190.456 272.968 190.694 272.73 190.694C272.372 190.694 272.134 190.456 272.134 190.099ZM272.134 182.599C272.134 182.242 272.372 182.004 272.73 182.004C272.968 182.004 273.326 182.242 273.326 182.599C273.326 182.957 272.968 183.195 272.73 183.195C272.372 183.195 272.134 182.957 272.134 182.599Z" fill="#E0E0E0"/>
<path d="M272.73 213.31C272.65 213.31 272.571 213.271 272.491 213.191C272.412 213.191 272.332 213.152 272.253 213.072C272.253 212.993 272.213 212.953 272.134 212.953C272.134 212.874 272.134 212.795 272.134 212.715C272.134 212.557 272.174 212.398 272.253 212.239C272.332 212.16 272.412 212.12 272.491 212.12C272.65 212.041 272.809 212.041 272.968 212.12C273.048 212.12 273.087 212.16 273.087 212.239C273.246 212.398 273.326 212.557 273.326 212.715C273.326 212.795 273.286 212.874 273.207 212.953C273.207 212.953 273.167 212.993 273.087 213.072C273.087 213.152 273.048 213.191 272.968 213.191C272.889 213.271 272.809 213.31 272.73 213.31V213.31Z" fill="#E0E0E0"/>
<path d="M132.074 257.115C128.736 175.695 239.592 138.199 323.39 130.819C438.06 120.701 483.356 186.409 476.323 242.831C471.436 282.113 446.523 341.749 344.488 354.843C204.666 372.817 135.65 346.63 132.074 257.115V257.115Z" fill="#FC8019"/>
<path opacity="0.9" d="M132.074 257.115C128.736 175.695 239.592 138.199 323.39 130.819C438.06 120.701 483.356 186.409 476.323 242.831C471.436 282.113 446.523 341.749 344.488 354.843C204.666 372.817 135.65 346.63 132.074 257.115V257.115Z" fill="white"/>
<path d="M146.973 355.319L149.357 314.49C149.477 312.109 151.503 310.205 153.887 310.205H220.162C222.546 310.205 224.334 312.109 224.215 314.49L221.831 355.319C221.712 357.7 219.685 359.604 217.301 359.604H151.026C148.642 359.604 146.854 357.7 146.973 355.319V355.319Z" fill="#FC8019"/>
<path d="M143.636 355.319L146.02 314.49C146.139 312.109 148.166 310.205 150.55 310.205H219.447C221.831 310.205 223.619 312.109 223.5 314.49L221.116 355.319C220.997 357.7 218.97 359.604 216.586 359.604H147.689C145.305 359.604 143.517 357.7 143.636 355.319V355.319Z" fill="white"/>
<path opacity="0.3" d="M143.636 355.319L146.02 314.49C146.139 312.109 148.166 310.205 150.55 310.205H219.447C221.831 310.205 223.619 312.109 223.5 314.49L221.116 355.319C220.997 357.7 218.97 359.604 216.586 359.604H147.689C145.305 359.604 143.517 357.7 143.636 355.319V355.319Z" fill="#FC8019"/>
<path d="M171.886 368.413V367.818C171.886 365.437 173.793 363.532 176.177 363.532H201.09C203.474 363.532 205.501 365.437 205.501 367.818V368.413C205.501 370.794 203.474 372.698 201.09 372.698H176.177C173.793 372.698 171.886 370.794 171.886 368.413Z" fill="#FC8019"/>
<g opacity="0.6">
<path opacity="0.6" d="M171.886 368.413V367.818C171.886 365.437 173.793 363.532 176.177 363.532H201.09C203.474 363.532 205.501 365.437 205.501 367.818V368.413C205.501 370.794 203.474 372.698 201.09 372.698H176.177C173.793 372.698 171.886 370.794 171.886 368.413Z" fill="white"/>
</g>
<path d="M161.635 368.413V367.818C161.635 365.437 163.662 363.532 166.046 363.532H193.581C195.965 363.532 197.872 365.437 197.872 367.818V368.413C197.872 370.794 195.965 372.698 193.581 372.698H166.046C163.662 372.698 161.635 370.794 161.635 368.413Z" fill="white"/>
<path opacity="0.3" d="M161.635 368.413V367.818C161.635 365.437 163.662 363.532 166.046 363.532H193.581C195.965 363.532 197.872 365.437 197.872 367.818V368.413C197.872 370.794 195.965 372.698 193.581 372.698H166.046C163.662 372.698 161.635 370.794 161.635 368.413Z" fill="#FC8019"/>
<path opacity="0.9" d="M217.54 357.462H146.974C145.901 357.462 145.066 356.628 145.186 355.676L147.57 314.252C147.57 313.181 148.523 312.347 149.596 312.347H220.162C221.235 312.347 221.95 313.181 221.95 314.252L219.566 355.676C219.566 356.628 218.613 357.462 217.54 357.462Z" fill="white"/>
<path opacity="0.1" d="M167.357 357.462H153.291L166.165 312.347H180.111L167.357 357.462Z" fill="#FC8019"/>
<path opacity="0.1" d="M178.8 357.462H169.025L181.899 312.347H191.673L178.8 357.462Z" fill="#FC8019"/>
<path opacity="0.1" d="M200.137 357.462H190.362L203.236 312.347H213.01L200.137 357.462Z" fill="#FC8019"/>
<path d="M261.048 355.319L263.432 314.49C263.551 312.109 265.578 310.205 267.962 310.205H334.237C336.621 310.205 338.409 312.109 338.29 314.49L335.906 355.319C335.786 357.7 333.76 359.604 331.376 359.604H265.101C262.717 359.604 260.929 357.7 261.048 355.319Z" fill="#FC8019"/>
<path d="M257.71 355.319L260.094 314.49C260.213 312.109 262.24 310.205 264.624 310.205H333.521C335.905 310.205 337.693 312.109 337.574 314.49L335.309 355.319C335.071 357.7 333.045 359.604 330.661 359.604H261.763C259.379 359.604 257.591 357.7 257.71 355.319V355.319Z" fill="white"/>
<path opacity="0.3" d="M257.71 355.319L260.094 314.49C260.213 312.109 262.24 310.205 264.624 310.205H333.521C335.905 310.205 337.693 312.109 337.574 314.49L335.309 355.319C335.071 357.7 333.045 359.604 330.661 359.604H261.763C259.379 359.604 257.591 357.7 257.71 355.319V355.319Z" fill="#FC8019"/>
<path d="M285.961 368.413V367.818C285.961 365.437 287.987 363.532 290.371 363.532H315.284C317.668 363.532 319.575 365.437 319.575 367.818V368.413C319.575 370.794 317.668 372.698 315.284 372.698H290.371C287.987 372.698 285.961 370.794 285.961 368.413Z" fill="#FC8019"/>
<g opacity="0.6">
<path opacity="0.6" d="M285.961 368.413V367.818C285.961 365.437 287.987 363.532 290.371 363.532H315.284C317.668 363.532 319.575 365.437 319.575 367.818V368.413C319.575 370.794 317.668 372.698 315.284 372.698H290.371C287.987 372.698 285.961 370.794 285.961 368.413Z" fill="white"/>
</g>
<path d="M275.709 368.413V367.818C275.709 365.437 277.736 363.532 280.12 363.532H307.655C310.039 363.532 311.946 365.437 311.946 367.818V368.413C311.946 370.794 310.039 372.698 307.655 372.698H280.12C277.736 372.698 275.709 370.794 275.709 368.413V368.413Z" fill="white"/>
<path opacity="0.3" d="M275.709 368.413V367.818C275.709 365.437 277.736 363.532 280.12 363.532H307.655C310.039 363.532 311.946 365.437 311.946 367.818V368.413C311.946 370.794 310.039 372.698 307.655 372.698H280.12C277.736 372.698 275.709 370.794 275.709 368.413V368.413Z" fill="#FC8019"/>
<path opacity="0.9" d="M331.614 357.462H261.048C259.975 357.462 259.26 356.628 259.26 355.676L261.644 314.252C261.763 313.181 262.597 312.347 263.67 312.347H334.237C335.309 312.347 336.144 313.181 336.025 314.252L333.641 355.676C333.641 356.628 332.687 357.462 331.614 357.462Z" fill="white"/>
<path opacity="0.1" d="M281.431 357.462H267.366L280.239 312.347H294.305L281.431 357.462Z" fill="#FC8019"/>
<path opacity="0.1" d="M292.874 357.462H283.1L295.974 312.347H305.748L292.874 357.462Z" fill="#FC8019"/>
<path opacity="0.1" d="M314.331 357.462H304.437L317.311 312.347H327.085L314.331 357.462Z" fill="#FC8019"/>
<path d="M375.122 355.319L377.506 314.49C377.626 312.109 379.652 310.205 382.036 310.205H448.311C450.695 310.205 452.483 312.109 452.364 314.49L449.98 355.319C449.861 357.7 447.834 359.604 445.45 359.604H379.294C376.791 359.604 375.003 357.7 375.122 355.319Z" fill="#FC8019"/>
<path d="M371.785 355.319L374.169 314.49C374.288 312.109 376.315 310.205 378.699 310.205H447.596C449.98 310.205 451.768 312.109 451.649 314.49L449.384 355.319C449.265 357.7 447.119 359.604 444.735 359.604H375.838C373.454 359.604 371.666 357.7 371.785 355.319V355.319Z" fill="white"/>
<path opacity="0.3" d="M371.785 355.319L374.169 314.49C374.288 312.109 376.315 310.205 378.699 310.205H447.596C449.98 310.205 451.768 312.109 451.649 314.49L449.384 355.319C449.265 357.7 447.119 359.604 444.735 359.604H375.838C373.454 359.604 371.666 357.7 371.785 355.319V355.319Z" fill="#FC8019"/>
<path d="M400.035 368.413V367.818C400.035 365.437 402.062 363.532 404.446 363.532H429.358C431.742 363.532 433.65 365.437 433.65 367.818V368.413C433.65 370.794 431.742 372.698 429.358 372.698H404.446C402.062 372.698 400.035 370.794 400.035 368.413Z" fill="#FC8019"/>
<g opacity="0.6">
<path opacity="0.6" d="M400.035 368.413V367.818C400.035 365.437 402.062 363.532 404.446 363.532H429.358C431.742 363.532 433.65 365.437 433.65 367.818V368.413C433.65 370.794 431.742 372.698 429.358 372.698H404.446C402.062 372.698 400.035 370.794 400.035 368.413Z" fill="white"/>
</g>
<path d="M389.903 368.413V367.818C389.903 365.437 391.811 363.532 394.195 363.532H421.73C424.114 363.532 426.021 365.437 426.021 367.818V368.413C426.021 370.794 424.114 372.698 421.73 372.698H394.195C391.811 372.698 389.903 370.794 389.903 368.413Z" fill="white"/>
<path opacity="0.3" d="M389.903 368.413V367.818C389.903 365.437 391.811 363.532 394.195 363.532H421.73C424.114 363.532 426.021 365.437 426.021 367.818V368.413C426.021 370.794 424.114 372.698 421.73 372.698H394.195C391.811 372.698 389.903 370.794 389.903 368.413Z" fill="#FC8019"/>
<path opacity="0.9" d="M445.689 357.462H375.122C374.05 357.462 373.334 356.628 373.334 355.676L375.718 314.252C375.838 313.181 376.672 312.347 377.745 312.347H448.311C449.384 312.347 450.218 313.181 450.099 314.252L447.715 355.676C447.715 356.628 446.762 357.462 445.689 357.462Z" fill="white"/>
<path opacity="0.1" d="M395.506 357.462H381.44L394.314 312.347H408.379L395.506 357.462Z" fill="#FC8019"/>
<path opacity="0.1" d="M406.949 357.462H397.174L410.048 312.347H419.822L406.949 357.462Z" fill="#FC8019"/>
<path opacity="0.1" d="M428.405 357.462H418.63L431.385 312.347H441.278L428.405 357.462Z" fill="#FC8019"/>
<path d="M183.21 302.111C183.131 302.111 183.051 302.111 182.972 302.111C182.892 302.031 182.813 301.952 182.733 301.872C182.733 301.872 182.694 301.833 182.614 301.753C182.614 301.674 182.614 301.595 182.614 301.515C182.614 301.357 182.654 301.198 182.733 301.039C182.972 300.92 183.21 300.92 183.449 300.92C183.528 301 183.568 301.039 183.568 301.039C183.647 301.119 183.687 301.198 183.687 301.277C183.767 301.357 183.806 301.436 183.806 301.515C183.806 301.595 183.767 301.674 183.687 301.753C183.687 301.833 183.647 301.872 183.568 301.872C183.568 301.952 183.528 302.031 183.449 302.111C183.369 302.111 183.29 302.111 183.21 302.111V302.111Z" fill="#FC8019"/>
<path d="M182.614 297.111C182.614 296.873 182.853 296.516 183.21 296.516C183.568 296.516 183.806 296.873 183.806 297.111C183.806 297.468 183.568 297.706 183.21 297.706C182.853 297.706 182.614 297.468 182.614 297.111Z" fill="#FC8019"/>
<path d="M183.21 293.421C183.051 293.421 182.892 293.342 182.733 293.183C182.733 293.183 182.694 293.143 182.614 293.064C182.614 292.984 182.614 292.905 182.614 292.826C182.614 292.667 182.654 292.508 182.733 292.35C182.972 292.231 183.21 292.112 183.449 292.231C183.528 292.231 183.568 292.27 183.568 292.35C183.647 292.429 183.687 292.508 183.687 292.588C183.767 292.667 183.806 292.746 183.806 292.826C183.806 292.905 183.767 292.984 183.687 293.064C183.687 293.143 183.647 293.183 183.568 293.183C183.568 293.262 183.528 293.302 183.449 293.302C183.369 293.381 183.29 293.421 183.21 293.421V293.421Z" fill="#FC8019"/>
<path d="M292.636 292.826C292.636 292.469 292.874 292.231 293.232 292.231C293.59 292.231 293.828 292.469 293.828 292.826C293.828 293.064 293.59 293.421 293.232 293.421C292.874 293.421 292.636 293.064 292.636 292.826ZM287.868 292.826C287.868 292.469 288.106 292.231 288.464 292.231C288.702 292.231 289.06 292.469 289.06 292.826C289.06 293.064 288.702 293.421 288.464 293.421C288.106 293.421 287.868 293.064 287.868 292.826ZM283.1 292.826C283.1 292.469 283.338 292.231 283.696 292.231C283.934 292.231 284.292 292.469 284.292 292.826C284.292 293.064 283.934 293.421 283.696 293.421C283.338 293.421 283.1 293.064 283.1 292.826ZM278.332 292.826C278.332 292.469 278.57 292.231 278.928 292.231C279.166 292.231 279.405 292.469 279.405 292.826C279.405 293.064 279.166 293.421 278.928 293.421C278.57 293.421 278.332 293.064 278.332 292.826ZM273.445 292.826C273.445 292.469 273.802 292.231 274.041 292.231C274.398 292.231 274.637 292.469 274.637 292.826C274.637 293.064 274.398 293.421 274.041 293.421C273.802 293.421 273.445 293.064 273.445 292.826ZM268.677 292.826C268.677 292.469 268.915 292.231 269.273 292.231C269.63 292.231 269.869 292.469 269.869 292.826C269.869 293.064 269.63 293.421 269.273 293.421C268.915 293.421 268.677 293.064 268.677 292.826ZM263.909 292.826C263.909 292.469 264.147 292.231 264.505 292.231C264.862 292.231 265.101 292.469 265.101 292.826C265.101 293.064 264.862 293.421 264.505 293.421C264.147 293.421 263.909 293.064 263.909 292.826ZM259.141 292.826C259.141 292.469 259.379 292.231 259.737 292.231C260.094 292.231 260.333 292.469 260.333 292.826C260.333 293.064 260.094 293.421 259.737 293.421C259.379 293.421 259.141 293.064 259.141 292.826ZM254.373 292.826C254.373 292.469 254.611 292.231 254.969 292.231C255.207 292.231 255.565 292.469 255.565 292.826C255.565 293.064 255.207 293.421 254.969 293.421C254.611 293.421 254.373 293.064 254.373 292.826ZM249.605 292.826C249.605 292.469 249.843 292.231 250.201 292.231C250.439 292.231 250.797 292.469 250.797 292.826C250.797 293.064 250.439 293.421 250.201 293.421C249.843 293.421 249.605 293.064 249.605 292.826ZM244.718 292.826C244.718 292.469 245.075 292.231 245.314 292.231C245.671 292.231 245.91 292.469 245.91 292.826C245.91 293.064 245.671 293.421 245.314 293.421C245.075 293.421 244.718 293.064 244.718 292.826ZM239.95 292.826C239.95 292.469 240.307 292.231 240.546 292.231C240.903 292.231 241.142 292.469 241.142 292.826C241.142 293.064 240.903 293.421 240.546 293.421C240.307 293.421 239.95 293.064 239.95 292.826ZM235.182 292.826C235.182 292.469 235.42 292.231 235.778 292.231C236.135 292.231 236.374 292.469 236.374 292.826C236.374 293.064 236.135 293.421 235.778 293.421C235.42 293.421 235.182 293.064 235.182 292.826ZM230.414 292.826C230.414 292.469 230.652 292.231 231.01 292.231C231.367 292.231 231.606 292.469 231.606 292.826C231.606 293.064 231.367 293.421 231.01 293.421C230.652 293.421 230.414 293.064 230.414 292.826ZM225.646 292.826C225.646 292.469 225.884 292.231 226.242 292.231C226.599 292.231 226.838 292.469 226.838 292.826C226.838 293.064 226.599 293.421 226.242 293.421C225.884 293.421 225.646 293.064 225.646 292.826ZM220.878 292.826C220.878 292.469 221.116 292.231 221.474 292.231C221.831 292.231 222.07 292.469 222.07 292.826C222.07 293.064 221.831 293.421 221.474 293.421C221.116 293.421 220.878 293.064 220.878 292.826ZM216.11 292.826C216.11 292.469 216.348 292.231 216.706 292.231C216.944 292.231 217.302 292.469 217.302 292.826C217.302 293.064 216.944 293.421 216.706 293.421C216.348 293.421 216.11 293.064 216.11 292.826ZM211.342 292.826C211.342 292.469 211.58 292.231 211.938 292.231C212.176 292.231 212.534 292.469 212.534 292.826C212.534 293.064 212.176 293.421 211.938 293.421C211.58 293.421 211.342 293.064 211.342 292.826ZM206.454 292.826C206.454 292.469 206.812 292.231 207.05 292.231C207.408 292.231 207.646 292.469 207.646 292.826C207.646 293.064 207.408 293.421 207.05 293.421C206.812 293.421 206.454 293.064 206.454 292.826ZM201.686 292.826C201.686 292.469 202.044 292.231 202.282 292.231C202.64 292.231 202.878 292.469 202.878 292.826C202.878 293.064 202.64 293.421 202.282 293.421C202.044 293.421 201.686 293.064 201.686 292.826ZM196.918 292.826C196.918 292.469 197.157 292.231 197.514 292.231C197.872 292.231 198.11 292.469 198.11 292.826C198.11 293.064 197.872 293.421 197.514 293.421C197.157 293.421 196.918 293.064 196.918 292.826ZM192.15 292.826C192.15 292.469 192.389 292.231 192.746 292.231C193.104 292.231 193.342 292.469 193.342 292.826C193.342 293.064 193.104 293.421 192.746 293.421C192.389 293.421 192.15 293.064 192.15 292.826ZM187.382 292.826C187.382 292.469 187.621 292.231 187.978 292.231C188.336 292.231 188.574 292.469 188.574 292.826C188.574 293.064 188.336 293.421 187.978 293.421C187.621 293.421 187.382 293.064 187.382 292.826Z" fill="#FC8019"/>
<path d="M298 293.421C297.92 293.421 297.841 293.381 297.761 293.302C297.682 293.302 297.602 293.262 297.523 293.183C297.523 293.183 297.483 293.143 297.404 293.064C297.404 292.984 297.404 292.905 297.404 292.826C297.404 292.746 297.404 292.667 297.404 292.588C297.483 292.508 297.523 292.429 297.523 292.35C297.602 292.27 297.682 292.231 297.761 292.231C297.92 292.151 298.079 292.151 298.238 292.231C298.318 292.231 298.357 292.27 298.357 292.35C298.516 292.508 298.596 292.667 298.596 292.826C298.596 292.905 298.596 292.984 298.596 293.064C298.516 293.143 298.437 293.183 298.357 293.183C298.357 293.262 298.318 293.302 298.238 293.302C298.159 293.381 298.079 293.421 298 293.421V293.421Z" fill="#FC8019"/>
<path d="M298 293.421C297.92 293.421 297.841 293.381 297.761 293.302C297.682 293.302 297.602 293.262 297.523 293.183C297.523 293.183 297.483 293.143 297.404 293.064C297.404 292.984 297.404 292.905 297.404 292.826C297.404 292.746 297.404 292.667 297.404 292.588C297.483 292.508 297.523 292.429 297.523 292.35C297.602 292.27 297.682 292.231 297.761 292.231C297.92 292.151 298.079 292.151 298.238 292.231C298.318 292.231 298.357 292.27 298.357 292.35C298.516 292.508 298.596 292.667 298.596 292.826C298.596 292.905 298.596 292.984 298.596 293.064C298.516 293.143 298.437 293.183 298.357 293.183C298.357 293.262 298.318 293.302 298.238 293.302C298.159 293.381 298.079 293.421 298 293.421V293.421Z" fill="#FC8019"/>
<path d="M297.404 288.66C297.404 288.302 297.642 288.064 298 288.064C298.357 288.064 298.596 288.302 298.596 288.66C298.596 289.017 298.357 289.255 298 289.255C297.642 289.255 297.404 289.017 297.404 288.66ZM297.404 284.493C297.404 284.136 297.642 283.898 298 283.898C298.357 283.898 298.596 284.136 298.596 284.493C298.596 284.85 298.357 285.088 298 285.088C297.642 285.088 297.404 284.85 297.404 284.493ZM297.404 280.446C297.404 280.089 297.642 279.851 298 279.851C298.357 279.851 298.596 280.089 298.596 280.446C298.596 280.684 298.357 281.041 298 281.041C297.642 281.041 297.404 280.684 297.404 280.446Z" fill="#FC8019"/>
<path d="M298 276.875C297.841 276.875 297.682 276.796 297.523 276.637C297.523 276.637 297.483 276.597 297.404 276.518C297.404 276.439 297.404 276.359 297.404 276.28C297.404 276.201 297.404 276.121 297.404 276.042C297.483 275.962 297.523 275.883 297.523 275.804C297.602 275.804 297.682 275.764 297.761 275.685C297.92 275.605 298.079 275.605 298.238 275.685C298.318 275.764 298.357 275.804 298.357 275.804C298.437 275.883 298.516 275.962 298.596 276.042C298.596 276.121 298.596 276.201 298.596 276.28C298.596 276.359 298.596 276.439 298.596 276.518C298.516 276.597 298.437 276.637 298.357 276.637C298.278 276.796 298.159 276.875 298 276.875V276.875Z" fill="#FC8019"/>
<path d="M298 293.421C297.92 293.421 297.841 293.381 297.761 293.302C297.682 293.302 297.602 293.262 297.523 293.183C297.523 293.183 297.483 293.143 297.404 293.064C297.404 292.984 297.404 292.905 297.404 292.826C297.404 292.746 297.404 292.667 297.404 292.588C297.483 292.508 297.523 292.429 297.523 292.35C297.602 292.27 297.682 292.231 297.761 292.231C297.92 292.151 298.079 292.151 298.238 292.231C298.318 292.231 298.357 292.27 298.357 292.35C298.516 292.508 298.596 292.667 298.596 292.826C298.596 292.905 298.596 292.984 298.596 293.064C298.516 293.143 298.437 293.183 298.357 293.183C298.357 293.262 298.318 293.302 298.238 293.302C298.159 293.381 298.079 293.421 298 293.421V293.421Z" fill="#FC8019"/>
<path d="M297.404 297.111C297.404 296.873 297.642 296.516 298 296.516C298.357 296.516 298.596 296.873 298.596 297.111C298.596 297.468 298.357 297.706 298 297.706C297.642 297.706 297.404 297.468 297.404 297.111Z" fill="#FC8019"/>
<path d="M298 302.11C297.841 302.11 297.682 302.031 297.523 301.872C297.523 301.872 297.483 301.833 297.404 301.753C297.404 301.674 297.404 301.595 297.404 301.515C297.404 301.436 297.404 301.357 297.404 301.277C297.483 301.198 297.523 301.118 297.523 301.039C297.761 300.92 298.238 300.801 298.357 301.039C298.437 301.118 298.516 301.198 298.596 301.277C298.596 301.357 298.596 301.436 298.596 301.515C298.596 301.595 298.596 301.674 298.596 301.753C298.516 301.833 298.437 301.872 298.357 301.872C298.278 302.031 298.159 302.11 298 302.11V302.11Z" fill="#FC8019"/>
<path d="M412.789 302.11C412.63 302.11 412.511 302.031 412.432 301.872C412.273 301.793 412.193 301.674 412.193 301.515C412.193 301.357 412.273 301.198 412.432 301.039C412.551 300.92 413.028 300.801 413.266 301.039C413.266 301.118 413.306 301.198 413.385 301.277C413.385 301.357 413.385 301.436 413.385 301.515C413.385 301.674 413.346 301.793 413.266 301.872C413.107 302.031 412.948 302.11 412.789 302.11V302.11Z" fill="#FC8019"/>
<path d="M412.193 297.111C412.193 296.873 412.432 296.516 412.789 296.516C413.147 296.516 413.385 296.873 413.385 297.111C413.385 297.468 413.147 297.706 412.789 297.706C412.432 297.706 412.193 297.468 412.193 297.111Z" fill="#FC8019"/>
<path d="M412.789 293.421C412.63 293.421 412.511 293.342 412.432 293.183C412.273 293.104 412.193 292.985 412.193 292.826C412.193 292.667 412.273 292.508 412.432 292.35C412.551 292.112 413.028 292.112 413.266 292.35C413.346 292.508 413.385 292.667 413.385 292.826C413.385 292.985 413.346 293.104 413.266 293.183C413.107 293.342 412.948 293.421 412.789 293.421Z" fill="#FC8019"/>
<path d="M407.425 292.826C407.425 292.469 407.664 292.231 408.021 292.231C408.379 292.231 408.617 292.469 408.617 292.826C408.617 293.064 408.379 293.421 408.021 293.421C407.664 293.421 407.425 293.064 407.425 292.826ZM402.657 292.826C402.657 292.469 402.896 292.231 403.253 292.231C403.611 292.231 403.849 292.469 403.849 292.826C403.849 293.064 403.611 293.421 403.253 293.421C402.896 293.421 402.657 293.064 402.657 292.826ZM397.889 292.826C397.889 292.469 398.128 292.231 398.485 292.231C398.843 292.231 399.081 292.469 399.081 292.826C399.081 293.064 398.843 293.421 398.485 293.421C398.128 293.421 397.889 293.064 397.889 292.826ZM393.121 292.826C393.121 292.469 393.36 292.231 393.717 292.231C393.956 292.231 394.313 292.469 394.313 292.826C394.313 293.064 393.956 293.421 393.717 293.421C393.36 293.421 393.121 293.064 393.121 292.826ZM388.234 292.826C388.234 292.469 388.592 292.231 388.83 292.231C389.188 292.231 389.545 292.469 389.545 292.826C389.545 293.064 389.188 293.421 388.83 293.421C388.592 293.421 388.234 293.064 388.234 292.826ZM383.466 292.826C383.466 292.469 383.824 292.231 384.062 292.231C384.42 292.231 384.658 292.469 384.658 292.826C384.658 293.064 384.42 293.421 384.062 293.421C383.824 293.421 383.466 293.064 383.466 292.826ZM378.698 292.826C378.698 292.469 379.056 292.231 379.294 292.231C379.652 292.231 379.89 292.469 379.89 292.826C379.89 293.064 379.652 293.421 379.294 293.421C379.056 293.421 378.698 293.064 378.698 292.826ZM373.93 292.826C373.93 292.469 374.169 292.231 374.526 292.231C374.884 292.231 375.122 292.469 375.122 292.826C375.122 293.064 374.884 293.421 374.526 293.421C374.169 293.421 373.93 293.064 373.93 292.826ZM369.162 292.826C369.162 292.469 369.401 292.231 369.758 292.231C370.116 292.231 370.354 292.469 370.354 292.826C370.354 293.064 370.116 293.421 369.758 293.421C369.401 293.421 369.162 293.064 369.162 292.826ZM364.394 292.826C364.394 292.469 364.633 292.231 364.99 292.231C365.348 292.231 365.586 292.469 365.586 292.826C365.586 293.064 365.348 293.421 364.99 293.421C364.633 293.421 364.394 293.064 364.394 292.826ZM359.626 292.826C359.626 292.469 359.865 292.231 360.222 292.231C360.58 292.231 360.818 292.469 360.818 292.826C360.818 293.064 360.58 293.421 360.222 293.421C359.865 293.421 359.626 293.064 359.626 292.826ZM354.858 292.826C354.858 292.469 355.097 292.231 355.454 292.231C355.693 292.231 356.05 292.469 356.05 292.826C356.05 293.064 355.693 293.421 355.454 293.421C355.097 293.421 354.858 293.064 354.858 292.826ZM349.971 292.826C349.971 292.469 350.329 292.231 350.567 292.231C350.925 292.231 351.163 292.469 351.163 292.826C351.163 293.064 350.925 293.421 350.567 293.421C350.329 293.421 349.971 293.064 349.971 292.826ZM345.203 292.826C345.203 292.469 345.561 292.231 345.799 292.231C346.157 292.231 346.395 292.469 346.395 292.826C346.395 293.064 346.157 293.421 345.799 293.421C345.561 293.421 345.203 293.064 345.203 292.826ZM340.435 292.826C340.435 292.469 340.673 292.231 341.031 292.231C341.389 292.231 341.627 292.469 341.627 292.826C341.627 293.064 341.389 293.421 341.031 293.421C340.673 293.421 340.435 293.064 340.435 292.826ZM335.667 292.826C335.667 292.469 335.905 292.231 336.263 292.231C336.621 292.231 336.859 292.469 336.859 292.826C336.859 293.064 336.621 293.421 336.263 293.421C335.905 293.421 335.667 293.064 335.667 292.826ZM330.899 292.826C330.899 292.469 331.137 292.231 331.495 292.231C331.853 292.231 332.091 292.469 332.091 292.826C332.091 293.064 331.853 293.421 331.495 293.421C331.137 293.421 330.899 293.064 330.899 292.826ZM326.131 292.826C326.131 292.469 326.369 292.231 326.727 292.231C327.085 292.231 327.323 292.469 327.323 292.826C327.323 293.064 327.085 293.421 326.727 293.421C326.369 293.421 326.131 293.064 326.131 292.826ZM321.363 292.826C321.363 292.469 321.601 292.231 321.959 292.231C322.197 292.231 322.555 292.469 322.555 292.826C322.555 293.064 322.197 293.421 321.959 293.421C321.601 293.421 321.363 293.064 321.363 292.826ZM316.476 292.826C316.476 292.469 316.833 292.231 317.072 292.231C317.429 292.231 317.787 292.469 317.787 292.826C317.787 293.064 317.429 293.421 317.072 293.421C316.833 293.421 316.476 293.064 316.476 292.826ZM311.708 292.826C311.708 292.469 312.065 292.231 312.304 292.231C312.661 292.231 312.9 292.469 312.9 292.826C312.9 293.064 312.661 293.421 312.304 293.421C312.065 293.421 311.708 293.064 311.708 292.826ZM306.94 292.826C306.94 292.469 307.178 292.231 307.536 292.231C307.893 292.231 308.132 292.469 308.132 292.826C308.132 293.064 307.893 293.421 307.536 293.421C307.178 293.421 306.94 293.064 306.94 292.826ZM302.172 292.826C302.172 292.469 302.41 292.231 302.768 292.231C303.125 292.231 303.364 292.469 303.364 292.826C303.364 293.064 303.125 293.421 302.768 293.421C302.41 293.421 302.172 293.064 302.172 292.826Z" fill="#FC8019"/>
<path d="M298 293.421C297.92 293.421 297.841 293.381 297.761 293.302C297.682 293.302 297.602 293.262 297.523 293.183C297.523 293.183 297.483 293.143 297.404 293.064C297.404 292.984 297.404 292.905 297.404 292.826C297.404 292.746 297.404 292.667 297.404 292.588C297.483 292.508 297.523 292.429 297.523 292.35C297.602 292.27 297.682 292.231 297.761 292.231C297.92 292.151 298.079 292.151 298.238 292.231C298.318 292.231 298.357 292.27 298.357 292.35C298.516 292.508 298.596 292.667 298.596 292.826C298.596 292.905 298.596 292.984 298.596 293.064C298.516 293.143 298.437 293.183 298.357 293.183C298.357 293.262 298.318 293.302 298.238 293.302C298.159 293.381 298.079 293.421 298 293.421V293.421Z" fill="#FC8019"/>
<path d="M513.752 216.405C513.752 245.45 490.15 269.019 461.065 269.019H224.692C183.687 269.019 150.43 235.808 150.43 194.86C150.43 155.46 181.065 123.32 219.805 120.82C223.857 102.846 233.393 87.0145 246.744 75.2301V53.3276H304.079C336.144 53.3276 364.037 70.7067 378.937 96.5373H408.379C447.715 96.5373 479.541 128.201 479.899 167.244C499.686 174.862 513.752 193.908 513.752 216.405V216.405Z" fill="#FC8019"/>
<path opacity="0.7" d="M513.752 216.405C513.752 245.45 490.15 269.019 461.065 269.019H224.692C183.687 269.019 150.43 235.808 150.43 194.86C150.43 155.46 181.065 123.32 219.805 120.82C223.857 102.846 233.393 87.0145 246.744 75.2301V53.3276H304.079C336.144 53.3276 364.037 70.7067 378.937 96.5373H408.379C447.715 96.5373 479.541 128.201 479.899 167.244C499.686 174.862 513.752 193.908 513.752 216.405V216.405Z" fill="white"/>
<path d="M456.298 216.405C456.298 245.45 432.815 269.019 403.73 269.019H167.238C126.233 269.019 92.9761 235.808 92.9761 194.86C92.9761 155.46 123.61 123.32 162.47 120.82C171.052 82.1341 205.501 53.3276 246.744 53.3276C280.835 53.3276 310.278 73.0874 324.224 101.775C332.568 98.4419 341.508 96.5373 351.044 96.5373C390.261 96.5373 422.087 128.201 422.445 167.244C442.232 174.862 456.298 193.908 456.298 216.405V216.405Z" fill="#FC8019"/>
<path opacity="0.1" d="M513.752 216.405C513.752 245.45 490.15 269.019 461.065 269.019H224.692C183.687 269.019 150.43 235.808 150.43 194.86C150.43 155.46 181.065 123.32 219.805 120.82C228.387 82.1341 262.836 53.3276 304.079 53.3276C338.17 53.3276 367.613 73.0874 381.678 101.775C389.903 98.4418 398.962 96.5373 408.379 96.5373C447.715 96.5373 479.541 128.201 479.899 167.244C499.686 174.862 513.752 193.908 513.752 216.405V216.405Z" fill="white"/>
<path fill-rule="evenodd" clip-rule="evenodd" d="M403.731 270.09H167.238C125.637 270.09 91.7842 236.403 91.7842 194.86C91.7842 155.459 122.419 122.606 161.516 119.749C165.927 100.941 176.535 83.9195 191.555 71.6589C207.051 59.0412 226.719 52.1372 246.744 52.1372C280.001 52.1372 309.92 70.5876 324.82 100.227C333.164 97.0133 341.985 95.3469 351.044 95.3469C390.38 95.3469 422.803 127.248 423.518 166.411C443.901 174.505 457.49 194.503 457.49 216.405C457.49 246.045 433.292 270.09 403.731 270.09ZM246.744 54.5179C207.051 54.5179 172.125 82.4911 163.543 121.058C163.423 121.535 163.066 121.892 162.47 121.892C124.207 124.391 94.1682 156.412 94.1682 194.86C94.1682 235.094 126.948 267.828 167.238 267.828H403.731C432.1 267.828 455.225 244.736 455.225 216.405C455.225 195.217 441.875 175.933 421.968 168.315C421.611 168.196 421.253 167.72 421.253 167.244C420.895 128.915 389.427 97.7276 351.044 97.7276C341.985 97.7276 333.045 99.3941 324.701 102.846C324.105 102.965 323.509 102.727 323.271 102.251C308.847 72.7302 279.524 54.5179 246.744 54.5179V54.5179Z" fill="#FC8019"/>
<path opacity="0.7" fill-rule="evenodd" clip-rule="evenodd" d="M403.731 270.09H167.238C125.637 270.09 91.7842 236.403 91.7842 194.86C91.7842 155.459 122.419 122.606 161.516 119.749C165.927 100.941 176.535 83.9195 191.555 71.6589C207.051 59.0412 226.719 52.1372 246.744 52.1372C280.001 52.1372 309.92 70.5876 324.82 100.227C333.164 97.0133 341.985 95.3469 351.044 95.3469C390.38 95.3469 422.803 127.248 423.518 166.411C443.901 174.505 457.49 194.503 457.49 216.405C457.49 246.045 433.292 270.09 403.731 270.09ZM246.744 54.5179C207.051 54.5179 172.125 82.4911 163.543 121.058C163.423 121.535 163.066 121.892 162.47 121.892C124.207 124.391 94.1682 156.412 94.1682 194.86C94.1682 235.094 126.948 267.828 167.238 267.828H403.731C432.1 267.828 455.225 244.736 455.225 216.405C455.225 195.217 441.875 175.933 421.968 168.315C421.611 168.196 421.253 167.72 421.253 167.244C420.895 128.915 389.427 97.7276 351.044 97.7276C341.985 97.7276 333.045 99.3941 324.701 102.846C324.105 102.965 323.509 102.727 323.271 102.251C308.847 72.7302 279.524 54.5179 246.744 54.5179V54.5179Z" fill="white"/>
<path d="M216.586 163.792H235.539C238.519 163.792 240.784 166.173 240.784 169.03V262.591C240.784 265.448 238.519 267.828 235.539 267.828H216.586V163.792Z" fill="#E0E0E0"/>
<path d="M223.739 169.03V262.591C223.739 265.448 221.355 267.828 218.494 267.828H177.608C174.628 267.828 172.244 265.448 172.244 262.591V169.03C172.244 166.173 174.628 163.792 177.608 163.792H218.494C221.355 163.792 223.739 166.173 223.739 169.03V169.03Z" fill="white"/>
<path d="M223.739 247.235H172.244V246.283H223.739V247.235Z" fill="#E0E0E0"/>
<path d="M223.739 226.642H172.244V225.69H223.739V226.642Z" fill="#E0E0E0"/>
<path d="M223.739 205.93H172.244V204.978H223.739V205.93Z" fill="#E0E0E0"/>
<path d="M223.739 185.337H172.244V184.385H223.739V185.337Z" fill="#E0E0E0"/>
<path opacity="0.6" d="M199.898 179.624C199.898 180.814 199.064 181.647 197.991 181.647H180.707C179.634 181.647 178.8 180.814 178.8 179.624C178.8 178.552 179.634 177.719 180.707 177.719H197.991C199.064 177.719 199.898 178.552 199.898 179.624Z" fill="#FC8019"/>
<path opacity="0.6" d="M199.898 174.624C199.898 175.695 199.064 176.529 197.991 176.529H180.707C179.634 176.529 178.8 175.695 178.8 174.624C178.8 173.553 179.634 172.601 180.707 172.601H197.991C199.064 172.601 199.898 173.553 199.898 174.624Z" fill="#FC8019"/>
<path opacity="0.6" d="M199.898 169.506C199.898 170.577 199.064 171.41 197.991 171.41H180.707C179.634 171.41 178.8 170.577 178.8 169.506C178.8 168.434 179.634 167.482 180.707 167.482H197.991C199.064 167.482 199.898 168.434 199.898 169.506Z" fill="#FC8019"/>
<path d="M201.687 177.719H208.958V181.647H201.687V177.719Z" fill="#EBEBEB"/>
<path d="M201.687 172.601H208.958V176.529H201.687V172.601Z" fill="#FC8019"/>
<path d="M201.687 167.482H208.958V171.41H201.687V167.482Z" fill="#EBEBEB"/>
<path d="M210.03 177.719H217.301V181.647H210.03V177.719Z" fill="#EBEBEB"/>
<path d="M210.03 172.601H217.301V176.529H210.03V172.601Z" fill="#EBEBEB"/>
<path d="M210.03 167.482H217.301V171.41H210.03V167.482Z" fill="#FC8019"/>
<path d="M199.898 200.336C199.898 201.407 199.064 202.24 197.991 202.24H180.707C179.634 202.24 178.8 201.407 178.8 200.336C178.8 199.264 179.634 198.312 180.707 198.312H197.991C199.064 198.312 199.898 199.264 199.898 200.336Z" fill="#EBEBEB"/>
<path opacity="0.6" d="M199.898 195.217C199.898 196.289 199.064 197.122 197.991 197.122H180.707C179.634 197.122 178.8 196.289 178.8 195.217C178.8 194.146 179.634 193.194 180.707 193.194H197.991C199.064 193.194 199.898 194.146 199.898 195.217Z" fill="#FC8019"/>
<path opacity="0.6" d="M199.898 190.099C199.898 191.17 199.064 192.003 197.991 192.003H180.707C179.634 192.003 178.8 191.17 178.8 190.099C178.8 189.027 179.634 188.075 180.707 188.075H197.991C199.064 188.075 199.898 189.027 199.898 190.099Z" fill="#FC8019"/>
<path d="M201.687 198.312H208.958V202.24H201.687V198.312Z" fill="#EBEBEB"/>
<path d="M201.687 193.194H208.958V197.122H201.687V193.194Z" fill="#EBEBEB"/>
<path d="M201.687 188.075H208.958V192.003H201.687V188.075Z" fill="#FC8019"/>
<path d="M210.03 198.312H217.301V202.24H210.03V198.312Z" fill="#EBEBEB"/>
<path d="M210.03 193.194H217.301V197.122H210.03V193.194Z" fill="#EBEBEB"/>
<path d="M210.03 188.075H217.301V192.003H210.03V188.075Z" fill="#EBEBEB"/>
<path opacity="0.6" d="M199.898 220.929C199.898 222 199.064 222.833 197.991 222.833H180.707C179.634 222.833 178.8 222 178.8 220.929C178.8 219.857 179.634 218.905 180.707 218.905H197.991C199.064 218.905 199.898 219.857 199.898 220.929Z" fill="#FC8019"/>
<path opacity="0.6" d="M199.898 215.81C199.898 216.882 199.064 217.834 197.991 217.834H180.707C179.634 217.834 178.8 216.882 178.8 215.81C178.8 214.739 179.634 213.906 180.707 213.906H197.991C199.064 213.906 199.898 214.739 199.898 215.81Z" fill="#FC8019"/>
<path opacity="0.6" d="M199.898 210.692C199.898 211.763 199.064 212.715 197.991 212.715H180.707C179.634 212.715 178.8 211.763 178.8 210.692C178.8 209.62 179.634 208.787 180.707 208.787H197.991C199.064 208.787 199.898 209.62 199.898 210.692Z" fill="#FC8019"/>
<path d="M201.687 218.905H208.958V222.833H201.687V218.905Z" fill="#EBEBEB"/>
<path d="M201.687 213.906H208.958V217.834H201.687V213.906Z" fill="#FC8019"/>
<path d="M201.687 208.787H208.958V212.715H201.687V208.787Z" fill="#EBEBEB"/>
<path d="M210.03 218.905H217.301V222.833H210.03V218.905Z" fill="#EBEBEB"/>
<path d="M210.03 213.906H217.301V217.834H210.03V213.906Z" fill="#EBEBEB"/>
<path d="M210.03 208.787H217.301V212.715H210.03V208.787Z" fill="#FC8019"/>
<path opacity="0.6" d="M199.898 241.522C199.898 242.593 199.064 243.545 197.991 243.545H180.707C179.634 243.545 178.8 242.593 178.8 241.522C178.8 240.45 179.634 239.617 180.707 239.617H197.991C199.064 239.617 199.898 240.45 199.898 241.522Z" fill="#FC8019"/>
<path opacity="0.6" d="M199.898 236.403C199.898 237.475 199.064 238.427 197.991 238.427H180.707C179.634 238.427 178.8 237.475 178.8 236.403C178.8 235.332 179.634 234.499 180.707 234.499H197.991C199.064 234.499 199.898 235.332 199.898 236.403Z" fill="#FC8019"/>
<path opacity="0.6" d="M199.898 231.285C199.898 232.356 199.064 233.308 197.991 233.308H180.707C179.634 233.308 178.8 232.356 178.8 231.285C178.8 230.213 179.634 229.38 180.707 229.38H197.991C199.064 229.38 199.898 230.213 199.898 231.285Z" fill="#FC8019"/>
<path d="M201.687 239.617H208.958V243.545H201.687V239.617Z" fill="#EBEBEB"/>
<path d="M201.687 234.499H208.958V238.427H201.687V234.499Z" fill="#FC8019"/>
<path d="M201.687 229.38H208.958V233.308H201.687V229.38Z" fill="#EBEBEB"/>
<path d="M210.03 239.617H217.301V243.545H210.03V239.617Z" fill="#FC8019"/>
<path d="M210.03 234.499H217.301V238.427H210.03V234.499Z" fill="#EBEBEB"/>
<path d="M210.03 229.38H217.301V233.308H210.03V229.38Z" fill="#FC8019"/>
<path opacity="0.6" d="M199.898 262.115C199.898 263.186 199.064 264.138 197.991 264.138H180.707C179.634 264.138 178.8 263.186 178.8 262.115C178.8 261.043 179.634 260.21 180.707 260.21H197.991C199.064 260.21 199.898 261.043 199.898 262.115Z" fill="#FC8019"/>
<path opacity="0.6" d="M199.898 256.996C199.898 258.187 199.064 259.02 197.991 259.02H180.707C179.634 259.02 178.8 258.187 178.8 256.996C178.8 255.925 179.634 255.092 180.707 255.092H197.991C199.064 255.092 199.898 255.925 199.898 256.996Z" fill="#FC8019"/>
<path opacity="0.6" d="M199.898 251.997C199.898 253.068 199.064 253.901 197.991 253.901H180.707C179.634 253.901 178.8 253.068 178.8 251.997C178.8 250.806 179.634 249.973 180.707 249.973H197.991C199.064 249.973 199.898 250.806 199.898 251.997Z" fill="#FC8019"/>
<path d="M201.687 260.21H208.958V264.138H201.687V260.21Z" fill="#FC8019"/>
<path d="M201.687 255.092H208.958V259.02H201.687V255.092Z" fill="#EBEBEB"/>
<path d="M201.687 249.973H208.958V253.901H201.687V249.973Z" fill="#EBEBEB"/>
<path d="M210.03 260.21H217.301V264.138H210.03V260.21Z" fill="#EBEBEB"/>
<path d="M210.03 255.092H217.301V259.02H210.03V255.092Z" fill="#EBEBEB"/>
<path d="M210.03 249.973H217.301V253.901H210.03V249.973Z" fill="#FC8019"/>
<path d="M290.729 114.631H318.622C322.913 114.631 326.489 118.202 326.489 122.487V260.091C326.489 264.376 322.913 267.828 318.622 267.828H290.729V114.631Z" fill="#E0E0E0"/>
<path d="M301.338 122.487V260.091C301.338 264.376 297.762 267.828 293.47 267.828H233.274C228.983 267.828 225.526 264.376 225.526 260.091V122.487C225.526 118.202 228.983 114.631 233.274 114.631H293.47C297.762 114.631 301.338 118.202 301.338 122.487Z" fill="white"/>
<path d="M301.338 237.475H225.526V236.046H301.338V237.475Z" fill="#E0E0E0"/>
<path d="M301.338 207.121H225.526V205.692H301.338V207.121Z" fill="#E0E0E0"/>
<path d="M301.338 176.767H225.526V175.338H301.338V176.767Z" fill="#E0E0E0"/>
<path d="M301.338 146.413H225.526V144.984H301.338V146.413Z" fill="#E0E0E0"/>
<path opacity="0.6" d="M266.174 138.08C266.174 139.628 264.863 140.937 263.313 140.937H237.923C236.374 140.937 235.062 139.628 235.062 138.08C235.062 136.414 236.374 135.224 237.923 135.224H263.313C264.863 135.224 266.174 136.414 266.174 138.08Z" fill="#FC8019"/>
<path opacity="0.6" d="M266.174 130.581C266.174 132.129 264.863 133.438 263.313 133.438H237.923C236.374 133.438 235.062 132.129 235.062 130.581C235.062 128.915 236.374 127.605 237.923 127.605H263.313C264.863 127.605 266.174 128.915 266.174 130.581Z" fill="#FC8019"/>
<path opacity="0.6" d="M266.174 123.082C266.174 124.63 264.863 125.939 263.313 125.939H237.923C236.374 125.939 235.062 124.63 235.062 123.082C235.062 121.416 236.374 120.106 237.923 120.106H263.313C264.863 120.106 266.174 121.416 266.174 123.082Z" fill="#FC8019"/>
<path d="M268.915 135.224H279.405V140.937H268.915V135.224Z" fill="#EBEBEB"/>
<path d="M268.915 127.605H279.405V133.438H268.915V127.605Z" fill="#FC8019"/>
<path d="M268.915 120.106H279.405V125.939H268.915V120.106Z" fill="#EBEBEB"/>
<path d="M281.193 135.224H291.802V140.937H281.193V135.224Z" fill="#EBEBEB"/>
<path d="M281.193 127.605H291.802V133.438H281.193V127.605Z" fill="#EBEBEB"/>
<path d="M281.193 120.106H291.802V125.939H281.193V120.106Z" fill="#FC8019"/>
<path opacity="0.6" d="M266.174 168.434C266.174 169.982 264.863 171.291 263.313 171.291H237.923C236.374 171.291 235.062 169.982 235.062 168.434C235.062 166.768 236.374 165.458 237.923 165.458H263.313C264.863 165.458 266.174 166.768 266.174 168.434Z" fill="#FC8019"/>
<path opacity="0.6" d="M266.174 160.935C266.174 162.483 264.863 163.792 263.313 163.792H237.923C236.374 163.792 235.062 162.483 235.062 160.935C235.062 159.269 236.374 157.959 237.923 157.959H263.313C264.863 157.959 266.174 159.269 266.174 160.935Z" fill="#FC8019"/>
<path opacity="0.6" d="M266.174 153.436C266.174 154.983 264.863 156.293 263.313 156.293H237.923C236.374 156.293 235.062 154.983 235.062 153.436C235.062 151.769 236.374 150.46 237.923 150.46H263.313C264.863 150.46 266.174 151.769 266.174 153.436Z" fill="#FC8019"/>
<path d="M268.915 165.458H279.405V171.291H268.915V165.458Z" fill="#EBEBEB"/>
<path d="M268.915 157.959H279.405V163.792H268.915V157.959Z" fill="#EBEBEB"/>
<path d="M268.915 150.46H279.405V156.293H268.915V150.46Z" fill="#FC8019"/>
<path d="M281.193 165.458H291.802V171.291H281.193V165.458Z" fill="#FC8019"/>
<path d="M281.193 157.959H291.802V163.792H281.193V157.959Z" fill="#EBEBEB"/>
<path d="M281.193 150.46H291.802V156.293H281.193V150.46Z" fill="#FC8019"/>
<path opacity="0.6" d="M266.174 198.788C266.174 200.336 264.863 201.645 263.313 201.645H237.923C236.374 201.645 235.062 200.336 235.062 198.788C235.062 197.122 236.374 195.812 237.923 195.812H263.313C264.863 195.812 266.174 197.122 266.174 198.788Z" fill="#FC8019"/>
<path opacity="0.6" d="M266.174 191.289C266.174 192.836 264.863 194.146 263.313 194.146H237.923C236.374 194.146 235.062 192.836 235.062 191.289C235.062 189.622 236.374 188.313 237.923 188.313H263.313C264.863 188.313 266.174 189.622 266.174 191.289Z" fill="#FC8019"/>
<path opacity="0.6" d="M266.174 183.79C266.174 185.337 264.863 186.647 263.313 186.647H237.923C236.374 186.647 235.062 185.337 235.062 183.79C235.062 182.123 236.374 180.814 237.923 180.814H263.313C264.863 180.814 266.174 182.123 266.174 183.79Z" fill="#FC8019"/>
<path d="M268.915 195.812H279.405V201.645H268.915V195.812Z" fill="#FC8019"/>
<path d="M268.915 188.313H279.405V194.146H268.915V188.313Z" fill="#EBEBEB"/>
<path d="M268.915 180.814H279.405V186.647H268.915V180.814Z" fill="#EBEBEB"/>
<path d="M281.193 195.812H291.802V201.645H281.193V195.812Z" fill="#EBEBEB"/>
<path d="M281.193 188.313H291.802V194.146H281.193V188.313Z" fill="#EBEBEB"/>
<path d="M281.193 180.814H291.802V186.647H281.193V180.814Z" fill="#FC8019"/>
<path opacity="0.6" d="M266.174 229.142C266.174 230.69 264.863 231.999 263.313 231.999H237.923C236.374 231.999 235.062 230.69 235.062 229.142C235.062 227.476 236.374 226.166 237.923 226.166H263.313C264.863 226.166 266.174 227.476 266.174 229.142Z" fill="#FC8019"/>
<path d="M266.174 221.643C266.174 223.19 264.863 224.5 263.313 224.5H237.923C236.374 224.5 235.062 223.19 235.062 221.643C235.062 219.976 236.374 218.667 237.923 218.667H263.313C264.863 218.667 266.174 219.976 266.174 221.643Z" fill="#EBEBEB"/>
<path opacity="0.6" d="M266.174 214.144C266.174 215.691 264.863 217.001 263.313 217.001H237.923C236.374 217.001 235.062 215.691 235.062 214.144C235.062 212.477 236.374 211.168 237.923 211.168H263.313C264.863 211.168 266.174 212.477 266.174 214.144Z" fill="#FC8019"/>
<path d="M268.915 226.166H279.405V231.999H268.915V226.166Z" fill="#EBEBEB"/>
<path d="M268.915 218.667H279.405V224.5H268.915V218.667Z" fill="#FC8019"/>
<path d="M268.915 211.168H279.405V217.001H268.915V211.168Z" fill="#EBEBEB"/>
<path d="M281.193 226.166H291.802V231.999H281.193V226.166Z" fill="#FC8019"/>
<path d="M281.193 218.667H291.802V224.5H281.193V218.667Z" fill="#FC8019"/>
<path d="M281.193 211.168H291.802V217.001H281.193V211.168Z" fill="#EBEBEB"/>
<path opacity="0.6" d="M266.174 259.496C266.174 261.043 264.863 262.353 263.313 262.353H237.923C236.374 262.353 235.062 261.043 235.062 259.496C235.062 257.83 236.374 256.52 237.923 256.52H263.313C264.863 256.52 266.174 257.83 266.174 259.496Z" fill="#FC8019"/>
<path opacity="0.6" d="M266.174 251.997C266.174 253.544 264.863 254.854 263.313 254.854H237.923C236.374 254.854 235.062 253.544 235.062 251.997C235.062 250.33 236.374 249.021 237.923 249.021H263.313C264.863 249.021 266.174 250.33 266.174 251.997Z" fill="#FC8019"/>
<path opacity="0.6" d="M266.174 244.498C266.174 246.045 264.863 247.354 263.313 247.354H237.923C236.374 247.354 235.062 246.045 235.062 244.498C235.062 242.831 236.374 241.522 237.923 241.522H263.313C264.863 241.522 266.174 242.831 266.174 244.498Z" fill="#FC8019"/>
<path d="M268.915 256.52H279.405V262.353H268.915V256.52Z" fill="#EBEBEB"/>
<path d="M268.915 249.021H279.405V254.854H268.915V249.021Z" fill="#EBEBEB"/>
<path d="M268.915 241.522H279.405V247.354H268.915V241.522Z" fill="#EBEBEB"/>
<path d="M281.193 256.52H291.802V262.353H281.193V256.52Z" fill="#EBEBEB"/>
<path d="M281.193 249.021H291.802V254.854H281.193V249.021Z" fill="#EBEBEB"/>
<path d="M281.193 241.522H291.802V247.354H281.193V241.522Z" fill="#FC8019"/>
<path d="M360.223 134.628H384.539C388.235 134.628 391.334 137.604 391.334 141.413V261.043C391.334 264.853 388.235 267.828 384.539 267.828H360.223V134.628Z" fill="#E0E0E0"/>
<path d="M369.401 141.413V261.043C369.401 264.853 366.421 267.828 362.607 267.828H310.278C306.583 267.828 303.603 264.853 303.603 261.043V141.413C303.603 137.604 306.583 134.628 310.278 134.628H362.607C366.421 134.628 369.401 137.604 369.401 141.413V141.413Z" fill="white"/>
<path d="M369.401 241.403H303.603V240.212H369.401V241.403Z" fill="#E0E0E0"/>
<path d="M369.401 215.096H303.603V213.787H369.401V215.096Z" fill="#E0E0E0"/>
<path d="M369.401 188.67H303.603V187.361H369.401V188.67Z" fill="#E0E0E0"/>
<path d="M369.401 162.245H303.603V161.054H369.401V162.245Z" fill="#E0E0E0"/>
<path opacity="0.6" d="M338.886 154.983C338.886 156.293 337.813 157.483 336.382 157.483H314.33C313.019 157.483 311.827 156.293 311.827 154.983C311.827 153.555 313.019 152.484 314.33 152.484H336.382C337.813 152.484 338.886 153.555 338.886 154.983Z" fill="#FC8019"/>
<path opacity="0.6" d="M338.886 148.437C338.886 149.865 337.813 150.936 336.382 150.936H314.33C313.019 150.936 311.827 149.865 311.827 148.437C311.827 147.008 313.019 145.937 314.33 145.937H336.382C337.813 145.937 338.886 147.008 338.886 148.437Z" fill="#FC8019"/>
<path opacity="0.6" d="M338.886 141.89C338.886 143.318 337.813 144.389 336.382 144.389H314.33C313.019 144.389 311.827 143.318 311.827 141.89C311.827 140.461 313.019 139.39 314.33 139.39H336.382C337.813 139.39 338.886 140.461 338.886 141.89Z" fill="#FC8019"/>
<path d="M341.27 244.974H350.448V249.973H341.27V244.974Z" fill="#EBEBEB"/>
<path d="M341.27 251.521H350.448V256.52H341.27V251.521Z" fill="#FC8019"/>
<path d="M341.27 258.068H350.448V263.067H341.27V258.068Z" fill="#EBEBEB"/>
<path d="M351.998 244.974H361.176V249.973H351.998V244.974Z" fill="#EBEBEB"/>
<path d="M351.998 251.521H361.176V256.52H351.998V251.521Z" fill="#EBEBEB"/>
<path d="M351.998 258.068H361.176V263.067H351.998V258.068Z" fill="#FC8019"/>
<path d="M338.886 181.409C338.886 182.718 337.813 183.909 336.382 183.909H314.33C313.019 183.909 311.827 182.718 311.827 181.409C311.827 179.981 313.019 178.79 314.33 178.79H336.382C337.813 178.79 338.886 179.981 338.886 181.409Z" fill="#EBEBEB"/>
<path opacity="0.6" d="M338.886 174.862C338.886 176.172 337.813 177.362 336.382 177.362H314.33C313.019 177.362 311.827 176.172 311.827 174.862C311.827 173.434 313.019 172.363 314.33 172.363H336.382C337.813 172.363 338.886 173.434 338.886 174.862Z" fill="#FC8019"/>
<path opacity="0.6" d="M338.886 168.315C338.886 169.625 337.813 170.815 336.382 170.815H314.33C313.019 170.815 311.827 169.625 311.827 168.315C311.827 166.887 313.019 165.816 314.33 165.816H336.382C337.813 165.816 338.886 166.887 338.886 168.315Z" fill="#FC8019"/>
<path d="M341.27 218.548H350.448V223.547H341.27V218.548Z" fill="#EBEBEB"/>
<path d="M341.27 225.095H350.448V230.094H341.27V225.095Z" fill="#EBEBEB"/>
<path d="M341.27 231.642H350.448V236.641H341.27V231.642Z" fill="#FC8019"/>
<path d="M351.998 218.548H361.176V223.547H351.998V218.548Z" fill="#FC8019"/>
<path d="M351.998 225.095H361.176V230.094H351.998V225.095Z" fill="#EBEBEB"/>
<path d="M351.998 231.642H361.176V236.641H351.998V231.642Z" fill="#FC8019"/>
<path opacity="0.6" d="M338.886 207.716C338.886 209.144 337.813 210.216 336.382 210.216H314.33C313.019 210.216 311.827 209.144 311.827 207.716C311.827 206.406 313.019 205.216 314.33 205.216H336.382C337.813 205.216 338.886 206.406 338.886 207.716Z" fill="#FC8019"/>
<path opacity="0.6" d="M338.886 201.169C338.886 202.597 337.813 203.788 336.382 203.788H314.33C313.019 203.788 311.827 202.597 311.827 201.169C311.827 199.86 313.019 198.669 314.33 198.669H336.382C337.813 198.669 338.886 199.86 338.886 201.169Z" fill="#FC8019"/>
<path opacity="0.6" d="M338.886 194.741C338.886 196.05 337.813 197.241 336.382 197.241H314.33C313.019 197.241 311.827 196.05 311.827 194.741C311.827 193.313 313.019 192.122 314.33 192.122H336.382C337.813 192.122 338.886 193.313 338.886 194.741Z" fill="#FC8019"/>
<path d="M341.27 192.122H350.448V197.241H341.27V192.122Z" fill="#FC8019"/>
<path d="M341.27 198.669H350.448V203.788H341.27V198.669Z" fill="#EBEBEB"/>
<path d="M341.27 205.216H350.448V210.216H341.27V205.216Z" fill="#EBEBEB"/>
<path d="M351.998 192.122H361.176V197.241H351.998V192.122Z" fill="#EBEBEB"/>
<path d="M351.998 198.669H361.176V203.788H351.998V198.669Z" fill="#EBEBEB"/>
<path d="M351.998 205.216H361.176V210.216H351.998V205.216Z" fill="#FC8019"/>
<path opacity="0.6" d="M338.886 234.142C338.886 235.57 337.813 236.641 336.382 236.641H314.33C313.019 236.641 311.827 235.57 311.827 234.142C311.827 232.713 313.019 231.642 314.33 231.642H336.382C337.813 231.642 338.886 232.713 338.886 234.142Z" fill="#FC8019"/>
<path opacity="0.6" d="M338.886 227.595C338.886 229.023 337.813 230.094 336.382 230.094H314.33C313.019 230.094 311.827 229.023 311.827 227.595C311.827 226.285 313.019 225.095 314.33 225.095H336.382C337.813 225.095 338.886 226.285 338.886 227.595Z" fill="#FC8019"/>
<path opacity="0.6" d="M338.886 221.048C338.886 222.476 337.813 223.547 336.382 223.547H314.33C313.019 223.547 311.827 222.476 311.827 221.048C311.827 219.738 313.019 218.548 314.33 218.548H336.382C337.813 218.548 338.886 219.738 338.886 221.048Z" fill="#FC8019"/>
<path d="M341.27 165.816H350.448V170.815H341.27V165.816Z" fill="#EBEBEB"/>
<path d="M341.27 172.363H350.448V177.362H341.27V172.363Z" fill="#FC8019"/>
<path d="M341.27 178.79H350.448V183.909H341.27V178.79Z" fill="#EBEBEB"/>
<path d="M351.998 165.816H361.176V170.815H351.998V165.816Z" fill="#FC8019"/>
<path d="M351.998 172.363H361.176V177.362H351.998V172.363Z" fill="#EBEBEB"/>
<path d="M351.998 178.79H361.176V183.909H351.998V178.79Z" fill="#EBEBEB"/>
<path opacity="0.6" d="M338.886 260.567C338.886 261.996 337.813 263.067 336.382 263.067H314.33C313.019 263.067 311.827 261.996 311.827 260.567C311.827 259.139 313.019 258.068 314.33 258.068H336.382C337.813 258.068 338.886 259.139 338.886 260.567Z" fill="#FC8019"/>
<path opacity="0.6" d="M338.886 254.02C338.886 255.449 337.813 256.52 336.382 256.52H314.33C313.019 256.52 311.827 255.449 311.827 254.02C311.827 252.592 313.019 251.521 314.33 251.521H336.382C337.813 251.521 338.886 252.592 338.886 254.02Z" fill="#FC8019"/>
<path opacity="0.6" d="M338.886 247.473C338.886 248.902 337.813 249.973 336.382 249.973H314.33C313.019 249.973 311.827 248.902 311.827 247.473C311.827 246.045 313.019 244.974 314.33 244.974H336.382C337.813 244.974 338.886 246.045 338.886 247.473Z" fill="#FC8019"/>
<path d="M341.27 139.39H350.448V144.389H341.27V139.39Z" fill="#FC8019"/>
<path d="M341.27 145.937H350.448V150.936H341.27V145.937Z" fill="#EBEBEB"/>
<path d="M341.27 152.484H350.448V157.483H341.27V152.484Z" fill="#EBEBEB"/>
<path d="M351.998 139.39H361.176V144.389H351.998V139.39Z" fill="#EBEBEB"/>
<path d="M351.998 145.937H361.176V150.936H351.998V145.937Z" fill="#EBEBEB"/>
<path d="M351.998 152.484H361.176V157.483H351.998V152.484Z" fill="#FC8019"/>
</svg>
