<svg width="420" height="364" viewBox="0 0 420 364" fill="none" xmlns="http://www.w3.org/2000/svg">
<path d="M351.803 362.839H410.094V363.05H351.803V362.839Z" fill="#EBEBEB"/>
<path d="M274.821 357.241H284.008V357.558H274.821V357.241Z" fill="#EBEBEB"/>
<path d="M328.36 353.016H348.635V353.332H328.36V353.016Z" fill="#EBEBEB"/>
<path fill-rule="evenodd" clip-rule="evenodd" d="M413.685 298.722H209.771C206.498 298.722 203.752 295.975 203.752 292.701V6.02091C203.752 2.64075 206.498 0 209.771 0H413.685C417.064 0 419.704 2.64075 419.704 6.02091V292.701C419.704 295.975 417.064 298.722 413.685 298.722V298.722ZM209.771 0.21126C206.603 0.21126 204.069 2.85201 204.069 6.02091V292.701C204.069 295.87 206.603 298.405 209.771 298.405H413.685C416.853 298.405 419.493 295.87 419.493 292.701V6.02091C419.493 2.85201 416.853 0.21126 413.685 0.21126H209.771Z" fill="#EBEBEB"/>
<path d="M153.17 118.411C153.17 130.664 143.349 140.594 131.099 140.594H31.7296C14.5168 140.594 0.577637 126.65 0.577637 109.327C0.577637 92.8489 13.4608 79.2226 29.7232 78.1663C33.3136 62.0049 47.7808 49.8574 65.0992 49.8574C79.4608 49.8574 91.8161 58.0966 97.7297 70.1384C101.214 68.7652 105.016 68.0258 108.923 68.0258C125.502 68.0258 138.808 81.3352 139.019 97.8135C147.256 100.982 153.17 109.01 153.17 118.411V118.411Z" fill="#7D97F4"/>
<path d="M407.56 262.596C407.56 274.849 397.739 284.673 385.49 284.673H286.12C268.907 284.673 254.862 270.73 254.862 253.512C254.862 236.928 267.851 223.408 284.114 222.351C287.704 206.084 302.171 193.937 319.49 193.937C333.851 193.937 346.206 202.282 352.12 214.323C355.605 212.95 359.406 212.105 363.314 212.105C379.787 212.105 393.198 225.415 393.304 241.893C401.646 245.062 407.56 253.09 407.56 262.596V262.596Z" fill="#F5F5F5"/>
<path d="M305.656 155.276C305.656 161.614 300.482 166.79 294.146 166.79H242.613C233.637 166.79 226.456 159.501 226.456 150.628C226.456 141.967 233.109 134.995 241.557 134.467C243.458 126.017 250.955 119.679 259.931 119.679C267.323 119.679 273.765 124.01 276.827 130.242C278.622 129.502 280.629 129.08 282.635 129.08C291.189 129.08 298.158 136.051 298.264 144.607C302.594 146.192 305.656 150.417 305.656 155.276Z" fill="#E0E0E0"/>
<path d="M380.632 65.7019C380.632 74.1523 373.874 80.9126 365.531 80.9126H297.419C285.592 80.9126 275.982 71.3003 275.982 59.4697C275.982 48.1673 284.853 38.8719 296.046 38.1325C298.475 27.0413 308.402 18.6965 320.229 18.6965C330.05 18.6965 338.603 24.4006 342.616 32.6397C345.045 31.689 347.579 31.1609 350.325 31.1609C361.624 31.1609 370.811 40.2451 370.917 51.5475C376.619 53.7657 380.632 59.2585 380.632 65.7019V65.7019Z" fill="#7D97F4"/>
<path d="M162.357 246.752C162.357 255.202 155.599 261.962 147.256 261.962H79.1442C67.317 261.962 57.813 252.35 57.813 240.52C57.813 229.217 66.5778 219.922 77.7714 219.182C80.2002 208.091 90.1266 199.746 102.059 199.746C111.88 199.746 120.328 205.45 124.341 213.689C126.77 212.739 129.304 212.211 132.05 212.211C143.349 212.211 152.536 221.295 152.642 232.597C158.344 234.815 162.357 240.308 162.357 246.752V246.752Z" fill="#F5F5F5"/>
<path d="M73.3361 126.862C73.1953 126.862 73.0545 126.791 72.9137 126.65C72.9137 126.58 72.8785 126.51 72.8081 126.439C72.8081 126.439 72.8081 126.404 72.8081 126.333C72.8081 126.263 72.8081 126.193 72.8081 126.122C72.8785 126.052 72.9137 125.981 72.9137 125.911C73.1249 125.805 73.3361 125.7 73.5473 125.805C73.6177 125.805 73.6529 125.841 73.6529 125.911C73.7937 125.981 73.8641 126.122 73.8641 126.333C73.8641 126.404 73.8641 126.439 73.8641 126.439C73.7937 126.51 73.7233 126.58 73.6529 126.65C73.5825 126.791 73.4769 126.862 73.3361 126.862V126.862Z" fill="#E0E0E0"/>
<path d="M72.8081 149.572C72.8081 149.255 73.0193 149.044 73.3361 149.044C73.6529 149.044 73.8641 149.255 73.8641 149.572C73.8641 149.889 73.6529 150.1 73.3361 150.1C73.0193 150.1 72.8081 149.889 72.8081 149.572ZM72.8081 143.762C72.8081 143.446 73.0193 143.234 73.3361 143.234C73.6529 143.234 73.8641 143.446 73.8641 143.762C73.8641 144.079 73.6529 144.291 73.3361 144.291C73.0193 144.291 72.8081 144.079 72.8081 143.762ZM72.8081 137.953C72.8081 137.636 73.0193 137.425 73.3361 137.425C73.6529 137.425 73.8641 137.636 73.8641 137.953C73.8641 138.164 73.6529 138.481 73.3361 138.481C73.0193 138.481 72.8081 138.164 72.8081 137.953ZM72.8081 132.143C72.8081 131.826 73.0193 131.615 73.3361 131.615C73.6529 131.615 73.8641 131.826 73.8641 132.143C73.8641 132.354 73.6529 132.671 73.3361 132.671C73.0193 132.671 72.8081 132.354 72.8081 132.143Z" fill="#E0E0E0"/>
<path d="M73.3361 155.91C73.2657 155.91 73.1953 155.91 73.1249 155.91C73.0545 155.84 72.9841 155.804 72.9137 155.804C72.9137 155.734 72.8785 155.663 72.8081 155.593C72.8081 155.523 72.8081 155.452 72.8081 155.382C72.8081 155.311 72.8081 155.241 72.8081 155.171C72.8785 155.1 72.9137 155.065 72.9137 155.065C72.9841 154.994 73.0545 154.924 73.1249 154.854C73.2657 154.854 73.4065 154.854 73.5473 154.854C73.6177 154.924 73.6529 154.994 73.6529 155.065C73.7233 155.065 73.7937 155.1 73.8641 155.171C73.8641 155.241 73.8641 155.311 73.8641 155.382C73.8641 155.523 73.7937 155.663 73.6529 155.804C73.6529 155.804 73.6177 155.84 73.5473 155.91C73.4769 155.91 73.4065 155.91 73.3361 155.91V155.91Z" fill="#E0E0E0"/>
<path d="M169.643 155.382C169.643 155.065 169.854 154.854 170.171 154.854C170.382 154.854 170.699 155.065 170.699 155.382C170.699 155.699 170.382 155.91 170.171 155.91C169.854 155.91 169.643 155.699 169.643 155.382ZM163.202 155.382C163.202 155.065 163.413 154.854 163.73 154.854C163.941 154.854 164.152 155.065 164.152 155.382C164.152 155.699 163.941 155.91 163.73 155.91C163.413 155.91 163.202 155.699 163.202 155.382ZM156.76 155.382C156.76 155.065 156.971 154.854 157.288 154.854C157.499 154.854 157.816 155.065 157.816 155.382C157.816 155.699 157.499 155.91 157.288 155.91C156.971 155.91 156.76 155.699 156.76 155.382ZM150.213 155.382C150.213 155.065 150.53 154.854 150.741 154.854C151.058 154.854 151.269 155.065 151.269 155.382C151.269 155.699 151.058 155.91 150.741 155.91C150.53 155.91 150.213 155.699 150.213 155.382ZM143.771 155.382C143.771 155.065 144.088 154.854 144.299 154.854C144.616 154.854 144.827 155.065 144.827 155.382C144.827 155.699 144.616 155.91 144.299 155.91C144.088 155.91 143.771 155.699 143.771 155.382ZM137.33 155.382C137.33 155.065 137.541 154.854 137.858 154.854C138.174 154.854 138.386 155.065 138.386 155.382C138.386 155.699 138.174 155.91 137.858 155.91C137.541 155.91 137.33 155.699 137.33 155.382ZM130.888 155.382C130.888 155.065 131.099 154.854 131.416 154.854C131.733 154.854 131.944 155.065 131.944 155.382C131.944 155.699 131.733 155.91 131.416 155.91C131.099 155.91 130.888 155.699 130.888 155.382ZM124.446 155.382C124.446 155.065 124.657 154.854 124.974 154.854C125.291 154.854 125.502 155.065 125.502 155.382C125.502 155.699 125.291 155.91 124.974 155.91C124.657 155.91 124.446 155.699 124.446 155.382ZM118.005 155.382C118.005 155.065 118.216 154.854 118.533 154.854C118.744 154.854 119.061 155.065 119.061 155.382C119.061 155.699 118.744 155.91 118.533 155.91C118.216 155.91 118.005 155.699 118.005 155.382ZM111.563 155.382C111.563 155.065 111.774 154.854 112.091 154.854C112.302 154.854 112.619 155.065 112.619 155.382C112.619 155.699 112.302 155.91 112.091 155.91C111.774 155.91 111.563 155.699 111.563 155.382ZM105.016 155.382C105.016 155.065 105.333 154.854 105.544 154.854C105.861 154.854 106.178 155.065 106.178 155.382C106.178 155.699 105.861 155.91 105.544 155.91C105.333 155.91 105.016 155.699 105.016 155.382ZM98.6799 155.382C98.6799 155.065 98.8911 154.854 99.2079 154.854C99.4191 154.854 99.6303 155.065 99.6303 155.382C99.6303 155.699 99.4191 155.91 99.2079 155.91C98.8911 155.91 98.6799 155.699 98.6799 155.382ZM92.1327 155.382C92.1327 155.065 92.4495 154.854 92.6607 154.854C92.9775 154.854 93.1887 155.065 93.1887 155.382C93.1887 155.699 92.9775 155.91 92.6607 155.91C92.4495 155.91 92.1327 155.699 92.1327 155.382ZM85.6911 155.382C85.6911 155.065 86.0079 154.854 86.2191 154.854C86.5359 154.854 86.7471 155.065 86.7471 155.382C86.7471 155.699 86.5359 155.91 86.2191 155.91C86.0079 155.91 85.6911 155.699 85.6911 155.382ZM79.2495 155.382C79.2495 155.065 79.4607 154.854 79.7775 154.854C80.0943 154.854 80.3055 155.065 80.3055 155.382C80.3055 155.699 80.0943 155.91 79.7775 155.91C79.4607 155.91 79.2495 155.699 79.2495 155.382Z" fill="#E0E0E0"/>
<path d="M176.613 155.91C176.543 155.91 176.472 155.91 176.402 155.91C176.331 155.84 176.261 155.804 176.191 155.804C176.191 155.734 176.155 155.663 176.085 155.593C176.085 155.523 176.085 155.452 176.085 155.382C176.085 155.311 176.085 155.241 176.085 155.171C176.155 155.1 176.191 155.065 176.191 155.065C176.261 154.994 176.331 154.924 176.402 154.854C176.543 154.854 176.683 154.854 176.824 154.854C176.895 154.924 176.93 154.994 176.93 155.065C177 155.065 177.035 155.1 177.035 155.171C177.106 155.241 177.141 155.311 177.141 155.382C177.141 155.523 177.071 155.663 176.93 155.804C176.93 155.804 176.895 155.84 176.824 155.91C176.754 155.91 176.683 155.91 176.613 155.91V155.91Z" fill="#E0E0E0"/>
<path d="M176.085 149.15C176.085 148.833 176.296 148.621 176.613 148.621C176.824 148.621 177.141 148.833 177.141 149.15C177.141 149.361 176.824 149.678 176.613 149.678C176.296 149.678 176.085 149.361 176.085 149.15ZM176.085 142.812C176.085 142.495 176.296 142.284 176.613 142.284C176.824 142.284 177.141 142.495 177.141 142.812C177.141 143.129 176.824 143.34 176.613 143.34C176.296 143.34 176.085 143.129 176.085 142.812ZM176.085 136.474C176.085 136.263 176.296 135.946 176.613 135.946C176.824 135.946 177.141 136.263 177.141 136.474C177.141 136.791 176.824 137.002 176.613 137.002C176.296 137.002 176.085 136.791 176.085 136.474ZM176.085 130.242C176.085 129.925 176.296 129.714 176.613 129.714C176.824 129.714 177.141 129.925 177.141 130.242C177.141 130.559 176.824 130.77 176.613 130.77C176.296 130.77 176.085 130.559 176.085 130.242ZM176.085 123.904C176.085 123.693 176.296 123.376 176.613 123.376C176.824 123.376 177.141 123.693 177.141 123.904C177.141 124.221 176.824 124.432 176.613 124.432C176.296 124.432 176.085 124.221 176.085 123.904ZM176.085 117.672C176.085 117.355 176.296 117.144 176.613 117.144C176.824 117.144 177.141 117.355 177.141 117.672C177.141 117.883 176.824 118.2 176.613 118.2C176.296 118.2 176.085 117.883 176.085 117.672ZM176.085 111.334C176.085 111.017 176.296 110.806 176.613 110.806C176.824 110.806 177.141 111.017 177.141 111.334C177.141 111.651 176.824 111.862 176.613 111.862C176.296 111.862 176.085 111.651 176.085 111.334ZM176.085 105.102C176.085 104.785 176.296 104.574 176.613 104.574C176.824 104.574 177.141 104.785 177.141 105.102C177.141 105.313 176.824 105.63 176.613 105.63C176.296 105.63 176.085 105.313 176.085 105.102ZM176.085 98.7641C176.085 98.4472 176.296 98.236 176.613 98.236C176.824 98.236 177.141 98.4472 177.141 98.7641C177.141 99.081 176.824 99.2923 176.613 99.2923C176.296 99.2923 176.085 99.081 176.085 98.7641Z" fill="#E0E0E0"/>
<path d="M176.613 93.06C176.543 93.06 176.472 93.0248 176.402 92.9544C176.331 92.9544 176.261 92.9192 176.191 92.8488C176.191 92.7784 176.155 92.7079 176.085 92.6375C176.085 92.6375 176.085 92.6023 176.085 92.5319C176.085 92.4615 176.085 92.3911 176.085 92.3206C176.155 92.2502 176.191 92.1798 176.191 92.1094C176.261 92.039 176.331 92.0037 176.402 92.0037C176.543 91.9333 176.683 91.9333 176.824 92.0037C176.895 92.0037 176.93 92.039 176.93 92.1094C177.071 92.2502 177.141 92.391 177.141 92.5319C177.141 92.6727 177.071 92.7784 176.93 92.8488C176.859 92.9896 176.754 93.06 176.613 93.06V93.06Z" fill="#E0E0E0"/>
<path d="M321.496 92.5318C321.496 92.215 321.707 91.8981 322.024 91.8981C322.341 91.8981 322.552 92.215 322.552 92.5318C322.552 92.7431 322.341 93.06 322.024 93.06C321.707 93.06 321.496 92.7431 321.496 92.5318ZM315.16 92.5318C315.16 92.215 315.371 91.8981 315.688 91.8981C316.005 91.8981 316.216 92.215 316.216 92.5318C316.216 92.7431 316.005 93.06 315.688 93.06C315.371 93.06 315.16 92.7431 315.16 92.5318ZM308.824 92.5318C308.824 92.215 309.035 91.8981 309.352 91.8981C309.669 91.8981 309.88 92.215 309.88 92.5318C309.88 92.7431 309.669 93.06 309.352 93.06C309.035 93.06 308.824 92.7431 308.824 92.5318ZM302.488 92.5318C302.488 92.215 302.699 91.8981 303.016 91.8981C303.333 91.8981 303.544 92.215 303.544 92.5318C303.544 92.7431 303.333 93.06 303.016 93.06C302.699 93.06 302.488 92.7431 302.488 92.5318ZM296.152 92.5318C296.152 92.215 296.469 91.8981 296.68 91.8981C296.997 91.8981 297.208 92.215 297.208 92.5318C297.208 92.7431 296.997 93.06 296.68 93.06C296.469 93.06 296.152 92.7431 296.152 92.5318ZM289.816 92.5318C289.816 92.215 290.133 91.8981 290.344 91.8981C290.661 91.8981 290.872 92.215 290.872 92.5318C290.872 92.7431 290.661 93.06 290.344 93.06C290.133 93.06 289.816 92.7431 289.816 92.5318ZM283.586 92.5318C283.586 92.215 283.797 91.8981 284.114 91.8981C284.325 91.8981 284.642 92.215 284.642 92.5318C284.642 92.7431 284.325 93.06 284.114 93.06C283.797 93.06 283.586 92.7431 283.586 92.5318ZM277.25 92.5318C277.25 92.215 277.461 91.8981 277.778 91.8981C277.989 91.8981 278.306 92.215 278.306 92.5318C278.306 92.7431 277.989 93.06 277.778 93.06C277.461 93.06 277.25 92.7431 277.25 92.5318ZM270.914 92.5318C270.914 92.215 271.125 91.8981 271.442 91.8981C271.759 91.8981 271.97 92.215 271.97 92.5318C271.97 92.7431 271.759 93.06 271.442 93.06C271.125 93.06 270.914 92.7431 270.914 92.5318ZM264.578 92.5318C264.578 92.215 264.789 91.8981 265.106 91.8981C265.423 91.8981 265.634 92.215 265.634 92.5318C265.634 92.7431 265.423 93.06 265.106 93.06C264.789 93.06 264.578 92.7431 264.578 92.5318ZM258.242 92.5318C258.242 92.215 258.453 91.8981 258.77 91.8981C259.087 91.8981 259.298 92.215 259.298 92.5318C259.298 92.7431 259.087 93.06 258.77 93.06C258.453 93.06 258.242 92.7431 258.242 92.5318ZM251.906 92.5318C251.906 92.215 252.117 91.8981 252.434 91.8981C252.751 91.8981 252.962 92.215 252.962 92.5318C252.962 92.7431 252.751 93.06 252.434 93.06C252.117 93.06 251.906 92.7431 251.906 92.5318ZM245.57 92.5318C245.57 92.215 245.887 91.8981 246.098 91.8981C246.415 91.8981 246.626 92.215 246.626 92.5318C246.626 92.7431 246.415 93.06 246.098 93.06C245.887 93.06 245.57 92.7431 245.57 92.5318ZM239.234 92.5318C239.234 92.215 239.551 91.8981 239.762 91.8981C240.079 91.8981 240.29 92.215 240.29 92.5318C240.29 92.7431 240.079 93.06 239.762 93.06C239.551 93.06 239.234 92.7431 239.234 92.5318ZM233.003 92.5318C233.003 92.215 233.215 91.8981 233.531 91.8981C233.743 91.8981 234.059 92.215 234.059 92.5318C234.059 92.7431 233.743 93.06 233.531 93.06C233.215 93.06 233.003 92.7431 233.003 92.5318ZM226.667 92.5318C226.667 92.215 226.879 91.8981 227.195 91.8981C227.512 91.8981 227.723 92.215 227.723 92.5318C227.723 92.7431 227.512 93.06 227.195 93.06C226.879 93.06 226.667 92.7431 226.667 92.5318ZM220.331 92.5318C220.331 92.215 220.543 91.8981 220.859 91.8981C221.176 91.8981 221.387 92.215 221.387 92.5318C221.387 92.7431 221.176 93.06 220.859 93.06C220.543 93.06 220.331 92.7431 220.331 92.5318ZM213.995 92.5318C213.995 92.215 214.207 91.8981 214.523 91.8981C214.84 91.8981 215.051 92.215 215.051 92.5318C215.051 92.7431 214.84 93.06 214.523 93.06C214.207 93.06 213.995 92.7431 213.995 92.5318ZM207.659 92.5318C207.659 92.215 207.871 91.8981 208.187 91.8981C208.504 91.8981 208.715 92.215 208.715 92.5318C208.715 92.7431 208.504 93.06 208.187 93.06C207.871 93.06 207.659 92.7431 207.659 92.5318ZM201.323 92.5318C201.323 92.215 201.64 91.8981 201.851 91.8981C202.168 91.8981 202.379 92.215 202.379 92.5318C202.379 92.7431 202.168 93.06 201.851 93.06C201.64 93.06 201.323 92.7431 201.323 92.5318ZM194.987 92.5318C194.987 92.215 195.304 91.8981 195.515 91.8981C195.832 91.8981 196.043 92.215 196.043 92.5318C196.043 92.7431 195.832 93.06 195.515 93.06C195.304 93.06 194.987 92.7431 194.987 92.5318ZM188.651 92.5318C188.651 92.215 188.968 91.8981 189.179 91.8981C189.496 91.8981 189.707 92.215 189.707 92.5318C189.707 92.7431 189.496 93.06 189.179 93.06C188.968 93.06 188.651 92.7431 188.651 92.5318ZM182.421 92.5318C182.421 92.215 182.632 91.8981 182.949 91.8981C183.16 91.8981 183.477 92.215 183.477 92.5318C183.477 92.7431 183.16 93.06 182.949 93.06C182.632 93.06 182.421 92.7431 182.421 92.5318Z" fill="#E0E0E0"/>
<path d="M328.36 93.06C328.219 93.06 328.078 92.9896 327.938 92.8488C327.867 92.7783 327.832 92.6727 327.832 92.5319C327.832 92.391 327.867 92.2502 327.938 92.1093C328.008 92.0389 328.078 92.0037 328.149 92.0037C328.36 91.8981 328.571 92.0037 328.677 92.1093C328.747 92.1798 328.782 92.2502 328.782 92.3206C328.853 92.391 328.888 92.4614 328.888 92.5319C328.888 92.6727 328.818 92.7783 328.677 92.8488C328.606 92.9896 328.501 93.06 328.36 93.06V93.06Z" fill="#E0E0E0"/>
<path d="M327.832 86.4053C327.832 86.0884 328.043 85.8772 328.36 85.8772C328.571 85.8772 328.888 86.0884 328.888 86.4053C328.888 86.7222 328.571 86.9335 328.36 86.9335C328.043 86.9335 327.832 86.7222 327.832 86.4053ZM327.832 80.2788C327.832 79.9619 328.043 79.7506 328.36 79.7506C328.571 79.7506 328.888 79.9619 328.888 80.2788C328.888 80.5957 328.571 80.8069 328.36 80.8069C328.043 80.8069 327.832 80.5957 327.832 80.2788ZM327.832 74.1522C327.832 73.941 328.043 73.6241 328.36 73.6241C328.571 73.6241 328.888 73.941 328.888 74.1522C328.888 74.4691 328.571 74.6804 328.36 74.6804C328.043 74.6804 327.832 74.4691 327.832 74.1522ZM327.832 68.1313C327.832 67.8144 328.043 67.6032 328.36 67.6032C328.571 67.6032 328.888 67.8144 328.888 68.1313C328.888 68.3426 328.571 68.6595 328.36 68.6595C328.043 68.6595 327.832 68.3426 327.832 68.1313ZM327.832 62.0048C327.832 61.6879 328.043 61.4766 328.36 61.4766C328.571 61.4766 328.888 61.6879 328.888 62.0048C328.888 62.3217 328.571 62.5329 328.36 62.5329C328.043 62.5329 327.832 62.3217 327.832 62.0048ZM327.832 55.8782C327.832 55.667 328.043 55.3501 328.36 55.3501C328.571 55.3501 328.888 55.667 328.888 55.8782C328.888 56.1951 328.571 56.4064 328.36 56.4064C328.043 56.4064 327.832 56.1951 327.832 55.8782Z" fill="#E0E0E0"/>
<path d="M328.36 50.3855C328.219 50.3855 328.078 50.3151 327.938 50.1742C327.867 50.1038 327.832 49.9982 327.832 49.8573C327.832 49.7869 327.832 49.7165 327.832 49.6461C327.902 49.5757 327.938 49.5052 327.938 49.4348C328.149 49.2236 328.466 49.2236 328.677 49.4348C328.818 49.5757 328.888 49.7165 328.888 49.8573C328.888 49.9278 328.853 49.963 328.782 49.963C328.782 50.0334 328.747 50.1038 328.677 50.1742C328.677 50.2447 328.642 50.2799 328.571 50.2799C328.501 50.3503 328.43 50.3855 328.36 50.3855V50.3855Z" fill="#E0E0E0"/>
<path d="M110.085 249.076C109.944 249.076 109.803 249.04 109.662 248.97C109.662 248.9 109.627 248.829 109.557 248.759C109.557 248.688 109.557 248.618 109.557 248.547C109.557 248.407 109.592 248.301 109.662 248.231C109.873 248.019 110.085 248.019 110.296 248.125C110.366 248.125 110.401 248.16 110.401 248.231C110.542 248.301 110.613 248.407 110.613 248.547C110.613 248.618 110.613 248.688 110.613 248.759C110.542 248.829 110.472 248.9 110.401 248.97C110.401 249.04 110.366 249.076 110.296 249.076C110.225 249.076 110.155 249.076 110.085 249.076Z" fill="#E0E0E0"/>
<path d="M109.557 274.532C109.557 274.216 109.768 274.004 110.085 274.004C110.401 274.004 110.613 274.216 110.613 274.532C110.613 274.744 110.401 275.061 110.085 275.061C109.768 275.061 109.557 274.744 109.557 274.532ZM109.557 267.983C109.557 267.772 109.768 267.455 110.085 267.455C110.401 267.455 110.613 267.772 110.613 267.983C110.613 268.3 110.401 268.512 110.085 268.512C109.768 268.512 109.557 268.3 109.557 267.983ZM109.557 261.54C109.557 261.223 109.768 261.012 110.085 261.012C110.401 261.012 110.613 261.223 110.613 261.54C110.613 261.857 110.401 262.068 110.085 262.068C109.768 262.068 109.557 261.857 109.557 261.54ZM109.557 255.097C109.557 254.78 109.768 254.568 110.085 254.568C110.401 254.568 110.613 254.78 110.613 255.097C110.613 255.308 110.401 255.625 110.085 255.625C109.768 255.625 109.557 255.308 109.557 255.097Z" fill="#E0E0E0"/>
<path d="M110.085 281.504C109.944 281.504 109.803 281.434 109.662 281.293C109.662 281.293 109.627 281.258 109.557 281.187C109.557 281.117 109.557 281.046 109.557 280.976C109.557 280.905 109.557 280.835 109.557 280.765C109.627 280.694 109.662 280.624 109.662 280.553C109.873 280.448 110.085 280.448 110.296 280.448C110.366 280.518 110.401 280.553 110.401 280.553C110.472 280.624 110.542 280.694 110.613 280.765C110.613 280.835 110.613 280.905 110.613 280.976C110.613 281.046 110.613 281.117 110.613 281.187C110.542 281.258 110.472 281.293 110.401 281.293C110.401 281.363 110.366 281.434 110.296 281.504C110.225 281.504 110.155 281.504 110.085 281.504Z" fill="#E0E0E0"/>
<path d="M169.96 280.976C169.96 280.659 170.277 280.448 170.488 280.448C170.805 280.448 171.016 280.659 171.016 280.976C171.016 281.293 170.805 281.504 170.488 281.504C170.277 281.504 169.96 281.293 169.96 280.976ZM163.941 280.976C163.941 280.659 164.152 280.448 164.469 280.448C164.786 280.448 164.997 280.659 164.997 280.976C164.997 281.293 164.786 281.504 164.469 281.504C164.152 281.504 163.941 281.293 163.941 280.976ZM157.922 280.976C157.922 280.659 158.133 280.448 158.45 280.448C158.767 280.448 158.978 280.659 158.978 280.976C158.978 281.293 158.767 281.504 158.45 281.504C158.133 281.504 157.922 281.293 157.922 280.976ZM151.903 280.976C151.903 280.659 152.114 280.448 152.431 280.448C152.642 280.448 152.959 280.659 152.959 280.976C152.959 281.293 152.642 281.504 152.431 281.504C152.114 281.504 151.903 281.293 151.903 280.976ZM145.778 280.976C145.778 280.659 146.095 280.448 146.306 280.448C146.623 280.448 146.834 280.659 146.834 280.976C146.834 281.293 146.623 281.504 146.306 281.504C146.095 281.504 145.778 281.293 145.778 280.976ZM139.759 280.976C139.759 280.659 139.97 280.448 140.287 280.448C140.603 280.448 140.815 280.659 140.815 280.976C140.815 281.293 140.603 281.504 140.287 281.504C139.97 281.504 139.759 281.293 139.759 280.976ZM133.739 280.976C133.739 280.659 133.951 280.448 134.267 280.448C134.584 280.448 134.795 280.659 134.795 280.976C134.795 281.293 134.584 281.504 134.267 281.504C133.951 281.504 133.739 281.293 133.739 280.976ZM127.72 280.976C127.72 280.659 127.931 280.448 128.248 280.448C128.459 280.448 128.776 280.659 128.776 280.976C128.776 281.293 128.459 281.504 128.248 281.504C127.931 281.504 127.72 281.293 127.72 280.976ZM121.595 280.976C121.595 280.659 121.912 280.448 122.123 280.448C122.44 280.448 122.651 280.659 122.651 280.976C122.651 281.293 122.44 281.504 122.123 281.504C121.912 281.504 121.595 281.293 121.595 280.976ZM115.576 280.976C115.576 280.659 115.787 280.448 116.104 280.448C116.421 280.448 116.632 280.659 116.632 280.976C116.632 281.293 116.421 281.504 116.104 281.504C115.787 281.504 115.576 281.293 115.576 280.976Z" fill="#E0E0E0"/>
<path d="M176.613 281.504C176.543 281.504 176.472 281.504 176.402 281.504C176.331 281.434 176.261 281.363 176.191 281.293C176.191 281.293 176.155 281.258 176.085 281.187C176.085 281.117 176.085 281.046 176.085 280.976C176.085 280.835 176.12 280.694 176.191 280.553C176.261 280.553 176.331 280.518 176.402 280.448C176.543 280.448 176.683 280.448 176.824 280.448C176.895 280.518 176.93 280.553 176.93 280.553C177.071 280.694 177.141 280.835 177.141 280.976C177.141 281.046 177.106 281.117 177.035 281.187C177.035 281.258 177 281.293 176.93 281.293C176.93 281.363 176.895 281.434 176.824 281.504C176.754 281.504 176.683 281.504 176.613 281.504V281.504Z" fill="#E0E0E0"/>
<path d="M176.085 274.849C176.085 274.532 176.296 274.321 176.613 274.321C176.824 274.321 177.141 274.532 177.141 274.849C177.141 275.061 176.824 275.378 176.613 275.378C176.296 275.378 176.085 275.061 176.085 274.849ZM176.085 268.723C176.085 268.406 176.296 268.089 176.613 268.089C176.824 268.089 177.141 268.406 177.141 268.723C177.141 268.934 176.824 269.251 176.613 269.251C176.296 269.251 176.085 268.934 176.085 268.723ZM176.085 262.491C176.085 262.279 176.296 261.962 176.613 261.962C176.824 261.962 177.141 262.279 177.141 262.491C177.141 262.808 176.824 263.019 176.613 263.019C176.296 263.019 176.085 262.808 176.085 262.491ZM176.085 256.364C176.085 256.047 176.296 255.836 176.613 255.836C176.824 255.836 177.141 256.047 177.141 256.364C177.141 256.681 176.824 256.892 176.613 256.892C176.296 256.892 176.085 256.681 176.085 256.364ZM176.085 250.238C176.085 249.921 176.296 249.709 176.613 249.709C176.824 249.709 177.141 249.921 177.141 250.238C177.141 250.554 176.824 250.766 176.613 250.766C176.296 250.766 176.085 250.554 176.085 250.238ZM176.085 244.111C176.085 243.794 176.296 243.583 176.613 243.583C176.824 243.583 177.141 243.794 177.141 244.111C177.141 244.322 176.824 244.639 176.613 244.639C176.296 244.639 176.085 244.322 176.085 244.111ZM176.085 237.879C176.085 237.668 176.296 237.351 176.613 237.351C176.824 237.351 177.141 237.668 177.141 237.879C177.141 238.196 176.824 238.407 176.613 238.407C176.296 238.407 176.085 238.196 176.085 237.879ZM176.085 231.752C176.085 231.435 176.296 231.224 176.613 231.224C176.824 231.224 177.141 231.435 177.141 231.752C177.141 232.069 176.824 232.28 176.613 232.28C176.296 232.28 176.085 232.069 176.085 231.752ZM176.085 225.626C176.085 225.309 176.296 225.098 176.613 225.098C176.824 225.098 177.141 225.309 177.141 225.626C177.141 225.943 176.824 226.154 176.613 226.154C176.296 226.154 176.085 225.943 176.085 225.626ZM176.085 219.499C176.085 219.182 176.296 218.971 176.613 218.971C176.824 218.971 177.141 219.182 177.141 219.499C177.141 219.71 176.824 220.027 176.613 220.027C176.296 220.027 176.085 219.71 176.085 219.499ZM176.085 213.373C176.085 213.056 176.296 212.845 176.613 212.845C176.824 212.845 177.141 213.056 177.141 213.373C177.141 213.584 176.824 213.901 176.613 213.901C176.296 213.901 176.085 213.584 176.085 213.373ZM176.085 207.14C176.085 206.929 176.296 206.612 176.613 206.612C176.824 206.612 177.141 206.929 177.141 207.14C177.141 207.457 176.824 207.669 176.613 207.669C176.296 207.669 176.085 207.457 176.085 207.14ZM176.085 201.014C176.085 200.697 176.296 200.486 176.613 200.486C176.824 200.486 177.141 200.697 177.141 201.014C177.141 201.331 176.824 201.542 176.613 201.542C176.296 201.542 176.085 201.331 176.085 201.014ZM176.085 194.887C176.085 194.571 176.296 194.359 176.613 194.359C176.824 194.359 177.141 194.571 177.141 194.887C177.141 195.204 176.824 195.416 176.613 195.416C176.296 195.416 176.085 195.204 176.085 194.887Z" fill="#E0E0E0"/>
<path d="M176.613 189.289C176.543 189.289 176.472 189.254 176.402 189.183C176.331 189.183 176.261 189.148 176.191 189.078C176.191 189.007 176.155 188.972 176.085 188.972C176.085 188.902 176.085 188.831 176.085 188.761C176.085 188.62 176.12 188.479 176.191 188.338C176.261 188.268 176.331 188.233 176.402 188.233C176.543 188.162 176.683 188.162 176.824 188.233C176.895 188.233 176.93 188.268 176.93 188.338C177.071 188.479 177.141 188.62 177.141 188.761C177.141 188.831 177.106 188.902 177.035 188.972C177.035 188.972 177 189.007 176.93 189.078C176.93 189.148 176.895 189.183 176.824 189.183C176.754 189.254 176.683 189.289 176.613 189.289V189.289Z" fill="#E0E0E0"/>
<path d="M259.086 188.761C259.086 188.444 259.298 188.233 259.614 188.233C259.931 188.233 260.142 188.444 260.142 188.761C260.142 188.972 259.931 189.289 259.614 189.289C259.298 189.289 259.086 188.972 259.086 188.761ZM252.75 188.761C252.75 188.444 252.962 188.233 253.278 188.233C253.49 188.233 253.806 188.444 253.806 188.761C253.806 188.972 253.49 189.289 253.278 189.289C252.962 189.289 252.75 188.972 252.75 188.761ZM246.309 188.761C246.309 188.444 246.52 188.233 246.837 188.233C247.154 188.233 247.365 188.444 247.365 188.761C247.365 188.972 247.154 189.289 246.837 189.289C246.52 189.289 246.309 188.972 246.309 188.761ZM239.973 188.761C239.973 188.444 240.184 188.233 240.501 188.233C240.712 188.233 241.029 188.444 241.029 188.761C241.029 188.972 240.712 189.289 240.501 189.289C240.184 189.289 239.973 188.972 239.973 188.761ZM233.531 188.761C233.531 188.444 233.743 188.233 234.059 188.233C234.376 188.233 234.587 188.444 234.587 188.761C234.587 188.972 234.376 189.289 234.059 189.289C233.743 189.289 233.531 188.972 233.531 188.761ZM227.195 188.761C227.195 188.444 227.407 188.233 227.723 188.233C227.935 188.233 228.251 188.444 228.251 188.761C228.251 188.972 227.935 189.289 227.723 189.289C227.407 189.289 227.195 188.972 227.195 188.761ZM220.754 188.761C220.754 188.444 220.965 188.233 221.282 188.233C221.599 188.233 221.81 188.444 221.81 188.761C221.81 188.972 221.599 189.289 221.282 189.289C220.965 189.289 220.754 188.972 220.754 188.761ZM214.418 188.761C214.418 188.444 214.629 188.233 214.946 188.233C215.157 188.233 215.474 188.444 215.474 188.761C215.474 188.972 215.157 189.289 214.946 189.289C214.629 189.289 214.418 188.972 214.418 188.761ZM207.976 188.761C207.976 188.444 208.187 188.233 208.504 188.233C208.821 188.233 209.032 188.444 209.032 188.761C209.032 188.972 208.821 189.289 208.504 189.289C208.187 189.289 207.976 188.972 207.976 188.761ZM201.64 188.761C201.64 188.444 201.851 188.233 202.168 188.233C202.379 188.233 202.696 188.444 202.696 188.761C202.696 188.972 202.379 189.289 202.168 189.289C201.851 189.289 201.64 188.972 201.64 188.761ZM195.198 188.761C195.198 188.444 195.41 188.233 195.726 188.233C196.043 188.233 196.254 188.444 196.254 188.761C196.254 188.972 196.043 189.289 195.726 189.289C195.41 189.289 195.198 188.972 195.198 188.761ZM188.862 188.761C188.862 188.444 189.074 188.233 189.39 188.233C189.602 188.233 189.918 188.444 189.918 188.761C189.918 188.972 189.602 189.289 189.39 189.289C189.074 189.289 188.862 188.972 188.862 188.761ZM182.421 188.761C182.421 188.444 182.632 188.233 182.949 188.233C183.266 188.233 183.477 188.444 183.477 188.761C183.477 188.972 183.266 189.289 182.949 189.289C182.632 189.289 182.421 188.972 182.421 188.761Z" fill="#E0E0E0"/>
<path d="M266.056 189.289C265.915 189.289 265.774 189.219 265.633 189.078C265.563 189.007 265.528 188.972 265.528 188.972C265.528 188.902 265.528 188.831 265.528 188.761C265.528 188.69 265.528 188.62 265.528 188.55C265.528 188.479 265.563 188.409 265.633 188.338C265.704 188.268 265.774 188.233 265.845 188.233C265.985 188.162 266.091 188.162 266.161 188.233C266.232 188.233 266.302 188.268 266.373 188.338C266.443 188.409 266.478 188.479 266.478 188.55C266.549 188.62 266.584 188.69 266.584 188.761C266.584 188.902 266.513 189.007 266.373 189.078C266.302 189.219 266.197 189.289 266.056 189.289V189.289Z" fill="#E0E0E0"/>
<path d="M265.528 182.106C265.528 181.789 265.739 181.578 266.056 181.578C266.267 181.578 266.584 181.789 266.584 182.106C266.584 182.317 266.267 182.634 266.056 182.634C265.739 182.634 265.528 182.317 265.528 182.106ZM265.528 175.346C265.528 175.135 265.739 174.818 266.056 174.818C266.267 174.818 266.584 175.135 266.584 175.346C266.584 175.663 266.267 175.874 266.056 175.874C265.739 175.874 265.528 175.663 265.528 175.346ZM265.528 168.691C265.528 168.48 265.739 168.163 266.056 168.163C266.267 168.163 266.584 168.48 266.584 168.691C266.584 169.008 266.267 169.219 266.056 169.219C265.739 169.219 265.528 169.008 265.528 168.691ZM265.528 162.036C265.528 161.72 265.739 161.508 266.056 161.508C266.267 161.508 266.584 161.72 266.584 162.036C266.584 162.353 266.267 162.565 266.056 162.565C265.739 162.565 265.528 162.353 265.528 162.036Z" fill="#E0E0E0"/>
<path d="M266.056 155.91C265.915 155.91 265.774 155.875 265.633 155.804C265.563 155.734 265.528 155.663 265.528 155.593C265.528 155.523 265.528 155.452 265.528 155.382C265.528 155.311 265.528 155.241 265.528 155.171C265.528 155.1 265.563 155.065 265.633 155.065C265.704 154.994 265.774 154.924 265.845 154.854C265.985 154.854 266.091 154.854 266.161 154.854C266.232 154.924 266.302 154.994 266.373 155.065C266.443 155.065 266.478 155.1 266.478 155.171C266.549 155.241 266.584 155.311 266.584 155.382C266.584 155.523 266.513 155.663 266.373 155.804C266.302 155.875 266.197 155.91 266.056 155.91V155.91Z" fill="#E0E0E0"/>
<path d="M328.36 272.737C328.219 272.737 328.078 272.666 327.938 272.526C327.867 272.455 327.832 272.349 327.832 272.209C327.832 272.068 327.867 271.927 327.938 271.786C328.149 271.68 328.36 271.575 328.571 271.68C328.642 271.68 328.677 271.716 328.677 271.786C328.747 271.857 328.782 271.927 328.782 271.997C328.853 272.068 328.888 272.138 328.888 272.209C328.888 272.349 328.818 272.455 328.677 272.526C328.606 272.666 328.501 272.737 328.36 272.737V272.737Z" fill="#E0E0E0"/>
<path d="M327.832 308.651C327.832 308.44 328.043 308.123 328.36 308.123C328.571 308.123 328.888 308.44 328.888 308.651C328.888 308.968 328.571 309.179 328.36 309.179C328.043 309.179 327.832 308.968 327.832 308.651ZM327.832 302.63C327.832 302.313 328.043 302.102 328.36 302.102C328.571 302.102 328.888 302.313 328.888 302.63C328.888 302.841 328.571 303.158 328.36 303.158C328.043 303.158 327.832 302.841 327.832 302.63ZM327.832 296.503C327.832 296.187 328.043 295.975 328.36 295.975C328.571 295.975 328.888 296.187 328.888 296.503C328.888 296.82 328.571 297.032 328.36 297.032C328.043 297.032 327.832 296.82 327.832 296.503ZM327.832 290.377C327.832 290.166 328.043 289.849 328.36 289.849C328.571 289.849 328.888 290.166 328.888 290.377C328.888 290.694 328.571 290.905 328.36 290.905C328.043 290.905 327.832 290.694 327.832 290.377ZM327.832 284.356C327.832 284.039 328.043 283.828 328.36 283.828C328.571 283.828 328.888 284.039 328.888 284.356C328.888 284.673 328.571 284.884 328.36 284.884C328.043 284.884 327.832 284.673 327.832 284.356ZM327.832 278.229C327.832 277.913 328.043 277.701 328.36 277.701C328.571 277.701 328.888 277.913 328.888 278.229C328.888 278.546 328.571 278.758 328.36 278.758C328.043 278.758 327.832 278.546 327.832 278.229Z" fill="#E0E0E0"/>
<path d="M328.36 315.306C328.219 315.306 328.078 315.235 327.938 315.094C327.867 315.024 327.832 314.918 327.832 314.778C327.832 314.707 327.832 314.637 327.832 314.566C327.902 314.496 327.938 314.425 327.938 314.355C328.149 314.249 328.466 314.249 328.677 314.355C328.818 314.496 328.888 314.637 328.888 314.778C328.888 314.848 328.853 314.918 328.782 314.989C328.782 315.059 328.747 315.094 328.677 315.094C328.677 315.165 328.642 315.235 328.571 315.306C328.501 315.306 328.43 315.306 328.36 315.306V315.306Z" fill="#E0E0E0"/>
<path d="M321.496 314.777C321.496 314.461 321.707 314.249 322.024 314.249C322.341 314.249 322.552 314.461 322.552 314.777C322.552 315.094 322.341 315.306 322.024 315.306C321.707 315.306 321.496 315.094 321.496 314.777ZM315.16 314.777C315.16 314.461 315.371 314.249 315.688 314.249C316.005 314.249 316.216 314.461 316.216 314.777C316.216 315.094 316.005 315.306 315.688 315.306C315.371 315.306 315.16 315.094 315.16 314.777ZM308.824 314.777C308.824 314.461 309.035 314.249 309.352 314.249C309.669 314.249 309.88 314.461 309.88 314.777C309.88 315.094 309.669 315.306 309.352 315.306C309.035 315.306 308.824 315.094 308.824 314.777ZM302.488 314.777C302.488 314.461 302.699 314.249 303.016 314.249C303.333 314.249 303.544 314.461 303.544 314.777C303.544 315.094 303.333 315.306 303.016 315.306C302.699 315.306 302.488 315.094 302.488 314.777ZM296.152 314.777C296.152 314.461 296.469 314.249 296.68 314.249C296.997 314.249 297.208 314.461 297.208 314.777C297.208 315.094 296.997 315.306 296.68 315.306C296.469 315.306 296.152 315.094 296.152 314.777ZM289.816 314.777C289.816 314.461 290.133 314.249 290.344 314.249C290.661 314.249 290.872 314.461 290.872 314.777C290.872 315.094 290.661 315.306 290.344 315.306C290.133 315.306 289.816 315.094 289.816 314.777ZM283.586 314.777C283.586 314.461 283.797 314.249 284.114 314.249C284.325 314.249 284.642 314.461 284.642 314.777C284.642 315.094 284.325 315.306 284.114 315.306C283.797 315.306 283.586 315.094 283.586 314.777ZM277.25 314.777C277.25 314.461 277.461 314.249 277.778 314.249C277.989 314.249 278.306 314.461 278.306 314.777C278.306 315.094 277.989 315.306 277.778 315.306C277.461 315.306 277.25 315.094 277.25 314.777ZM270.914 314.777C270.914 314.461 271.125 314.249 271.442 314.249C271.759 314.249 271.97 314.461 271.97 314.777C271.97 315.094 271.759 315.306 271.442 315.306C271.125 315.306 270.914 315.094 270.914 314.777ZM264.578 314.777C264.578 314.461 264.789 314.249 265.106 314.249C265.423 314.249 265.634 314.461 265.634 314.777C265.634 315.094 265.423 315.306 265.106 315.306C264.789 315.306 264.578 315.094 264.578 314.777ZM258.242 314.777C258.242 314.461 258.453 314.249 258.77 314.249C259.087 314.249 259.298 314.461 259.298 314.777C259.298 315.094 259.087 315.306 258.77 315.306C258.453 315.306 258.242 315.094 258.242 314.777ZM251.906 314.777C251.906 314.461 252.117 314.249 252.434 314.249C252.751 314.249 252.962 314.461 252.962 314.777C252.962 315.094 252.751 315.306 252.434 315.306C252.117 315.306 251.906 315.094 251.906 314.777ZM245.57 314.777C245.57 314.461 245.887 314.249 246.098 314.249C246.415 314.249 246.626 314.461 246.626 314.777C246.626 315.094 246.415 315.306 246.098 315.306C245.887 315.306 245.57 315.094 245.57 314.777ZM239.234 314.777C239.234 314.461 239.551 314.249 239.762 314.249C240.079 314.249 240.29 314.461 240.29 314.777C240.29 315.094 240.079 315.306 239.762 315.306C239.551 315.306 239.234 315.094 239.234 314.777ZM233.003 314.777C233.003 314.461 233.215 314.249 233.531 314.249C233.743 314.249 234.059 314.461 234.059 314.777C234.059 315.094 233.743 315.306 233.531 315.306C233.215 315.306 233.003 315.094 233.003 314.777ZM226.667 314.777C226.667 314.461 226.879 314.249 227.195 314.249C227.512 314.249 227.723 314.461 227.723 314.777C227.723 315.094 227.512 315.306 227.195 315.306C226.879 315.306 226.667 315.094 226.667 314.777ZM220.331 314.777C220.331 314.461 220.543 314.249 220.859 314.249C221.176 314.249 221.387 314.461 221.387 314.777C221.387 315.094 221.176 315.306 220.859 315.306C220.543 315.306 220.331 315.094 220.331 314.777ZM213.995 314.777C213.995 314.461 214.207 314.249 214.523 314.249C214.84 314.249 215.051 314.461 215.051 314.777C215.051 315.094 214.84 315.306 214.523 315.306C214.207 315.306 213.995 315.094 213.995 314.777ZM207.659 314.777C207.659 314.461 207.871 314.249 208.187 314.249C208.504 314.249 208.715 314.461 208.715 314.777C208.715 315.094 208.504 315.306 208.187 315.306C207.871 315.306 207.659 315.094 207.659 314.777ZM201.323 314.777C201.323 314.461 201.64 314.249 201.851 314.249C202.168 314.249 202.379 314.461 202.379 314.777C202.379 315.094 202.168 315.306 201.851 315.306C201.64 315.306 201.323 315.094 201.323 314.777ZM194.987 314.777C194.987 314.461 195.304 314.249 195.515 314.249C195.832 314.249 196.043 314.461 196.043 314.777C196.043 315.094 195.832 315.306 195.515 315.306C195.304 315.306 194.987 315.094 194.987 314.777ZM188.651 314.777C188.651 314.461 188.968 314.249 189.179 314.249C189.496 314.249 189.707 314.461 189.707 314.777C189.707 315.094 189.496 315.306 189.179 315.306C188.968 315.306 188.651 315.094 188.651 314.777ZM182.421 314.777C182.421 314.461 182.632 314.249 182.949 314.249C183.16 314.249 183.477 314.461 183.477 314.777C183.477 315.094 183.16 315.306 182.949 315.306C182.632 315.306 182.421 315.094 182.421 314.777Z" fill="#E0E0E0"/>
<path d="M176.613 315.306C176.543 315.306 176.472 315.306 176.402 315.306C176.331 315.235 176.261 315.165 176.191 315.094C176.191 315.094 176.155 315.059 176.085 314.989C176.085 314.918 176.085 314.848 176.085 314.777C176.085 314.707 176.085 314.637 176.085 314.566C176.155 314.496 176.191 314.425 176.191 314.355C176.261 314.355 176.331 314.32 176.402 314.249C176.543 314.249 176.683 314.249 176.824 314.249C176.895 314.32 176.93 314.355 176.93 314.355C177 314.425 177.035 314.496 177.035 314.566C177.106 314.637 177.141 314.707 177.141 314.777C177.141 314.848 177.106 314.918 177.035 314.989C177.035 315.059 177 315.094 176.93 315.094C176.93 315.165 176.895 315.235 176.824 315.306C176.754 315.306 176.683 315.306 176.613 315.306V315.306Z" fill="#E0E0E0"/>
<path d="M176.085 308.017C176.085 307.7 176.296 307.489 176.613 307.489C176.824 307.489 177.141 307.7 177.141 308.017C177.141 308.334 176.824 308.545 176.613 308.545C176.296 308.545 176.085 308.334 176.085 308.017ZM176.085 301.257C176.085 300.94 176.296 300.729 176.613 300.729C176.824 300.729 177.141 300.94 177.141 301.257C177.141 301.574 176.824 301.785 176.613 301.785C176.296 301.785 176.085 301.574 176.085 301.257ZM176.085 294.496C176.085 294.18 176.296 293.968 176.613 293.968C176.824 293.968 177.141 294.18 177.141 294.496C177.141 294.813 176.824 295.025 176.613 295.025C176.296 295.025 176.085 294.813 176.085 294.496ZM176.085 287.736C176.085 287.419 176.296 287.208 176.613 287.208C176.824 287.208 177.141 287.419 177.141 287.736C177.141 288.053 176.824 288.264 176.613 288.264C176.296 288.264 176.085 288.053 176.085 287.736Z" fill="#E0E0E0"/>
<path d="M176.613 281.504C176.543 281.504 176.472 281.504 176.402 281.504C176.331 281.434 176.261 281.363 176.191 281.293C176.191 281.293 176.155 281.258 176.085 281.187C176.085 281.117 176.085 281.046 176.085 280.976C176.085 280.835 176.12 280.694 176.191 280.553C176.261 280.553 176.331 280.518 176.402 280.448C176.543 280.448 176.683 280.448 176.824 280.448C176.895 280.518 176.93 280.553 176.93 280.553C177.071 280.694 177.141 280.835 177.141 280.976C177.141 281.046 177.106 281.117 177.035 281.187C177.035 281.258 177 281.293 176.93 281.293C176.93 281.363 176.895 281.434 176.824 281.504C176.754 281.504 176.683 281.504 176.613 281.504V281.504Z" fill="#E0E0E0"/>
<path d="M176.613 155.91C176.543 155.91 176.472 155.91 176.402 155.91C176.331 155.84 176.261 155.804 176.191 155.804C176.191 155.734 176.155 155.663 176.085 155.593C176.085 155.523 176.085 155.452 176.085 155.382C176.085 155.311 176.085 155.241 176.085 155.171C176.155 155.1 176.191 155.065 176.191 155.065C176.261 154.994 176.331 154.924 176.402 154.854C176.543 154.854 176.683 154.854 176.824 154.854C176.895 154.924 176.93 154.994 176.93 155.065C177 155.065 177.035 155.1 177.035 155.171C177.106 155.241 177.141 155.311 177.141 155.382C177.141 155.523 177.071 155.663 176.93 155.804C176.93 155.804 176.895 155.84 176.824 155.91C176.754 155.91 176.683 155.91 176.613 155.91V155.91Z" fill="#E0E0E0"/>
<path d="M176.085 182.106C176.085 181.789 176.296 181.472 176.613 181.472C176.824 181.472 177.141 181.789 177.141 182.106C177.141 182.317 176.824 182.634 176.613 182.634C176.296 182.634 176.085 182.317 176.085 182.106ZM176.085 175.346C176.085 175.135 176.296 174.818 176.613 174.818C176.824 174.818 177.141 175.135 177.141 175.346C177.141 175.663 176.824 175.874 176.613 175.874C176.296 175.874 176.085 175.663 176.085 175.346ZM176.085 168.691C176.085 168.48 176.296 168.163 176.613 168.163C176.824 168.163 177.141 168.48 177.141 168.691C177.141 169.008 176.824 169.219 176.613 169.219C176.296 169.219 176.085 169.008 176.085 168.691ZM176.085 162.036C176.085 161.72 176.296 161.508 176.613 161.508C176.824 161.508 177.141 161.72 177.141 162.036C177.141 162.353 176.824 162.565 176.613 162.565C176.296 162.565 176.085 162.353 176.085 162.036Z" fill="#E0E0E0"/>
<path d="M176.613 189.289C176.543 189.289 176.472 189.254 176.402 189.183C176.331 189.183 176.261 189.148 176.191 189.078C176.191 189.007 176.155 188.972 176.085 188.972C176.085 188.902 176.085 188.831 176.085 188.761C176.085 188.62 176.12 188.479 176.191 188.338C176.261 188.268 176.331 188.233 176.402 188.233C176.543 188.162 176.683 188.162 176.824 188.233C176.895 188.233 176.93 188.268 176.93 188.338C177.071 188.479 177.141 188.62 177.141 188.761C177.141 188.831 177.106 188.902 177.035 188.972C177.035 188.972 177 189.007 176.93 189.078C176.93 189.148 176.895 189.183 176.824 189.183C176.754 189.254 176.683 189.289 176.613 189.289V189.289Z" fill="#E0E0E0"/>
<path d="M52.0047 228.161C49.0479 155.91 147.256 122.636 221.493 116.087C323.08 107.109 363.208 165.417 356.977 215.485C352.648 250.343 330.577 303.264 240.184 314.883C116.315 330.833 55.1727 307.595 52.0047 228.161V228.161Z" fill="#FC8019"/>
<path opacity="0.9" d="M52.0047 228.161C49.0479 155.91 147.256 122.636 221.493 116.087C323.08 107.109 363.208 165.417 356.977 215.485C352.648 250.343 330.577 303.264 240.184 314.883C116.315 330.833 55.1727 307.595 52.0047 228.161V228.161Z" fill="white"/>
<path d="M65.2047 315.306L67.3167 279.075C67.4223 276.962 69.2175 275.272 71.3295 275.272H130.043C132.155 275.272 133.739 276.962 133.634 279.075L131.522 315.306C131.416 317.418 129.621 319.108 127.509 319.108H68.7951C66.6831 319.108 65.0991 317.418 65.2047 315.306V315.306Z" fill="#FC8019"/>
<path d="M62.2482 315.306L64.3601 279.075C64.4657 276.962 66.261 275.272 68.373 275.272H129.41C131.522 275.272 133.106 276.962 133 279.075L130.888 315.306C130.783 317.418 128.987 319.108 126.875 319.108H65.8386C63.7266 319.108 62.1426 317.418 62.2482 315.306V315.306Z" fill="white"/>
<path opacity="0.3" d="M62.2482 315.306L64.3601 279.075C64.4657 276.962 66.261 275.272 68.373 275.272H129.41C131.522 275.272 133.106 276.962 133 279.075L130.888 315.306C130.783 317.418 128.987 319.108 126.875 319.108H65.8386C63.7266 319.108 62.1426 317.418 62.2482 315.306V315.306Z" fill="#FC8019"/>
<path d="M87.2754 326.925V326.397C87.2754 324.284 88.965 322.594 91.077 322.594H113.147C115.259 322.594 117.055 324.284 117.055 326.397V326.925C117.055 329.038 115.259 330.728 113.147 330.728H91.077C88.965 330.728 87.2754 329.038 87.2754 326.925Z" fill="#FC8019"/>
<g opacity="0.6">
<path opacity="0.6" d="M87.2754 326.925V326.397C87.2754 324.284 88.965 322.594 91.077 322.594H113.147C115.259 322.594 117.055 324.284 117.055 326.397V326.925C117.055 329.038 115.259 330.728 113.147 330.728H91.077C88.965 330.728 87.2754 329.038 87.2754 326.925Z" fill="white"/>
</g>
<path d="M78.1934 326.925V326.397C78.1934 324.284 79.9886 322.594 82.1006 322.594H106.494C108.606 322.594 110.296 324.284 110.296 326.397V326.925C110.296 329.038 108.606 330.728 106.494 330.728H82.1006C79.9886 330.728 78.1934 329.038 78.1934 326.925Z" fill="white"/>
<path opacity="0.3" d="M78.1934 326.925V326.397C78.1934 324.284 79.9886 322.594 82.1006 322.594H106.494C108.606 322.594 110.296 324.284 110.296 326.397V326.925C110.296 329.038 108.606 330.728 106.494 330.728H82.1006C79.9886 330.728 78.1934 329.038 78.1934 326.925Z" fill="#FC8019"/>
<path opacity="0.9" d="M127.72 317.207H65.2049C64.2545 317.207 63.5153 316.468 63.6209 315.623L65.7329 278.863C65.7329 277.913 66.5777 277.173 67.5281 277.173H130.043C130.994 277.173 131.627 277.913 131.627 278.863L129.515 315.623C129.515 316.468 128.67 317.207 127.72 317.207Z" fill="white"/>
<path opacity="0.1" d="M83.2626 317.207H70.8018L82.2066 277.173H94.5618L83.2626 317.207Z" fill="#FC8019"/>
<path opacity="0.1" d="M93.3999 317.207H84.7407L96.1455 277.173H104.805L93.3999 317.207Z" fill="#FC8019"/>
<path opacity="0.1" d="M112.302 317.207H103.643L115.048 277.173H123.707L112.302 317.207Z" fill="#FC8019"/>
<path d="M166.264 315.306L168.376 279.075C168.481 276.962 170.277 275.272 172.389 275.272H231.102C233.214 275.272 234.798 276.962 234.693 279.075L232.581 315.306C232.475 317.418 230.68 319.108 228.568 319.108H169.854C167.742 319.108 166.158 317.418 166.264 315.306Z" fill="#FC8019"/>
<path d="M163.307 315.306L165.419 279.075C165.525 276.962 167.32 275.272 169.432 275.272H230.469C232.581 275.272 234.165 276.962 234.059 279.075L232.053 315.306C231.842 317.418 230.046 319.108 227.934 319.108H166.898C164.786 319.108 163.202 317.418 163.307 315.306V315.306Z" fill="white"/>
<path opacity="0.3" d="M163.307 315.306L165.419 279.075C165.525 276.962 167.32 275.272 169.432 275.272H230.469C232.581 275.272 234.165 276.962 234.059 279.075L232.053 315.306C231.842 317.418 230.046 319.108 227.934 319.108H166.898C164.786 319.108 163.202 317.418 163.307 315.306V315.306Z" fill="#FC8019"/>
<path d="M188.334 326.925V326.397C188.334 324.284 190.13 322.594 192.242 322.594H214.312C216.424 322.594 218.114 324.284 218.114 326.397V326.925C218.114 329.038 216.424 330.728 214.312 330.728H192.242C190.13 330.728 188.334 329.038 188.334 326.925Z" fill="#FC8019"/>
<g opacity="0.6">
<path opacity="0.6" d="M188.334 326.925V326.397C188.334 324.284 190.13 322.594 192.242 322.594H214.312C216.424 322.594 218.114 324.284 218.114 326.397V326.925C218.114 329.038 216.424 330.728 214.312 330.728H192.242C190.13 330.728 188.334 329.038 188.334 326.925Z" fill="white"/>
</g>
<path d="M179.253 326.925V326.397C179.253 324.284 181.048 322.594 183.16 322.594H207.554C209.666 322.594 211.355 324.284 211.355 326.397V326.925C211.355 329.038 209.666 330.728 207.554 330.728H183.16C181.048 330.728 179.253 329.038 179.253 326.925V326.925Z" fill="white"/>
<path opacity="0.3" d="M179.253 326.925V326.397C179.253 324.284 181.048 322.594 183.16 322.594H207.554C209.666 322.594 211.355 324.284 211.355 326.397V326.925C211.355 329.038 209.666 330.728 207.554 330.728H183.16C181.048 330.728 179.253 329.038 179.253 326.925V326.925Z" fill="#FC8019"/>
<path opacity="0.9" d="M228.779 317.207H166.264C165.314 317.207 164.68 316.468 164.68 315.623L166.792 278.863C166.898 277.913 167.637 277.173 168.587 277.173H231.103C232.053 277.173 232.792 277.913 232.687 278.863L230.575 315.623C230.575 316.468 229.73 317.207 228.779 317.207Z" fill="white"/>
<path opacity="0.1" d="M184.322 317.207H171.861L183.266 277.173H195.726L184.322 317.207Z" fill="#FC8019"/>
<path opacity="0.1" d="M194.459 317.207H185.8L197.205 277.173H205.864L194.459 317.207Z" fill="#FC8019"/>
<path opacity="0.1" d="M213.467 317.207H204.702L216.107 277.173H224.766L213.467 317.207Z" fill="#FC8019"/>
<path d="M267.323 315.306L269.435 279.075C269.541 276.962 271.336 275.272 273.448 275.272H332.162C334.274 275.272 335.858 276.962 335.752 279.075L333.64 315.306C333.535 317.418 331.739 319.108 329.627 319.108H271.019C268.802 319.108 267.218 317.418 267.323 315.306Z" fill="#FC8019"/>
<path d="M264.366 315.306L266.478 279.075C266.584 276.962 268.379 275.272 270.491 275.272H331.528C333.64 275.272 335.224 276.962 335.118 279.075L333.112 315.306C333.006 317.418 331.106 319.108 328.994 319.108H267.957C265.845 319.108 264.261 317.418 264.366 315.306V315.306Z" fill="white"/>
<path opacity="0.3" d="M264.366 315.306L266.478 279.075C266.584 276.962 268.379 275.272 270.491 275.272H331.528C333.64 275.272 335.224 276.962 335.118 279.075L333.112 315.306C333.006 317.418 331.106 319.108 328.994 319.108H267.957C265.845 319.108 264.261 317.418 264.366 315.306V315.306Z" fill="#FC8019"/>
<path d="M289.394 326.925V326.397C289.394 324.284 291.189 322.594 293.301 322.594H315.371C317.483 322.594 319.173 324.284 319.173 326.397V326.925C319.173 329.038 317.483 330.728 315.371 330.728H293.301C291.189 330.728 289.394 329.038 289.394 326.925Z" fill="#FC8019"/>
<g opacity="0.6">
<path opacity="0.6" d="M289.394 326.925V326.397C289.394 324.284 291.189 322.594 293.301 322.594H315.371C317.483 322.594 319.173 324.284 319.173 326.397V326.925C319.173 329.038 317.483 330.728 315.371 330.728H293.301C291.189 330.728 289.394 329.038 289.394 326.925Z" fill="white"/>
</g>
<path d="M280.417 326.925V326.397C280.417 324.284 282.107 322.594 284.219 322.594H308.613C310.725 322.594 312.414 324.284 312.414 326.397V326.925C312.414 329.038 310.725 330.728 308.613 330.728H284.219C282.107 330.728 280.417 329.038 280.417 326.925Z" fill="white"/>
<path opacity="0.3" d="M280.417 326.925V326.397C280.417 324.284 282.107 322.594 284.219 322.594H308.613C310.725 322.594 312.414 324.284 312.414 326.397V326.925C312.414 329.038 310.725 330.728 308.613 330.728H284.219C282.107 330.728 280.417 329.038 280.417 326.925Z" fill="#FC8019"/>
<path opacity="0.9" d="M329.838 317.207H267.323C266.373 317.207 265.739 316.468 265.739 315.623L267.851 278.863C267.957 277.913 268.696 277.173 269.646 277.173H332.162C333.112 277.173 333.851 277.913 333.746 278.863L331.634 315.623C331.634 316.468 330.789 317.207 329.838 317.207Z" fill="white"/>
<path opacity="0.1" d="M285.381 317.207H272.92L284.325 277.173H296.786L285.381 317.207Z" fill="#FC8019"/>
<path opacity="0.1" d="M295.519 317.207H286.859L298.264 277.173H306.923L295.519 317.207Z" fill="#FC8019"/>
<path opacity="0.1" d="M314.526 317.207H305.867L317.166 277.173H325.931L314.526 317.207Z" fill="#FC8019"/>
<path d="M97.3073 268.089C97.2369 268.089 97.1665 268.089 97.0961 268.089C97.0257 268.019 96.9553 267.948 96.8849 267.878C96.8849 267.878 96.8497 267.843 96.7793 267.772C96.7793 267.702 96.7793 267.631 96.7793 267.561C96.7793 267.42 96.8145 267.279 96.8849 267.138C97.0961 267.033 97.3073 267.033 97.5185 267.033C97.5889 267.103 97.6241 267.138 97.6241 267.138C97.6945 267.209 97.7297 267.279 97.7297 267.35C97.8001 267.42 97.8353 267.49 97.8353 267.561C97.8353 267.631 97.8001 267.702 97.7297 267.772C97.7297 267.843 97.6945 267.878 97.6241 267.878C97.6241 267.948 97.5889 268.019 97.5185 268.089C97.4481 268.089 97.3777 268.089 97.3073 268.089V268.089Z" fill="#FC8019"/>
<path d="M96.7793 263.653C96.7793 263.441 96.9905 263.124 97.3073 263.124C97.6241 263.124 97.8353 263.441 97.8353 263.653C97.8353 263.969 97.6241 264.181 97.3073 264.181C96.9905 264.181 96.7793 263.969 96.7793 263.653Z" fill="#FC8019"/>
<path d="M97.3073 260.378C97.1665 260.378 97.0257 260.308 96.8849 260.167C96.8849 260.167 96.8497 260.132 96.7793 260.061C96.7793 259.991 96.7793 259.92 96.7793 259.85C96.7793 259.709 96.8145 259.568 96.8849 259.427C97.0961 259.322 97.3073 259.216 97.5185 259.322C97.5889 259.322 97.6241 259.357 97.6241 259.427C97.6945 259.498 97.7297 259.568 97.7297 259.639C97.8001 259.709 97.8353 259.779 97.8353 259.85C97.8353 259.92 97.8001 259.991 97.7297 260.061C97.7297 260.132 97.6945 260.167 97.6241 260.167C97.6241 260.237 97.5889 260.272 97.5185 260.272C97.4481 260.343 97.3777 260.378 97.3073 260.378V260.378Z" fill="#FC8019"/>
<path d="M194.248 259.85C194.248 259.533 194.459 259.322 194.776 259.322C195.093 259.322 195.304 259.533 195.304 259.85C195.304 260.061 195.093 260.378 194.776 260.378C194.459 260.378 194.248 260.061 194.248 259.85ZM190.024 259.85C190.024 259.533 190.235 259.322 190.552 259.322C190.763 259.322 191.08 259.533 191.08 259.85C191.08 260.061 190.763 260.378 190.552 260.378C190.235 260.378 190.024 260.061 190.024 259.85ZM185.8 259.85C185.8 259.533 186.011 259.322 186.328 259.322C186.539 259.322 186.856 259.533 186.856 259.85C186.856 260.061 186.539 260.378 186.328 260.378C186.011 260.378 185.8 260.061 185.8 259.85ZM181.576 259.85C181.576 259.533 181.787 259.322 182.104 259.322C182.315 259.322 182.527 259.533 182.527 259.85C182.527 260.061 182.315 260.378 182.104 260.378C181.787 260.378 181.576 260.061 181.576 259.85ZM177.247 259.85C177.247 259.533 177.563 259.322 177.775 259.322C178.091 259.322 178.303 259.533 178.303 259.85C178.303 260.061 178.091 260.378 177.775 260.378C177.563 260.378 177.247 260.061 177.247 259.85ZM173.023 259.85C173.023 259.533 173.234 259.322 173.551 259.322C173.867 259.322 174.079 259.533 174.079 259.85C174.079 260.061 173.867 260.378 173.551 260.378C173.234 260.378 173.023 260.061 173.023 259.85ZM168.799 259.85C168.799 259.533 169.01 259.322 169.327 259.322C169.643 259.322 169.855 259.533 169.855 259.85C169.855 260.061 169.643 260.378 169.327 260.378C169.01 260.378 168.799 260.061 168.799 259.85ZM164.575 259.85C164.575 259.533 164.786 259.322 165.103 259.322C165.419 259.322 165.631 259.533 165.631 259.85C165.631 260.061 165.419 260.378 165.103 260.378C164.786 260.378 164.575 260.061 164.575 259.85ZM160.351 259.85C160.351 259.533 160.562 259.322 160.879 259.322C161.09 259.322 161.407 259.533 161.407 259.85C161.407 260.061 161.09 260.378 160.879 260.378C160.562 260.378 160.351 260.061 160.351 259.85ZM156.127 259.85C156.127 259.533 156.338 259.322 156.655 259.322C156.866 259.322 157.183 259.533 157.183 259.85C157.183 260.061 156.866 260.378 156.655 260.378C156.338 260.378 156.127 260.061 156.127 259.85ZM151.797 259.85C151.797 259.533 152.114 259.322 152.325 259.322C152.642 259.322 152.853 259.533 152.853 259.85C152.853 260.061 152.642 260.378 152.325 260.378C152.114 260.378 151.797 260.061 151.797 259.85ZM147.573 259.85C147.573 259.533 147.89 259.322 148.101 259.322C148.418 259.322 148.629 259.533 148.629 259.85C148.629 260.061 148.418 260.378 148.101 260.378C147.89 260.378 147.573 260.061 147.573 259.85ZM143.349 259.85C143.349 259.533 143.56 259.322 143.877 259.322C144.194 259.322 144.405 259.533 144.405 259.85C144.405 260.061 144.194 260.378 143.877 260.378C143.56 260.378 143.349 260.061 143.349 259.85ZM139.125 259.85C139.125 259.533 139.336 259.322 139.653 259.322C139.97 259.322 140.181 259.533 140.181 259.85C140.181 260.061 139.97 260.378 139.653 260.378C139.336 260.378 139.125 260.061 139.125 259.85ZM134.901 259.85C134.901 259.533 135.112 259.322 135.429 259.322C135.746 259.322 135.957 259.533 135.957 259.85C135.957 260.061 135.746 260.378 135.429 260.378C135.112 260.378 134.901 260.061 134.901 259.85ZM130.677 259.85C130.677 259.533 130.888 259.322 131.205 259.322C131.522 259.322 131.733 259.533 131.733 259.85C131.733 260.061 131.522 260.378 131.205 260.378C130.888 260.378 130.677 260.061 130.677 259.85ZM126.453 259.85C126.453 259.533 126.664 259.322 126.981 259.322C127.192 259.322 127.509 259.533 127.509 259.85C127.509 260.061 127.192 260.378 126.981 260.378C126.664 260.378 126.453 260.061 126.453 259.85ZM122.229 259.85C122.229 259.533 122.44 259.322 122.757 259.322C122.968 259.322 123.285 259.533 123.285 259.85C123.285 260.061 122.968 260.378 122.757 260.378C122.44 260.378 122.229 260.061 122.229 259.85ZM117.899 259.85C117.899 259.533 118.216 259.322 118.427 259.322C118.744 259.322 118.955 259.533 118.955 259.85C118.955 260.061 118.744 260.378 118.427 260.378C118.216 260.378 117.899 260.061 117.899 259.85ZM113.675 259.85C113.675 259.533 113.992 259.322 114.203 259.322C114.52 259.322 114.731 259.533 114.731 259.85C114.731 260.061 114.52 260.378 114.203 260.378C113.992 260.378 113.675 260.061 113.675 259.85ZM109.451 259.85C109.451 259.533 109.663 259.322 109.979 259.322C110.296 259.322 110.507 259.533 110.507 259.85C110.507 260.061 110.296 260.378 109.979 260.378C109.663 260.378 109.451 260.061 109.451 259.85ZM105.227 259.85C105.227 259.533 105.439 259.322 105.755 259.322C106.072 259.322 106.283 259.533 106.283 259.85C106.283 260.061 106.072 260.378 105.755 260.378C105.439 260.378 105.227 260.061 105.227 259.85ZM101.003 259.85C101.003 259.533 101.215 259.322 101.531 259.322C101.848 259.322 102.059 259.533 102.059 259.85C102.059 260.061 101.848 260.378 101.531 260.378C101.215 260.378 101.003 260.061 101.003 259.85Z" fill="#FC8019"/>
<path d="M199 260.378C198.93 260.378 198.859 260.343 198.789 260.272C198.719 260.272 198.648 260.237 198.578 260.167C198.578 260.167 198.543 260.132 198.472 260.061C198.472 259.991 198.472 259.92 198.472 259.85C198.472 259.779 198.472 259.709 198.472 259.639C198.543 259.568 198.578 259.498 198.578 259.427C198.648 259.357 198.719 259.322 198.789 259.322C198.93 259.251 199.071 259.251 199.211 259.322C199.282 259.322 199.317 259.357 199.317 259.427C199.458 259.568 199.528 259.709 199.528 259.85C199.528 259.92 199.528 259.991 199.528 260.061C199.458 260.132 199.387 260.167 199.317 260.167C199.317 260.237 199.282 260.272 199.211 260.272C199.141 260.343 199.071 260.378 199 260.378V260.378Z" fill="#FC8019"/>
<path d="M199 260.378C198.93 260.378 198.859 260.343 198.789 260.272C198.719 260.272 198.648 260.237 198.578 260.167C198.578 260.167 198.543 260.132 198.472 260.061C198.472 259.991 198.472 259.92 198.472 259.85C198.472 259.779 198.472 259.709 198.472 259.639C198.543 259.568 198.578 259.498 198.578 259.427C198.648 259.357 198.719 259.322 198.789 259.322C198.93 259.251 199.071 259.251 199.211 259.322C199.282 259.322 199.317 259.357 199.317 259.427C199.458 259.568 199.528 259.709 199.528 259.85C199.528 259.92 199.528 259.991 199.528 260.061C199.458 260.132 199.387 260.167 199.317 260.167C199.317 260.237 199.282 260.272 199.211 260.272C199.141 260.343 199.071 260.378 199 260.378V260.378Z" fill="#FC8019"/>
<path d="M198.472 256.153C198.472 255.836 198.683 255.625 199 255.625C199.317 255.625 199.528 255.836 199.528 256.153C199.528 256.47 199.317 256.681 199 256.681C198.683 256.681 198.472 256.47 198.472 256.153ZM198.472 252.456C198.472 252.139 198.683 251.928 199 251.928C199.317 251.928 199.528 252.139 199.528 252.456C199.528 252.773 199.317 252.984 199 252.984C198.683 252.984 198.472 252.773 198.472 252.456ZM198.472 248.864C198.472 248.547 198.683 248.336 199 248.336C199.317 248.336 199.528 248.547 199.528 248.864C199.528 249.076 199.317 249.392 199 249.392C198.683 249.392 198.472 249.076 198.472 248.864Z" fill="#FC8019"/>
<path d="M199 245.695C198.859 245.695 198.719 245.625 198.578 245.484C198.578 245.484 198.543 245.449 198.472 245.379C198.472 245.308 198.472 245.238 198.472 245.167C198.472 245.097 198.472 245.026 198.472 244.956C198.543 244.886 198.578 244.815 198.578 244.745C198.648 244.745 198.719 244.71 198.789 244.639C198.93 244.569 199.071 244.569 199.211 244.639C199.282 244.71 199.317 244.745 199.317 244.745C199.387 244.815 199.458 244.886 199.528 244.956C199.528 245.026 199.528 245.097 199.528 245.167C199.528 245.238 199.528 245.308 199.528 245.379C199.458 245.449 199.387 245.484 199.317 245.484C199.247 245.625 199.141 245.695 199 245.695V245.695Z" fill="#FC8019"/>
<path d="M199 260.378C198.93 260.378 198.859 260.343 198.789 260.272C198.719 260.272 198.648 260.237 198.578 260.167C198.578 260.167 198.543 260.132 198.472 260.061C198.472 259.991 198.472 259.92 198.472 259.85C198.472 259.779 198.472 259.709 198.472 259.639C198.543 259.568 198.578 259.498 198.578 259.427C198.648 259.357 198.719 259.322 198.789 259.322C198.93 259.251 199.071 259.251 199.211 259.322C199.282 259.322 199.317 259.357 199.317 259.427C199.458 259.568 199.528 259.709 199.528 259.85C199.528 259.92 199.528 259.991 199.528 260.061C199.458 260.132 199.387 260.167 199.317 260.167C199.317 260.237 199.282 260.272 199.211 260.272C199.141 260.343 199.071 260.378 199 260.378V260.378Z" fill="#FC8019"/>
<path d="M198.472 263.653C198.472 263.441 198.683 263.124 199 263.124C199.317 263.124 199.528 263.441 199.528 263.653C199.528 263.969 199.317 264.181 199 264.181C198.683 264.181 198.472 263.969 198.472 263.653Z" fill="#FC8019"/>
<path d="M199 268.089C198.859 268.089 198.719 268.019 198.578 267.878C198.578 267.878 198.543 267.843 198.472 267.772C198.472 267.702 198.472 267.631 198.472 267.561C198.472 267.49 198.472 267.42 198.472 267.35C198.543 267.279 198.578 267.209 198.578 267.138C198.789 267.033 199.211 266.927 199.317 267.138C199.387 267.209 199.458 267.279 199.528 267.35C199.528 267.42 199.528 267.49 199.528 267.561C199.528 267.631 199.528 267.702 199.528 267.772C199.458 267.843 199.387 267.878 199.317 267.878C199.247 268.019 199.141 268.089 199 268.089V268.089Z" fill="#FC8019"/>
<path d="M300.693 268.089C300.552 268.089 300.447 268.019 300.376 267.878C300.235 267.807 300.165 267.702 300.165 267.561C300.165 267.42 300.235 267.279 300.376 267.138C300.482 267.033 300.904 266.927 301.115 267.138C301.115 267.209 301.151 267.279 301.221 267.35C301.221 267.42 301.221 267.49 301.221 267.561C301.221 267.702 301.186 267.807 301.115 267.878C300.975 268.019 300.834 268.089 300.693 268.089V268.089Z" fill="#FC8019"/>
<path d="M300.165 263.653C300.165 263.441 300.376 263.124 300.693 263.124C301.01 263.124 301.221 263.441 301.221 263.653C301.221 263.969 301.01 264.181 300.693 264.181C300.376 264.181 300.165 263.969 300.165 263.653Z" fill="#FC8019"/>
<path d="M300.693 260.378C300.552 260.378 300.447 260.308 300.376 260.167C300.235 260.096 300.165 259.991 300.165 259.85C300.165 259.709 300.235 259.568 300.376 259.427C300.482 259.216 300.904 259.216 301.115 259.427C301.186 259.568 301.221 259.709 301.221 259.85C301.221 259.991 301.186 260.096 301.115 260.167C300.975 260.308 300.834 260.378 300.693 260.378Z" fill="#FC8019"/>
<path d="M295.941 259.85C295.941 259.533 296.152 259.322 296.469 259.322C296.785 259.322 296.997 259.533 296.997 259.85C296.997 260.061 296.785 260.378 296.469 260.378C296.152 260.378 295.941 260.061 295.941 259.85ZM291.717 259.85C291.717 259.533 291.928 259.322 292.245 259.322C292.561 259.322 292.773 259.533 292.773 259.85C292.773 260.061 292.561 260.378 292.245 260.378C291.928 260.378 291.717 260.061 291.717 259.85ZM287.493 259.85C287.493 259.533 287.704 259.322 288.021 259.322C288.337 259.322 288.549 259.533 288.549 259.85C288.549 260.061 288.337 260.378 288.021 260.378C287.704 260.378 287.493 260.061 287.493 259.85ZM283.269 259.85C283.269 259.533 283.48 259.322 283.797 259.322C284.008 259.322 284.325 259.533 284.325 259.85C284.325 260.061 284.008 260.378 283.797 260.378C283.48 260.378 283.269 260.061 283.269 259.85ZM278.939 259.85C278.939 259.533 279.256 259.322 279.467 259.322C279.784 259.322 280.101 259.533 280.101 259.85C280.101 260.061 279.784 260.378 279.467 260.378C279.256 260.378 278.939 260.061 278.939 259.85ZM274.715 259.85C274.715 259.533 275.032 259.322 275.243 259.322C275.56 259.322 275.771 259.533 275.771 259.85C275.771 260.061 275.56 260.378 275.243 260.378C275.032 260.378 274.715 260.061 274.715 259.85ZM270.491 259.85C270.491 259.533 270.808 259.322 271.019 259.322C271.336 259.322 271.547 259.533 271.547 259.85C271.547 260.061 271.336 260.378 271.019 260.378C270.808 260.378 270.491 260.061 270.491 259.85ZM266.267 259.85C266.267 259.533 266.478 259.322 266.795 259.322C267.112 259.322 267.323 259.533 267.323 259.85C267.323 260.061 267.112 260.378 266.795 260.378C266.478 260.378 266.267 260.061 266.267 259.85ZM262.043 259.85C262.043 259.533 262.254 259.322 262.571 259.322C262.888 259.322 263.099 259.533 263.099 259.85C263.099 260.061 262.888 260.378 262.571 260.378C262.254 260.378 262.043 260.061 262.043 259.85ZM257.819 259.85C257.819 259.533 258.03 259.322 258.347 259.322C258.664 259.322 258.875 259.533 258.875 259.85C258.875 260.061 258.664 260.378 258.347 260.378C258.03 260.378 257.819 260.061 257.819 259.85ZM253.595 259.85C253.595 259.533 253.806 259.322 254.123 259.322C254.44 259.322 254.651 259.533 254.651 259.85C254.651 260.061 254.44 260.378 254.123 260.378C253.806 260.378 253.595 260.061 253.595 259.85ZM249.371 259.85C249.371 259.533 249.582 259.322 249.899 259.322C250.11 259.322 250.427 259.533 250.427 259.85C250.427 260.061 250.11 260.378 249.899 260.378C249.582 260.378 249.371 260.061 249.371 259.85ZM245.041 259.85C245.041 259.533 245.358 259.322 245.569 259.322C245.886 259.322 246.097 259.533 246.097 259.85C246.097 260.061 245.886 260.378 245.569 260.378C245.358 260.378 245.041 260.061 245.041 259.85ZM240.817 259.85C240.817 259.533 241.134 259.322 241.345 259.322C241.662 259.322 241.873 259.533 241.873 259.85C241.873 260.061 241.662 260.378 241.345 260.378C241.134 260.378 240.817 260.061 240.817 259.85ZM236.593 259.85C236.593 259.533 236.805 259.322 237.121 259.322C237.438 259.322 237.649 259.533 237.649 259.85C237.649 260.061 237.438 260.378 237.121 260.378C236.805 260.378 236.593 260.061 236.593 259.85ZM232.369 259.85C232.369 259.533 232.581 259.322 232.897 259.322C233.214 259.322 233.425 259.533 233.425 259.85C233.425 260.061 233.214 260.378 232.897 260.378C232.581 260.378 232.369 260.061 232.369 259.85ZM228.145 259.85C228.145 259.533 228.357 259.322 228.673 259.322C228.99 259.322 229.201 259.533 229.201 259.85C229.201 260.061 228.99 260.378 228.673 260.378C228.357 260.378 228.145 260.061 228.145 259.85ZM223.921 259.85C223.921 259.533 224.133 259.322 224.449 259.322C224.766 259.322 224.977 259.533 224.977 259.85C224.977 260.061 224.766 260.378 224.449 260.378C224.133 260.378 223.921 260.061 223.921 259.85ZM219.697 259.85C219.697 259.533 219.909 259.322 220.225 259.322C220.437 259.322 220.753 259.533 220.753 259.85C220.753 260.061 220.437 260.378 220.225 260.378C219.909 260.378 219.697 260.061 219.697 259.85ZM215.368 259.85C215.368 259.533 215.685 259.322 215.896 259.322C216.213 259.322 216.529 259.533 216.529 259.85C216.529 260.061 216.213 260.378 215.896 260.378C215.685 260.378 215.368 260.061 215.368 259.85ZM211.144 259.85C211.144 259.533 211.461 259.322 211.672 259.322C211.989 259.322 212.2 259.533 212.2 259.85C212.2 260.061 211.989 260.378 211.672 260.378C211.461 260.378 211.144 260.061 211.144 259.85ZM206.92 259.85C206.92 259.533 207.131 259.322 207.448 259.322C207.765 259.322 207.976 259.533 207.976 259.85C207.976 260.061 207.765 260.378 207.448 260.378C207.131 260.378 206.92 260.061 206.92 259.85ZM202.696 259.85C202.696 259.533 202.907 259.322 203.224 259.322C203.541 259.322 203.752 259.533 203.752 259.85C203.752 260.061 203.541 260.378 203.224 260.378C202.907 260.378 202.696 260.061 202.696 259.85Z" fill="#FC8019"/>
<path d="M199 260.378C198.93 260.378 198.859 260.343 198.789 260.272C198.719 260.272 198.648 260.237 198.578 260.167C198.578 260.167 198.543 260.132 198.472 260.061C198.472 259.991 198.472 259.92 198.472 259.85C198.472 259.779 198.472 259.709 198.472 259.639C198.543 259.568 198.578 259.498 198.578 259.427C198.648 259.357 198.719 259.322 198.789 259.322C198.93 259.251 199.071 259.251 199.211 259.322C199.282 259.322 199.317 259.357 199.317 259.427C199.458 259.568 199.528 259.709 199.528 259.85C199.528 259.92 199.528 259.991 199.528 260.061C199.458 260.132 199.387 260.167 199.317 260.167C199.317 260.237 199.282 260.272 199.211 260.272C199.141 260.343 199.071 260.378 199 260.378V260.378Z" fill="#FC8019"/>
<path d="M390.136 192.035C390.136 217.809 369.227 238.724 343.461 238.724H134.056C97.7295 238.724 68.2671 209.253 68.2671 172.916C68.2671 137.953 95.4063 109.433 129.726 107.214C133.317 91.2644 141.765 77.2156 153.592 66.7582V47.3223H204.385C232.792 47.3223 257.502 62.7442 270.702 85.666H296.785C331.633 85.666 359.829 113.764 360.145 148.41C377.675 155.171 390.136 172.071 390.136 192.035V192.035Z" fill="#FC8019"/>
<path opacity="0.7" d="M390.136 192.035C390.136 217.809 369.227 238.724 343.461 238.724H134.056C97.7295 238.724 68.2671 209.253 68.2671 172.916C68.2671 137.953 95.4063 109.433 129.726 107.214C133.317 91.2644 141.765 77.2156 153.592 66.7582V47.3223H204.385C232.792 47.3223 257.502 62.7442 270.702 85.666H296.785C331.633 85.666 359.829 113.764 360.145 148.41C377.675 155.171 390.136 172.071 390.136 192.035V192.035Z" fill="white"/>
<path d="M339.237 192.035C339.237 217.809 318.434 238.724 292.667 238.724H83.157C46.8306 238.724 17.3682 209.253 17.3682 172.916C17.3682 137.953 44.5074 109.433 78.933 107.214C86.5362 72.8847 117.055 47.3223 153.592 47.3223C183.794 47.3223 209.877 64.8569 222.232 90.3137C229.624 87.356 237.544 85.666 245.992 85.666C280.735 85.666 308.93 113.764 309.247 148.41C326.776 155.171 339.237 172.071 339.237 192.035V192.035Z" fill="#FC8019"/>
<path opacity="0.1" d="M390.136 192.035C390.136 217.809 369.227 238.724 343.461 238.724H134.056C97.7295 238.724 68.2671 209.253 68.2671 172.916C68.2671 137.953 95.4063 109.433 129.726 107.214C137.329 72.8847 167.848 47.3223 204.385 47.3223C234.587 47.3223 260.67 64.8569 273.131 90.3137C280.417 87.356 288.443 85.666 296.785 85.666C331.633 85.666 359.829 113.764 360.145 148.41C377.675 155.171 390.136 172.071 390.136 192.035V192.035Z" fill="white"/>
<path fill-rule="evenodd" clip-rule="evenodd" d="M292.667 239.675H83.1568C46.3024 239.675 16.312 209.781 16.312 172.916C16.312 137.953 43.4512 108.799 78.088 106.264C81.9952 89.5743 91.3936 74.4692 104.699 63.5893C118.427 52.3925 135.851 46.266 153.592 46.266C183.054 46.266 209.56 62.6386 222.76 88.9405C230.152 86.0885 237.966 84.6097 245.992 84.6097C280.84 84.6097 309.563 112.919 310.197 147.671C328.254 154.854 340.293 172.6 340.293 192.035C340.293 218.337 318.856 239.675 292.667 239.675ZM153.592 48.3786C118.427 48.3786 87.4864 73.2016 79.8832 107.426C79.7776 107.848 79.4608 108.165 78.9328 108.165C45.0352 110.383 18.424 138.798 18.424 172.916C18.424 208.619 47.464 237.668 83.1568 237.668H292.667C317.8 237.668 338.286 217.175 338.286 192.035C338.286 173.233 326.459 156.121 308.824 149.361C308.507 149.255 308.19 148.833 308.19 148.41C307.874 114.397 279.995 86.7223 245.992 86.7223C237.966 86.7223 230.046 88.2011 222.654 91.2644C222.126 91.37 221.598 91.1588 221.387 90.7362C208.61 64.54 182.632 48.3786 153.592 48.3786V48.3786Z" fill="#FC8019"/>
<path opacity="0.7" fill-rule="evenodd" clip-rule="evenodd" d="M292.667 239.675H83.1568C46.3024 239.675 16.312 209.781 16.312 172.916C16.312 137.953 43.4512 108.799 78.088 106.264C81.9952 89.5743 91.3936 74.4692 104.699 63.5893C118.427 52.3925 135.851 46.266 153.592 46.266C183.054 46.266 209.56 62.6386 222.76 88.9405C230.152 86.0885 237.966 84.6097 245.992 84.6097C280.84 84.6097 309.563 112.919 310.197 147.671C328.254 154.854 340.293 172.6 340.293 192.035C340.293 218.337 318.856 239.675 292.667 239.675ZM153.592 48.3786C118.427 48.3786 87.4864 73.2016 79.8832 107.426C79.7776 107.848 79.4608 108.165 78.9328 108.165C45.0352 110.383 18.424 138.798 18.424 172.916C18.424 208.619 47.464 237.668 83.1568 237.668H292.667C317.8 237.668 338.286 217.175 338.286 192.035C338.286 173.233 326.459 156.121 308.824 149.361C308.507 149.255 308.19 148.833 308.19 148.41C307.874 114.397 279.995 86.7223 245.992 86.7223C237.966 86.7223 230.046 88.2011 222.654 91.2644C222.126 91.37 221.598 91.1588 221.387 90.7362C208.61 64.54 182.632 48.3786 153.592 48.3786V48.3786Z" fill="white"/>
<path d="M126.875 145.347H143.665C146.305 145.347 148.312 147.46 148.312 149.995V233.02C148.312 235.555 146.305 237.668 143.665 237.668H126.875V145.347Z" fill="#E0E0E0"/>
<path d="M133.211 149.995V233.02C133.211 235.555 131.099 237.668 128.565 237.668H92.3438C89.7038 237.668 87.5918 235.555 87.5918 233.02V149.995C87.5918 147.46 89.7038 145.347 92.3438 145.347H128.565C131.099 145.347 133.211 147.46 133.211 149.995V149.995Z" fill="white"/>
<path d="M133.211 219.394H87.5918V218.549H133.211V219.394Z" fill="#E0E0E0"/>
<path d="M133.211 201.12H87.5918V200.275H133.211V201.12Z" fill="#E0E0E0"/>
<path d="M133.211 182.74H87.5918V181.895H133.211V182.74Z" fill="#E0E0E0"/>
<path d="M133.211 164.466H87.5918V163.621H133.211V164.466Z" fill="#E0E0E0"/>
<path opacity="0.6" d="M112.091 159.396C112.091 160.452 111.352 161.191 110.401 161.191H95.0895C94.1391 161.191 93.3999 160.452 93.3999 159.396C93.3999 158.445 94.1391 157.706 95.0895 157.706H110.401C111.352 157.706 112.091 158.445 112.091 159.396Z" fill="#FC8019"/>
<path opacity="0.6" d="M112.091 154.959C112.091 155.91 111.352 156.649 110.401 156.649H95.0895C94.1391 156.649 93.3999 155.91 93.3999 154.959C93.3999 154.009 94.1391 153.164 95.0895 153.164H110.401C111.352 153.164 112.091 154.009 112.091 154.959Z" fill="#FC8019"/>
<path opacity="0.6" d="M112.091 150.417C112.091 151.368 111.352 152.107 110.401 152.107H95.0895C94.1391 152.107 93.3999 151.368 93.3999 150.417C93.3999 149.466 94.1391 148.621 95.0895 148.621H110.401C111.352 148.621 112.091 149.466 112.091 150.417Z" fill="#FC8019"/>
<path d="M113.675 157.706H120.117V161.191H113.675V157.706Z" fill="#EBEBEB"/>
<path d="M113.675 153.164H120.117V156.649H113.675V153.164Z" fill="#FC8019"/>
<path d="M113.675 148.621H120.117V152.107H113.675V148.621Z" fill="#EBEBEB"/>
<path d="M121.067 157.706H127.509V161.191H121.067V157.706Z" fill="#EBEBEB"/>
<path d="M121.067 153.164H127.509V156.649H121.067V153.164Z" fill="#EBEBEB"/>
<path d="M121.067 148.621H127.509V152.107H121.067V148.621Z" fill="#FC8019"/>
<path d="M112.091 177.775C112.091 178.726 111.352 179.465 110.401 179.465H95.0895C94.1391 179.465 93.3999 178.726 93.3999 177.775C93.3999 176.825 94.1391 175.98 95.0895 175.98H110.401C111.352 175.98 112.091 176.825 112.091 177.775Z" fill="#EBEBEB"/>
<path opacity="0.6" d="M112.091 173.233C112.091 174.184 111.352 174.923 110.401 174.923H95.0895C94.1391 174.923 93.3999 174.184 93.3999 173.233C93.3999 172.283 94.1391 171.438 95.0895 171.438H110.401C111.352 171.438 112.091 172.283 112.091 173.233Z" fill="#FC8019"/>
<path opacity="0.6" d="M112.091 168.691C112.091 169.642 111.352 170.381 110.401 170.381H95.0895C94.1391 170.381 93.3999 169.642 93.3999 168.691C93.3999 167.741 94.1391 166.896 95.0895 166.896H110.401C111.352 166.896 112.091 167.741 112.091 168.691Z" fill="#FC8019"/>
<path d="M113.675 175.98H120.117V179.465H113.675V175.98Z" fill="#EBEBEB"/>
<path d="M113.675 171.438H120.117V174.923H113.675V171.438Z" fill="#EBEBEB"/>
<path d="M113.675 166.896H120.117V170.381H113.675V166.896Z" fill="#FC8019"/>
<path d="M121.067 175.98H127.509V179.465H121.067V175.98Z" fill="#EBEBEB"/>
<path d="M121.067 171.438H127.509V174.923H121.067V171.438Z" fill="#EBEBEB"/>
<path d="M121.067 166.896H127.509V170.381H121.067V166.896Z" fill="#EBEBEB"/>
<path opacity="0.6" d="M112.091 196.049C112.091 197 111.352 197.739 110.401 197.739H95.0895C94.1391 197.739 93.3999 197 93.3999 196.049C93.3999 195.099 94.1391 194.254 95.0895 194.254H110.401C111.352 194.254 112.091 195.099 112.091 196.049Z" fill="#FC8019"/>
<path opacity="0.6" d="M112.091 191.507C112.091 192.458 111.352 193.303 110.401 193.303H95.0895C94.1391 193.303 93.3999 192.458 93.3999 191.507C93.3999 190.557 94.1391 189.817 95.0895 189.817H110.401C111.352 189.817 112.091 190.557 112.091 191.507Z" fill="#FC8019"/>
<path opacity="0.6" d="M112.091 186.965C112.091 187.916 111.352 188.761 110.401 188.761H95.0895C94.1391 188.761 93.3999 187.916 93.3999 186.965C93.3999 186.014 94.1391 185.275 95.0895 185.275H110.401C111.352 185.275 112.091 186.014 112.091 186.965Z" fill="#FC8019"/>
<path d="M113.675 194.254H120.117V197.739H113.675V194.254Z" fill="#EBEBEB"/>
<path d="M113.675 189.817H120.117V193.303H113.675V189.817Z" fill="#FC8019"/>
<path d="M113.675 185.275H120.117V188.761H113.675V185.275Z" fill="#EBEBEB"/>
<path d="M121.067 194.254H127.509V197.739H121.067V194.254Z" fill="#EBEBEB"/>
<path d="M121.067 189.817H127.509V193.303H121.067V189.817Z" fill="#EBEBEB"/>
<path d="M121.067 185.275H127.509V188.761H121.067V185.275Z" fill="#FC8019"/>
<path opacity="0.6" d="M112.091 214.323C112.091 215.274 111.352 216.119 110.401 216.119H95.0895C94.1391 216.119 93.3999 215.274 93.3999 214.323C93.3999 213.373 94.1391 212.633 95.0895 212.633H110.401C111.352 212.633 112.091 213.373 112.091 214.323Z" fill="#FC8019"/>
<path opacity="0.6" d="M112.091 209.781C112.091 210.732 111.352 211.577 110.401 211.577H95.0895C94.1391 211.577 93.3999 210.732 93.3999 209.781C93.3999 208.831 94.1391 208.091 95.0895 208.091H110.401C111.352 208.091 112.091 208.831 112.091 209.781Z" fill="#FC8019"/>
<path opacity="0.6" d="M112.091 205.239C112.091 206.19 111.352 207.035 110.401 207.035H95.0895C94.1391 207.035 93.3999 206.19 93.3999 205.239C93.3999 204.288 94.1391 203.549 95.0895 203.549H110.401C111.352 203.549 112.091 204.288 112.091 205.239Z" fill="#FC8019"/>
<path d="M113.675 212.633H120.117V216.119H113.675V212.633Z" fill="#EBEBEB"/>
<path d="M113.675 208.091H120.117V211.577H113.675V208.091Z" fill="#FC8019"/>
<path d="M113.675 203.549H120.117V207.035H113.675V203.549Z" fill="#EBEBEB"/>
<path d="M121.067 212.633H127.509V216.119H121.067V212.633Z" fill="#FC8019"/>
<path d="M121.067 208.091H127.509V211.577H121.067V208.091Z" fill="#EBEBEB"/>
<path d="M121.067 203.549H127.509V207.035H121.067V203.549Z" fill="#FC8019"/>
<path opacity="0.6" d="M112.091 232.597C112.091 233.548 111.352 234.393 110.401 234.393H95.0895C94.1391 234.393 93.3999 233.548 93.3999 232.597C93.3999 231.647 94.1391 230.907 95.0895 230.907H110.401C111.352 230.907 112.091 231.647 112.091 232.597Z" fill="#FC8019"/>
<path opacity="0.6" d="M112.091 228.055C112.091 229.111 111.352 229.851 110.401 229.851H95.0895C94.1391 229.851 93.3999 229.111 93.3999 228.055C93.3999 227.105 94.1391 226.365 95.0895 226.365H110.401C111.352 226.365 112.091 227.105 112.091 228.055Z" fill="#FC8019"/>
<path opacity="0.6" d="M112.091 223.619C112.091 224.569 111.352 225.309 110.401 225.309H95.0895C94.1391 225.309 93.3999 224.569 93.3999 223.619C93.3999 222.562 94.1391 221.823 95.0895 221.823H110.401C111.352 221.823 112.091 222.562 112.091 223.619Z" fill="#FC8019"/>
<path d="M113.675 230.907H120.117V234.393H113.675V230.907Z" fill="#FC8019"/>
<path d="M113.675 226.365H120.117V229.851H113.675V226.365Z" fill="#EBEBEB"/>
<path d="M113.675 221.823H120.117V225.309H113.675V221.823Z" fill="#EBEBEB"/>
<path d="M121.067 230.907H127.509V234.393H121.067V230.907Z" fill="#EBEBEB"/>
<path d="M121.067 226.365H127.509V229.851H121.067V226.365Z" fill="#EBEBEB"/>
<path d="M121.067 221.823H127.509V225.309H121.067V221.823Z" fill="#FC8019"/>
<path d="M192.559 101.722H217.269C221.071 101.722 224.239 104.891 224.239 108.693V230.802C224.239 234.604 221.071 237.668 217.269 237.668H192.559V101.722Z" fill="#E0E0E0"/>
<path d="M201.957 108.693V230.802C201.957 234.604 198.789 237.668 194.987 237.668H141.659C137.858 237.668 134.795 234.604 134.795 230.802V108.693C134.795 104.891 137.858 101.722 141.659 101.722H194.987C198.789 101.722 201.957 104.891 201.957 108.693Z" fill="white"/>
<path d="M201.957 210.732H134.795V209.464H201.957V210.732Z" fill="#E0E0E0"/>
<path d="M201.957 183.796H134.795V182.529H201.957V183.796Z" fill="#E0E0E0"/>
<path d="M201.957 156.861H134.795V155.593H201.957V156.861Z" fill="#E0E0E0"/>
<path d="M201.957 129.925H134.795V128.657H201.957V129.925Z" fill="#E0E0E0"/>
<path opacity="0.6" d="M170.805 122.531C170.805 123.904 169.643 125.066 168.27 125.066H145.778C144.405 125.066 143.243 123.904 143.243 122.531C143.243 121.052 144.405 119.996 145.778 119.996H168.27C169.643 119.996 170.805 121.052 170.805 122.531Z" fill="#FC8019"/>
<path opacity="0.6" d="M170.805 115.876C170.805 117.249 169.643 118.411 168.27 118.411H145.778C144.405 118.411 143.243 117.249 143.243 115.876C143.243 114.397 144.405 113.235 145.778 113.235H168.27C169.643 113.235 170.805 114.397 170.805 115.876Z" fill="#FC8019"/>
<path opacity="0.6" d="M170.805 109.221C170.805 110.595 169.643 111.757 168.27 111.757H145.778C144.405 111.757 143.243 110.595 143.243 109.221C143.243 107.743 144.405 106.581 145.778 106.581H168.27C169.643 106.581 170.805 107.743 170.805 109.221Z" fill="#FC8019"/>
<path d="M173.233 119.996H182.526V125.066H173.233V119.996Z" fill="#EBEBEB"/>
<path d="M173.233 113.235H182.526V118.411H173.233V113.235Z" fill="#FC8019"/>
<path d="M173.233 106.581H182.526V111.757H173.233V106.581Z" fill="#EBEBEB"/>
<path d="M184.11 119.996H193.509V125.066H184.11V119.996Z" fill="#EBEBEB"/>
<path d="M184.11 113.235H193.509V118.411H184.11V113.235Z" fill="#EBEBEB"/>
<path d="M184.11 106.581H193.509V111.757H184.11V106.581Z" fill="#FC8019"/>
<path opacity="0.6" d="M170.805 149.466C170.805 150.84 169.643 152.002 168.27 152.002H145.778C144.405 152.002 143.243 150.84 143.243 149.466C143.243 147.988 144.405 146.826 145.778 146.826H168.27C169.643 146.826 170.805 147.988 170.805 149.466Z" fill="#FC8019"/>
<path opacity="0.6" d="M170.805 142.812C170.805 144.185 169.643 145.347 168.27 145.347H145.778C144.405 145.347 143.243 144.185 143.243 142.812C143.243 141.333 144.405 140.171 145.778 140.171H168.27C169.643 140.171 170.805 141.333 170.805 142.812Z" fill="#FC8019"/>
<path opacity="0.6" d="M170.805 136.157C170.805 137.53 169.643 138.692 168.27 138.692H145.778C144.405 138.692 143.243 137.53 143.243 136.157C143.243 134.678 144.405 133.516 145.778 133.516H168.27C169.643 133.516 170.805 134.678 170.805 136.157Z" fill="#FC8019"/>
<path d="M173.233 146.826H182.526V152.002H173.233V146.826Z" fill="#EBEBEB"/>
<path d="M173.233 140.171H182.526V145.347H173.233V140.171Z" fill="#EBEBEB"/>
<path d="M173.233 133.516H182.526V138.692H173.233V133.516Z" fill="#FC8019"/>
<path d="M184.11 146.826H193.509V152.002H184.11V146.826Z" fill="#FC8019"/>
<path d="M184.11 140.171H193.509V145.347H184.11V140.171Z" fill="#EBEBEB"/>
<path d="M184.11 133.516H193.509V138.692H184.11V133.516Z" fill="#FC8019"/>
<path opacity="0.6" d="M170.805 176.402C170.805 177.775 169.643 178.937 168.27 178.937H145.778C144.405 178.937 143.243 177.775 143.243 176.402C143.243 174.923 144.405 173.761 145.778 173.761H168.27C169.643 173.761 170.805 174.923 170.805 176.402Z" fill="#FC8019"/>
<path opacity="0.6" d="M170.805 169.747C170.805 171.121 169.643 172.283 168.27 172.283H145.778C144.405 172.283 143.243 171.121 143.243 169.747C143.243 168.269 144.405 167.107 145.778 167.107H168.27C169.643 167.107 170.805 168.269 170.805 169.747Z" fill="#FC8019"/>
<path opacity="0.6" d="M170.805 163.093C170.805 164.466 169.643 165.628 168.27 165.628H145.778C144.405 165.628 143.243 164.466 143.243 163.093C143.243 161.614 144.405 160.452 145.778 160.452H168.27C169.643 160.452 170.805 161.614 170.805 163.093Z" fill="#FC8019"/>
<path d="M173.233 173.761H182.526V178.937H173.233V173.761Z" fill="#FC8019"/>
<path d="M173.233 167.107H182.526V172.283H173.233V167.107Z" fill="#EBEBEB"/>
<path d="M173.233 160.452H182.526V165.628H173.233V160.452Z" fill="#EBEBEB"/>
<path d="M184.11 173.761H193.509V178.937H184.11V173.761Z" fill="#EBEBEB"/>
<path d="M184.11 167.107H193.509V172.283H184.11V167.107Z" fill="#EBEBEB"/>
<path d="M184.11 160.452H193.509V165.628H184.11V160.452Z" fill="#FC8019"/>
<path opacity="0.6" d="M170.805 203.338C170.805 204.711 169.643 205.873 168.27 205.873H145.778C144.405 205.873 143.243 204.711 143.243 203.338C143.243 201.859 144.405 200.697 145.778 200.697H168.27C169.643 200.697 170.805 201.859 170.805 203.338Z" fill="#FC8019"/>
<path d="M170.805 196.683C170.805 198.056 169.643 199.218 168.27 199.218H145.778C144.405 199.218 143.243 198.056 143.243 196.683C143.243 195.204 144.405 194.042 145.778 194.042H168.27C169.643 194.042 170.805 195.204 170.805 196.683Z" fill="#EBEBEB"/>
<path opacity="0.6" d="M170.805 190.028C170.805 191.402 169.643 192.564 168.27 192.564H145.778C144.405 192.564 143.243 191.402 143.243 190.028C143.243 188.55 144.405 187.388 145.778 187.388H168.27C169.643 187.388 170.805 188.55 170.805 190.028Z" fill="#FC8019"/>
<path d="M173.233 200.697H182.526V205.873H173.233V200.697Z" fill="#EBEBEB"/>
<path d="M173.233 194.042H182.526V199.218H173.233V194.042Z" fill="#FC8019"/>
<path d="M173.233 187.388H182.526V192.564H173.233V187.388Z" fill="#EBEBEB"/>
<path d="M184.11 200.697H193.509V205.873H184.11V200.697Z" fill="#FC8019"/>
<path d="M184.11 194.042H193.509V199.218H184.11V194.042Z" fill="#FC8019"/>
<path d="M184.11 187.388H193.509V192.564H184.11V187.388Z" fill="#EBEBEB"/>
<path opacity="0.6" d="M170.805 230.273C170.805 231.647 169.643 232.809 168.27 232.809H145.778C144.405 232.809 143.243 231.647 143.243 230.273C143.243 228.795 144.405 227.633 145.778 227.633H168.27C169.643 227.633 170.805 228.795 170.805 230.273Z" fill="#FC8019"/>
<path opacity="0.6" d="M170.805 223.619C170.805 224.992 169.643 226.154 168.27 226.154H145.778C144.405 226.154 143.243 224.992 143.243 223.619C143.243 222.14 144.405 220.978 145.778 220.978H168.27C169.643 220.978 170.805 222.14 170.805 223.619Z" fill="#FC8019"/>
<path opacity="0.6" d="M170.805 216.964C170.805 218.337 169.643 219.499 168.27 219.499H145.778C144.405 219.499 143.243 218.337 143.243 216.964C143.243 215.485 144.405 214.323 145.778 214.323H168.27C169.643 214.323 170.805 215.485 170.805 216.964Z" fill="#FC8019"/>
<path d="M173.233 227.633H182.526V232.809H173.233V227.633Z" fill="#EBEBEB"/>
<path d="M173.233 220.978H182.526V226.154H173.233V220.978Z" fill="#EBEBEB"/>
<path d="M173.233 214.323H182.526V219.499H173.233V214.323Z" fill="#EBEBEB"/>
<path d="M184.11 227.633H193.509V232.809H184.11V227.633Z" fill="#EBEBEB"/>
<path d="M184.11 220.978H193.509V226.154H184.11V220.978Z" fill="#EBEBEB"/>
<path d="M184.11 214.323H193.509V219.499H184.11V214.323Z" fill="#FC8019"/>
<path d="M254.123 119.468H275.665C278.939 119.468 281.685 122.108 281.685 125.488V231.647C281.685 235.027 278.939 237.668 275.665 237.668H254.123V119.468Z" fill="#E0E0E0"/>
<path d="M262.255 125.488V231.647C262.255 235.027 259.615 237.668 256.235 237.668H209.877C206.603 237.668 203.963 235.027 203.963 231.647V125.488C203.963 122.108 206.603 119.468 209.877 119.468H256.235C259.615 119.468 262.255 122.108 262.255 125.488V125.488Z" fill="white"/>
<path d="M262.255 214.218H203.963V213.161H262.255V214.218Z" fill="#E0E0E0"/>
<path d="M262.255 190.873H203.963V189.712H262.255V190.873Z" fill="#E0E0E0"/>
<path d="M262.255 167.424H203.963V166.262H262.255V167.424Z" fill="#E0E0E0"/>
<path d="M262.255 143.974H203.963V142.917H262.255V143.974Z" fill="#E0E0E0"/>
<path opacity="0.6" d="M235.221 137.53C235.221 138.692 234.27 139.748 233.003 139.748H213.467C212.306 139.748 211.25 138.692 211.25 137.53C211.25 136.263 212.306 135.312 213.467 135.312H233.003C234.27 135.312 235.221 136.263 235.221 137.53Z" fill="#FC8019"/>
<path opacity="0.6" d="M235.221 131.721C235.221 132.988 234.27 133.939 233.003 133.939H213.467C212.306 133.939 211.25 132.988 211.25 131.721C211.25 130.453 212.306 129.502 213.467 129.502H233.003C234.27 129.502 235.221 130.453 235.221 131.721Z" fill="#FC8019"/>
<path opacity="0.6" d="M235.221 125.911C235.221 127.179 234.27 128.129 233.003 128.129H213.467C212.306 128.129 211.25 127.179 211.25 125.911C211.25 124.643 212.306 123.693 213.467 123.693H233.003C234.27 123.693 235.221 124.643 235.221 125.911Z" fill="#FC8019"/>
<path d="M237.333 217.387H245.464V221.823H237.333V217.387Z" fill="#EBEBEB"/>
<path d="M237.333 223.196H245.464V227.633H237.333V223.196Z" fill="#FC8019"/>
<path d="M237.333 229.006H245.464V233.442H237.333V229.006Z" fill="#EBEBEB"/>
<path d="M246.837 217.387H254.968V221.823H246.837V217.387Z" fill="#EBEBEB"/>
<path d="M246.837 223.196H254.968V227.633H246.837V223.196Z" fill="#EBEBEB"/>
<path d="M246.837 229.006H254.968V233.442H246.837V229.006Z" fill="#FC8019"/>
<path d="M235.221 160.98C235.221 162.142 234.27 163.198 233.003 163.198H213.467C212.306 163.198 211.25 162.142 211.25 160.98C211.25 159.713 212.306 158.656 213.467 158.656H233.003C234.27 158.656 235.221 159.713 235.221 160.98Z" fill="#EBEBEB"/>
<path opacity="0.6" d="M235.221 155.17C235.221 156.332 234.27 157.389 233.003 157.389H213.467C212.306 157.389 211.25 156.332 211.25 155.17C211.25 153.903 212.306 152.952 213.467 152.952H233.003C234.27 152.952 235.221 153.903 235.221 155.17Z" fill="#FC8019"/>
<path opacity="0.6" d="M235.221 149.361C235.221 150.523 234.27 151.579 233.003 151.579H213.467C212.306 151.579 211.25 150.523 211.25 149.361C211.25 148.093 212.306 147.143 213.467 147.143H233.003C234.27 147.143 235.221 148.093 235.221 149.361Z" fill="#FC8019"/>
<path d="M237.333 193.937H245.464V198.373H237.333V193.937Z" fill="#EBEBEB"/>
<path d="M237.333 199.746H245.464V204.183H237.333V199.746Z" fill="#EBEBEB"/>
<path d="M237.333 205.556H245.464V209.992H237.333V205.556Z" fill="#FC8019"/>
<path d="M246.837 193.937H254.968V198.373H246.837V193.937Z" fill="#FC8019"/>
<path d="M246.837 199.746H254.968V204.183H246.837V199.746Z" fill="#EBEBEB"/>
<path d="M246.837 205.556H254.968V209.992H246.837V205.556Z" fill="#FC8019"/>
<path opacity="0.6" d="M235.221 184.324C235.221 185.592 234.27 186.543 233.003 186.543H213.467C212.306 186.543 211.25 185.592 211.25 184.324C211.25 183.163 212.306 182.106 213.467 182.106H233.003C234.27 182.106 235.221 183.163 235.221 184.324Z" fill="#FC8019"/>
<path opacity="0.6" d="M235.221 178.515C235.221 179.782 234.27 180.839 233.003 180.839H213.467C212.306 180.839 211.25 179.782 211.25 178.515C211.25 177.353 212.306 176.297 213.467 176.297H233.003C234.27 176.297 235.221 177.353 235.221 178.515Z" fill="#FC8019"/>
<path opacity="0.6" d="M235.221 172.811C235.221 173.973 234.27 175.029 233.003 175.029H213.467C212.306 175.029 211.25 173.973 211.25 172.811C211.25 171.543 212.306 170.487 213.467 170.487H233.003C234.27 170.487 235.221 171.543 235.221 172.811Z" fill="#FC8019"/>
<path d="M237.333 170.487H245.464V175.029H237.333V170.487Z" fill="#FC8019"/>
<path d="M237.333 176.297H245.464V180.839H237.333V176.297Z" fill="#EBEBEB"/>
<path d="M237.333 182.106H245.464V186.543H237.333V182.106Z" fill="#EBEBEB"/>
<path d="M246.837 170.487H254.968V175.029H246.837V170.487Z" fill="#EBEBEB"/>
<path d="M246.837 176.297H254.968V180.839H246.837V176.297Z" fill="#EBEBEB"/>
<path d="M246.837 182.106H254.968V186.543H246.837V182.106Z" fill="#FC8019"/>
<path opacity="0.6" d="M235.221 207.774C235.221 209.042 234.27 209.992 233.003 209.992H213.467C212.306 209.992 211.25 209.042 211.25 207.774C211.25 206.507 212.306 205.556 213.467 205.556H233.003C234.27 205.556 235.221 206.507 235.221 207.774Z" fill="#FC8019"/>
<path opacity="0.6" d="M235.221 201.965C235.221 203.232 234.27 204.183 233.003 204.183H213.467C212.306 204.183 211.25 203.232 211.25 201.965C211.25 200.803 212.306 199.746 213.467 199.746H233.003C234.27 199.746 235.221 200.803 235.221 201.965Z" fill="#FC8019"/>
<path opacity="0.6" d="M235.221 196.155C235.221 197.423 234.27 198.373 233.003 198.373H213.467C212.306 198.373 211.25 197.423 211.25 196.155C211.25 194.993 212.306 193.937 213.467 193.937H233.003C234.27 193.937 235.221 194.993 235.221 196.155Z" fill="#FC8019"/>
<path d="M237.333 147.143H245.464V151.579H237.333V147.143Z" fill="#EBEBEB"/>
<path d="M237.333 152.952H245.464V157.389H237.333V152.952Z" fill="#FC8019"/>
<path d="M237.333 158.656H245.464V163.198H237.333V158.656Z" fill="#EBEBEB"/>
<path d="M246.837 147.143H254.968V151.579H246.837V147.143Z" fill="#FC8019"/>
<path d="M246.837 152.952H254.968V157.389H246.837V152.952Z" fill="#EBEBEB"/>
<path d="M246.837 158.656H254.968V163.198H246.837V158.656Z" fill="#EBEBEB"/>
<path opacity="0.6" d="M235.221 231.224C235.221 232.492 234.27 233.442 233.003 233.442H213.467C212.306 233.442 211.25 232.492 211.25 231.224C211.25 229.957 212.306 229.006 213.467 229.006H233.003C234.27 229.006 235.221 229.957 235.221 231.224Z" fill="#FC8019"/>
<path opacity="0.6" d="M235.221 225.415C235.221 226.682 234.27 227.633 233.003 227.633H213.467C212.306 227.633 211.25 226.682 211.25 225.415C211.25 224.147 212.306 223.196 213.467 223.196H233.003C234.27 223.196 235.221 224.147 235.221 225.415Z" fill="#FC8019"/>
<path opacity="0.6" d="M235.221 219.605C235.221 220.872 234.27 221.823 233.003 221.823H213.467C212.306 221.823 211.25 220.872 211.25 219.605C211.25 218.337 212.306 217.387 213.467 217.387H233.003C234.27 217.387 235.221 218.337 235.221 219.605Z" fill="#FC8019"/>
<path d="M237.333 123.693H245.464V128.129H237.333V123.693Z" fill="#FC8019"/>
<path d="M237.333 129.502H245.464V133.939H237.333V129.502Z" fill="#EBEBEB"/>
<path d="M237.333 135.312H245.464V139.748H237.333V135.312Z" fill="#EBEBEB"/>
<path d="M246.837 123.693H254.968V128.129H246.837V123.693Z" fill="#EBEBEB"/>
<path d="M246.837 129.502H254.968V133.939H246.837V129.502Z" fill="#EBEBEB"/>
<path d="M246.837 135.312H254.968V139.748H246.837V135.312Z" fill="#FC8019"/>
</svg>
