<svg width="240" height="242" viewBox="0 0 240 242" fill="none" xmlns="http://www.w3.org/2000/svg">
<path d="M227.026 165.545C204.759 218.88 145.449 248.759 94.0089 240.695C85.6382 239.39 62.6899 235.483 42.3709 217.048C3.26748 181.569 -5.10321 111.32 26.4485 61.8051C49.414 25.773 90.5692 5.34998 129.681 6.36983C138.112 6.5859 170.397 7.94283 198.767 31.7453C202.94 35.2456 212.13 43.5514 220.414 56.7231C239.871 87.6732 241.543 130.784 227.026 165.545V165.545Z" fill="url(#paint0_linear_72_8838)"/>
<path d="M1.38813 155.589C5.18985 139.323 17.6295 126.549 33.4571 122.651C44.3364 119.963 54.7761 121.406 63.595 125.754C66.5261 127.197 70.0002 125.563 70.8105 122.331C78.6123 91.2513 106.069 68.2959 138.733 68.2959C177.474 68.2959 208.88 100.577 208.88 140.395C208.88 141.458 208.862 142.901 208.845 144.284C208.983 147.266 210.242 148.528 212.129 148.847C227.311 150.472 239.242 163.333 239.905 179.192C240.664 197.412 226.242 212.502 208.5 212.502H44.4399C16.3536 212.502 -5.63773 185.675 1.38813 155.589V155.589Z" fill="url(#paint1_linear_72_8838)"/>
<path opacity="0.2" d="M14.0947 161.691C17.4912 147.162 28.5947 135.762 42.724 132.27C52.4395 129.876 61.7585 131.164 69.6378 135.045C72.2499 136.332 75.3619 134.88 76.0861 131.994C83.043 104.241 107.56 83.7406 136.733 83.7406C171.319 83.7406 199.362 112.565 199.362 148.121C199.362 149.063 199.345 150.36 199.327 151.596C199.448 154.249 200.577 155.381 202.258 155.666C215.81 157.118 226.465 168.596 227.052 182.762C227.733 199.028 214.853 212.502 199.017 212.502H52.5344C27.4568 212.502 7.81884 188.553 14.0947 161.691V161.691Z" fill="white"/>
<path d="M31.3536 155.796C31.3105 154.119 31.957 152.503 33.1381 151.319C34.3191 150.144 35.9398 149.496 37.6122 149.539L165.5 152.858C168.371 152.659 169.94 155.26 169.94 156.6L168.845 231.992C168.845 233.323 167.759 234.42 166.431 234.42H35.5691C34.2329 234.42 33.1467 233.323 33.1467 231.992L31.3536 155.796Z" fill="url(#paint2_linear_72_8838)"/>
<path d="M33.7157 156.807C33.6812 155.632 34.1381 154.5 34.9743 153.67C35.8019 152.832 36.9398 152.382 38.1122 152.417L160.681 155.71C162.871 155.623 166.466 157.101 166.586 161.224L165.56 229.667C165.56 230.928 164.535 231.966 163.276 231.966H37.8278C36.5691 231.966 35.5347 230.928 35.5347 229.667L33.7157 156.807Z" fill="#FC8019"/>
<path d="M164.207 197.152C164.017 197.152 163.871 196.997 163.871 196.806L163.948 191.258C163.957 191.076 164.103 190.929 164.284 190.929C164.29 190.929 164.293 190.929 164.293 190.929C164.474 190.929 164.629 191.085 164.621 191.266L164.543 196.824C164.543 197.005 164.388 197.152 164.207 197.152V197.152Z" fill="white"/>
<path d="M164.405 183.548C164.216 183.548 164.069 183.393 164.069 183.211L164.379 161.95C164.379 160.688 163.991 159.677 163.241 158.959C161.845 157.62 159.629 157.689 159.535 157.689L120.362 156.635C120.172 156.635 120.026 156.479 120.035 156.289C120.035 156.107 120.181 155.943 120.379 155.96L159.535 157.015C159.776 157.006 162.138 156.963 163.707 158.475C164.595 159.322 165.043 160.489 165.052 161.95L164.741 183.22C164.741 183.401 164.586 183.548 164.405 183.548V183.548Z" fill="white"/>
<path d="M22.5347 240.185V234.541C22.5347 234.273 22.7502 234.049 23.0174 234.049H176.328C176.595 234.049 176.81 234.273 176.81 234.541V240.185C176.81 240.453 176.595 240.678 176.328 240.678H23.0174C22.7502 240.678 22.5347 240.453 22.5347 240.185Z" fill="url(#paint3_linear_72_8838)"/>
<path d="M89.9567 228.621H41.6636C39.8791 228.621 38.4395 227.178 38.4395 225.388V162.183C38.4395 160.351 39.9567 158.882 41.7843 158.951L90.086 160.809C91.8187 160.87 93.1894 162.296 93.1894 164.033V225.388C93.1894 227.178 91.7412 228.621 89.9567 228.621Z" fill="#FFDBB1"/>
<path opacity="0.5" d="M80.3536 188.008H48.3622C48.1035 188.008 47.9053 187.801 47.9053 187.55V184.205C47.9053 183.955 48.1035 183.747 48.3622 183.747H80.3536C80.6122 183.747 80.8105 183.955 80.8105 184.205V187.55C80.8105 187.801 80.6122 188.008 80.3536 188.008Z" fill="white"/>
<path opacity="0.5" d="M80.4222 194.819H48.4222C48.1722 194.819 47.9653 194.611 47.9653 194.361V191.016C47.9653 190.765 48.1722 190.558 48.4222 190.558H80.4222C80.6722 190.558 80.8791 190.765 80.8791 191.016V194.361C80.8791 194.611 80.6722 194.819 80.4222 194.819V194.819Z" fill="white"/>
<path opacity="0.5" d="M80.6122 201.768H48.6208C48.3622 201.768 48.1553 201.56 48.1553 201.309V197.965C48.1553 197.714 48.3622 197.507 48.6208 197.507H80.6122C80.8622 197.507 81.0691 197.714 81.0691 197.965V201.309C81.0691 201.56 80.8622 201.768 80.6122 201.768Z" fill="white"/>
<path opacity="0.5" d="M80.6724 208.578H48.681C48.431 208.578 48.2241 208.371 48.2241 208.111V204.775C48.2241 204.516 48.431 204.317 48.681 204.317H80.6724C80.931 204.317 81.1379 204.516 81.1379 204.775V208.111C81.1379 208.371 80.931 208.578 80.6724 208.578Z" fill="white"/>
<path opacity="0.5" d="M150.517 188.008H104.121C103.862 188.008 103.655 187.801 103.655 187.541V184.205C103.655 183.946 103.862 183.747 104.121 183.747H150.517C150.776 183.747 150.974 183.946 150.974 184.205V187.541C150.974 187.801 150.776 188.008 150.517 188.008Z" fill="white"/>
<path opacity="0.5" d="M150.664 194.819H104.267C104.009 194.819 103.802 194.611 103.802 194.361V191.016C103.802 190.765 104.009 190.558 104.267 190.558H150.664C150.922 190.558 151.121 190.765 151.121 191.016V194.361C151.121 194.611 150.922 194.819 150.664 194.819Z" fill="white"/>
<path opacity="0.5" d="M131.388 201.768H104.267C104.009 201.768 103.802 201.56 103.802 201.309V197.965C103.802 197.714 104.009 197.507 104.267 197.507H131.388C131.638 197.507 131.845 197.714 131.845 197.965V201.309C131.845 201.56 131.638 201.768 131.388 201.768Z" fill="white"/>
<g opacity="0.5">
<path opacity="0.5" d="M128.776 167.853H128.06C127.698 167.853 127.413 167.568 127.413 167.205V164.733C127.413 163.851 126.698 163.134 125.81 163.134H121.344C120.465 163.134 119.75 163.851 119.75 164.733V167.205C119.75 167.568 119.457 167.853 119.103 167.853H118.379C118.026 167.853 117.732 167.568 117.732 167.205V164.733C117.732 162.736 119.353 161.112 121.344 161.112H125.81C127.81 161.112 129.431 162.736 129.431 164.733V167.205C129.431 167.568 129.138 167.853 128.776 167.853V167.853Z" fill="white"/>
<path opacity="0.5" fill-rule="evenodd" clip-rule="evenodd" d="M131.026 169.798V179.166C131.026 179.918 130.422 180.523 129.672 180.523H117.491C116.741 180.523 116.138 179.918 116.138 179.166V169.798C116.138 169.046 116.741 168.441 117.491 168.441H129.672C130.422 168.441 131.026 169.046 131.026 169.798ZM124.741 175.052C125.396 174.655 125.836 173.938 125.836 173.108C125.836 171.811 124.75 170.766 123.439 170.852C122.301 170.921 121.388 171.846 121.327 172.987C121.276 173.86 121.733 174.638 122.422 175.052L121.836 177.498C121.758 177.818 122 178.121 122.327 178.121H124.836C125.164 178.121 125.396 177.818 125.327 177.498L124.741 175.052Z" fill="white"/>
</g>
<path d="M164.241 58.4084C164.195 58.4084 164.149 58.3969 164.103 58.3739C163.965 58.2961 163.914 58.1146 163.991 57.9763C164.181 57.6421 164.362 57.3022 164.534 56.9565C164.612 56.8182 164.784 56.7577 164.931 56.8355C165.069 56.9046 165.129 57.0861 165.052 57.2244C164.873 57.5701 164.69 57.9158 164.5 58.2615C164.448 58.3566 164.345 58.4084 164.241 58.4084V58.4084Z" fill="#91B3FA"/>
<path d="M130.293 78.4425C130.121 78.4425 129.951 78.4425 129.784 78.4425C129.621 78.4339 129.491 78.3042 129.491 78.1487C129.5 77.9844 129.629 77.8548 129.784 77.8548C130.543 77.8721 131.302 77.8548 132.043 77.8202C132.198 77.8116 132.345 77.9412 132.353 78.0968C132.353 78.261 132.233 78.3993 132.069 78.3993C131.483 78.4339 130.888 78.4425 130.293 78.4425V78.4425ZM126.095 78.2178C126.083 78.2178 126.072 78.2178 126.06 78.2178C125.302 78.1314 124.543 78.0276 123.793 77.898C123.638 77.8721 123.526 77.7251 123.552 77.5696C123.578 77.4054 123.733 77.3017 123.888 77.3276C124.629 77.4486 125.379 77.5523 126.129 77.6387C126.284 77.656 126.397 77.7943 126.379 77.9585C126.371 78.1054 126.241 78.2178 126.095 78.2178V78.2178ZM135.741 78.0622C135.595 78.0622 135.474 77.9585 135.457 77.8116C135.431 77.6474 135.543 77.5004 135.698 77.4831C136.44 77.3794 137.19 77.2498 137.931 77.1029C138.086 77.0683 138.241 77.172 138.267 77.3276C138.302 77.4832 138.198 77.6387 138.043 77.6733C137.293 77.8202 136.534 77.9499 135.784 78.0536C135.767 78.0593 135.753 78.0622 135.741 78.0622V78.0622ZM120.224 77.1201C120.201 77.1201 120.178 77.1173 120.155 77.1115C119.414 76.9127 118.681 76.688 117.957 76.4546C117.802 76.4028 117.724 76.2386 117.767 76.083C117.819 75.9361 117.983 75.8497 118.138 75.9015C118.853 76.1349 119.578 76.3509 120.302 76.5497C120.457 76.5929 120.552 76.7485 120.509 76.9041C120.474 77.0337 120.353 77.1201 120.224 77.1201ZM141.569 76.7744C141.448 76.7744 141.328 76.688 141.293 76.567C141.25 76.4114 141.336 76.2472 141.483 76.204C142.207 75.9879 142.922 75.7459 143.629 75.478C143.776 75.4261 143.948 75.5039 144 75.6509C144.06 75.8064 143.983 75.9707 143.828 76.0312C143.112 76.2904 142.388 76.5411 141.655 76.7571C141.626 76.7687 141.598 76.7744 141.569 76.7744ZM114.595 75.1323C114.555 75.1323 114.517 75.1265 114.483 75.115C113.784 74.8039 113.086 74.4668 112.414 74.1211C112.267 74.0519 112.216 73.8704 112.284 73.7321C112.362 73.5852 112.534 73.5334 112.672 73.6025C113.345 73.9482 114.026 74.2767 114.716 74.5792C114.862 74.6397 114.931 74.8125 114.862 74.9594C114.81 75.0718 114.707 75.1323 114.595 75.1323V75.1323ZM147.129 74.5964C147.026 74.5964 146.922 74.5359 146.871 74.4322C146.802 74.2939 146.862 74.1124 147.009 74.0433C147.681 73.7235 148.353 73.3692 149.009 73.0062C149.155 72.9284 149.328 72.9716 149.405 73.1185C149.483 73.2568 149.431 73.4296 149.293 73.5074C148.629 73.8791 147.94 74.2421 147.259 74.5705C147.218 74.5878 147.175 74.5964 147.129 74.5964V74.5964ZM109.336 72.3061C109.284 72.3061 109.233 72.2888 109.181 72.2629C108.543 71.848 107.905 71.4159 107.293 70.9664C107.164 70.8714 107.129 70.6899 107.224 70.5602C107.319 70.4306 107.5 70.396 107.629 70.4911C108.241 70.9319 108.862 71.364 109.5 71.7702C109.629 71.8567 109.672 72.0381 109.586 72.1764C109.526 72.2629 109.431 72.3061 109.336 72.3061ZM152.293 71.5887C152.198 71.5887 152.112 71.5455 152.052 71.4677C151.965 71.3294 152 71.1479 152.129 71.0615C152.75 70.638 153.362 70.1799 153.948 69.7219C154.078 69.6181 154.259 69.6441 154.362 69.7737C154.457 69.8947 154.431 70.0849 154.31 70.1799C153.707 70.6466 153.086 71.1047 152.457 71.5369C152.405 71.5714 152.353 71.5887 152.293 71.5887V71.5887ZM104.578 68.702C104.509 68.702 104.448 68.6761 104.388 68.6242C103.819 68.1229 103.259 67.5957 102.716 67.0512C102.603 66.9389 102.603 66.7574 102.716 66.645C102.828 66.524 103.009 66.524 103.129 66.6364C103.664 67.1722 104.216 67.6908 104.776 68.1921C104.897 68.2958 104.905 68.4773 104.802 68.5983C104.741 68.6674 104.664 68.702 104.578 68.702V68.702ZM156.94 67.8291C156.862 67.8291 156.784 67.7945 156.724 67.734C156.612 67.613 156.621 67.4315 156.741 67.3192C157.284 66.8092 157.819 66.2647 158.336 65.7202C158.448 65.6079 158.629 65.5992 158.741 65.7116C158.862 65.8239 158.871 66.0054 158.759 66.1178C158.233 66.6709 157.69 67.2241 157.138 67.7426C157.078 67.7945 157.009 67.8291 156.94 67.8291V67.8291ZM100.422 64.4065C100.345 64.4065 100.259 64.3633 100.198 64.2942C99.7155 63.7151 99.2414 63.1014 98.7845 62.4878C98.6897 62.3581 98.7155 62.1766 98.8448 62.0816C98.9741 61.9865 99.1552 62.0124 99.25 62.1421C99.6983 62.7471 100.172 63.3521 100.647 63.9225C100.75 64.0521 100.733 64.2337 100.612 64.3374C100.56 64.3806 100.491 64.4065 100.422 64.4065ZM160.957 63.4039C160.888 63.4039 160.828 63.378 160.776 63.3348C160.647 63.2397 160.629 63.0582 160.724 62.9286C161.19 62.3322 161.638 61.7186 162.06 61.1049C162.147 60.9753 162.328 60.9407 162.465 61.0271C162.595 61.1222 162.629 61.3037 162.534 61.4334C162.112 62.0556 161.655 62.6866 161.181 63.2916C161.129 63.3607 161.043 63.4039 160.957 63.4039V63.4039ZM96.9655 59.5233C96.8707 59.5233 96.7759 59.4714 96.7155 59.385C96.3276 58.7281 95.9483 58.054 95.5948 57.3799C95.5259 57.2329 95.5776 57.0601 95.7155 56.9823C95.8621 56.9131 96.0345 56.965 96.1121 57.1119C96.4569 57.7688 96.8276 58.4343 97.2155 59.0825C97.3017 59.2208 97.25 59.4023 97.1121 59.4801C97.069 59.5146 97.0172 59.5233 96.9655 59.5233V59.5233ZM94.3017 54.1734C94.181 54.1734 94.0776 54.1042 94.0259 53.9919C93.7414 53.2831 93.4741 52.5571 93.2328 51.8311C93.181 51.6842 93.2586 51.52 93.4138 51.4681C93.5603 51.4163 93.7328 51.4941 93.7845 51.6496C94.0172 52.3584 94.2845 53.0757 94.569 53.7671C94.6293 53.9227 94.5603 54.0869 94.4052 54.1474C94.3707 54.1647 94.3362 54.1734 94.3017 54.1734V54.1734Z" fill="#91B3FA"/>
<path d="M92.4826 48.4518C92.3533 48.4518 92.2326 48.3654 92.1981 48.2271C92.1119 47.8468 92.0285 47.4665 91.9481 47.0863C91.9222 46.9307 92.017 46.7751 92.1808 46.7405C92.336 46.706 92.4912 46.8097 92.517 46.9653C92.5975 47.3455 92.6808 47.7229 92.7671 48.0975C92.8015 48.253 92.7067 48.4086 92.5515 48.4432C92.5285 48.4489 92.5056 48.4518 92.4826 48.4518V48.4518Z" fill="#91B3FA"/>
<path d="M97.4053 18.7809C97.3536 18.7809 97.3019 18.7636 97.2501 18.7377C97.1122 18.6513 97.0691 18.4698 97.1553 18.3315C97.3622 18.003 97.5749 17.6775 97.7933 17.3548C97.8881 17.2165 98.0691 17.182 98.1984 17.277C98.3364 17.3635 98.3709 17.545 98.276 17.6746C98.0634 17.9973 97.8536 18.3199 97.6467 18.6426C97.595 18.7377 97.5002 18.7809 97.4053 18.7809V18.7809Z" fill="#91B3FA"/>
<path d="M167.552 28.5301C167.422 28.5301 167.302 28.4436 167.267 28.3226C167.043 27.5621 166.802 26.8015 166.534 26.0582C166.474 25.9026 166.552 25.7384 166.707 25.6866C166.853 25.6261 167.026 25.7039 167.078 25.8594C167.345 26.6114 167.603 27.3892 167.828 28.1584C167.871 28.314 167.784 28.4696 167.629 28.5214C167.601 28.5272 167.575 28.5301 167.552 28.5301V28.5301ZM165.302 22.6529C165.19 22.6529 165.086 22.5924 165.034 22.4887C164.698 21.78 164.328 21.0626 163.94 20.3799C163.862 20.2416 163.914 20.0601 164.052 19.9823C164.19 19.9045 164.371 19.9564 164.448 20.0946C164.836 20.7947 165.216 21.5121 165.56 22.2381C165.629 22.385 165.569 22.5579 165.422 22.627C165.382 22.6443 165.342 22.6529 165.302 22.6529V22.6529ZM162.129 17.2252C162.034 17.2252 161.948 17.182 161.888 17.1042C161.44 16.456 160.966 15.8164 160.474 15.1941C160.371 15.0645 160.388 14.883 160.517 14.7879C160.638 14.6842 160.828 14.7101 160.922 14.8311C161.422 15.4621 161.905 16.1103 162.371 16.7671C162.457 16.8968 162.422 17.0783 162.293 17.1734C162.241 17.2079 162.19 17.2252 162.129 17.2252V17.2252ZM100.362 14.6842C100.302 14.6842 100.233 14.6669 100.181 14.6151C100.06 14.52 100.043 14.3299 100.147 14.2089C100.655 13.5952 101.19 12.9816 101.741 12.4025C101.845 12.2815 102.034 12.2729 102.147 12.3852C102.267 12.4976 102.267 12.6791 102.164 12.8001C101.621 13.3791 101.095 13.9755 100.586 14.5805C100.534 14.6496 100.448 14.6842 100.362 14.6842V14.6842ZM158.129 12.3766C158.052 12.3766 157.974 12.3506 157.922 12.2901C157.371 11.7284 156.802 11.1666 156.216 10.6307C156.095 10.527 156.086 10.3369 156.198 10.2245C156.302 10.1035 156.491 10.0949 156.612 10.1986C157.198 10.7431 157.784 11.3135 158.336 11.8839C158.448 11.9963 158.448 12.1864 158.328 12.2988C158.276 12.3506 158.198 12.3766 158.129 12.3766ZM104.75 10.1813C104.664 10.1813 104.586 10.1467 104.526 10.0862C104.422 9.96521 104.44 9.77507 104.56 9.67136C105.164 9.14414 105.784 8.62557 106.422 8.14157C106.552 8.03786 106.733 8.06379 106.828 8.19343C106.922 8.31443 106.905 8.50457 106.776 8.59964C106.155 9.08364 105.534 9.59357 104.94 10.1121C104.888 10.1554 104.819 10.1813 104.75 10.1813V10.1813ZM153.414 8.228C153.353 8.228 153.293 8.21071 153.241 8.17614C152.603 7.70079 151.948 7.24271 151.293 6.81057C151.155 6.72414 151.121 6.54264 151.207 6.413C151.293 6.27471 151.474 6.24014 151.612 6.32657C152.276 6.76736 152.948 7.22543 153.586 7.70943C153.716 7.8045 153.741 7.986 153.647 8.11564C153.586 8.19343 153.5 8.228 153.414 8.228V8.228ZM109.793 6.43893C109.698 6.43893 109.603 6.38707 109.543 6.30064C109.457 6.16236 109.5 5.98086 109.638 5.89443C110.319 5.47093 111.017 5.06471 111.724 4.68443C111.862 4.60664 112.043 4.6585 112.112 4.80543C112.19 4.94371 112.138 5.11657 112 5.19436C111.302 5.57464 110.612 5.97221 109.948 6.39571C109.897 6.42164 109.845 6.43893 109.793 6.43893ZM148.095 4.9005C148.049 4.9005 148.003 4.89186 147.957 4.87457C147.259 4.51157 146.534 4.16586 145.819 3.84607C145.672 3.78557 145.603 3.61271 145.664 3.46579C145.733 3.31886 145.905 3.24971 146.052 3.31021C146.784 3.63864 147.517 3.98436 148.224 4.356C148.362 4.42514 148.422 4.60664 148.345 4.74493C148.293 4.84864 148.198 4.9005 148.095 4.9005V4.9005ZM115.371 3.55221C115.259 3.55221 115.147 3.49171 115.103 3.37936C115.043 3.22379 115.112 3.05957 115.259 2.99907C116 2.68793 116.759 2.40271 117.517 2.13479C117.664 2.08293 117.828 2.16936 117.879 2.31629C117.931 2.47186 117.853 2.63607 117.707 2.68793C116.957 2.94721 116.207 3.23243 115.483 3.53493C115.448 3.54645 115.411 3.55221 115.371 3.55221V3.55221ZM142.302 2.4805C142.273 2.4805 142.241 2.47762 142.207 2.47186C141.466 2.22986 140.698 2.00514 139.931 1.80636C139.776 1.76314 139.681 1.60757 139.724 1.452C139.759 1.29643 139.922 1.20136 140.078 1.24457C140.853 1.44336 141.629 1.66807 142.388 1.91871C142.543 1.96193 142.629 2.12614 142.578 2.28171C142.534 2.40271 142.422 2.4805 142.302 2.4805V2.4805ZM121.345 1.61621C121.207 1.61621 121.095 1.52979 121.06 1.3915C121.026 1.23593 121.121 1.08036 121.276 1.04579C122.052 0.864286 122.853 0.700071 123.638 0.561786C123.802 0.535857 123.948 0.639571 123.974 0.803786C124 0.959357 123.897 1.11493 123.733 1.14086C122.957 1.2705 122.181 1.43471 121.405 1.61621C121.382 1.61621 121.362 1.61621 121.345 1.61621V1.61621ZM136.198 1.03714C136.181 1.03714 136.167 1.03426 136.155 1.0285C135.371 0.9075 134.578 0.812429 133.793 0.743286C133.638 0.726 133.517 0.587714 133.534 0.4235C133.543 0.267929 133.681 0.146929 133.845 0.164214C134.647 0.233357 135.448 0.328429 136.241 0.458071C136.397 0.475357 136.509 0.630929 136.483 0.7865C136.457 0.933429 136.336 1.03714 136.198 1.03714V1.03714ZM127.543 0.674143C127.397 0.674143 127.267 0.561786 127.259 0.406214C127.241 0.242 127.362 0.103714 127.526 0.0950714C128.319 0.0345714 129.129 0.00864286 129.931 0H129.94C130.095 0 130.224 0.129643 130.224 0.285214C130.233 0.449429 130.103 0.579071 129.94 0.579071C129.147 0.587714 128.353 0.622286 127.569 0.674143C127.557 0.674143 127.549 0.674143 127.543 0.674143V0.674143Z" fill="#91B3FA"/>
<path d="M168.647 33.4824C168.509 33.4824 168.388 33.3787 168.362 33.2404C168.305 32.8601 168.242 32.4799 168.173 32.0996C168.138 31.944 168.242 31.7884 168.405 31.7625C168.561 31.7279 168.716 31.8316 168.742 31.9959C168.811 32.3761 168.877 32.7593 168.94 33.1454C168.966 33.3096 168.854 33.4565 168.698 33.4824C168.681 33.4824 168.664 33.4824 168.647 33.4824V33.4824Z" fill="#91B3FA"/>
<path d="M159.578 45.1503C159.56 45.3491 159.422 45.5219 159.224 45.5651L153.733 46.9999C152.931 49.5322 151.724 51.9522 150.112 54.1561L152.19 59.4456C152.259 59.6271 152.207 59.8345 152.06 59.9641L146.888 64.4066C146.741 64.5362 146.517 64.5535 146.353 64.4498L141.465 61.5717C139.043 62.8249 136.465 63.6546 133.845 64.0522L131.586 69.2725C131.509 69.454 131.319 69.5664 131.121 69.5491L124.345 69.0218C124.147 69.0046 123.974 68.8663 123.922 68.6761L122.5 63.1706C119.974 62.3669 117.56 61.1482 115.362 59.532L110.086 61.6149C109.905 61.6927 109.69 61.6409 109.56 61.4853L105.138 56.2996C105.009 56.1526 104.991 55.9366 105.095 55.7637L107.965 50.8632C106.707 48.4346 105.888 45.859 105.483 43.2316L100.284 40.9671C100.103 40.8807 99.9913 40.6992 100.009 40.5004L100.534 33.6985C100.552 33.4997 100.69 33.3355 100.879 33.2836L106.371 31.8489C107.172 29.3166 108.388 26.8966 110 24.6926L107.922 19.4119C107.845 19.2217 107.897 19.0143 108.052 18.8846L113.215 14.4509C113.371 14.3212 113.586 14.2953 113.759 14.399L118.647 17.2771C121.069 16.0239 123.638 15.1941 126.259 14.7966L128.517 9.57629C128.595 9.39479 128.784 9.28243 128.983 9.29972L135.767 9.82693C135.965 9.84422 136.129 9.98251 136.181 10.1813L137.612 15.6781C140.129 16.4906 142.543 17.7006 144.741 19.3168L150.017 17.2339C150.207 17.1561 150.414 17.2166 150.543 17.3635L154.965 22.5492C155.095 22.6961 155.112 22.9122 155.017 23.0851L152.147 27.9856C153.397 30.4142 154.215 32.9984 154.621 35.6172L159.828 37.8903C160.009 37.9681 160.121 38.1496 160.103 38.3484L159.578 45.1503Z" fill="#FC8019"/>
<path opacity="0.7" fill-rule="evenodd" clip-rule="evenodd" d="M130.043 45.9195C128.715 45.9195 127.422 45.5133 126.31 44.7268C123.396 42.6612 122.707 38.599 124.767 35.6777C125.767 34.2603 127.258 33.3182 128.957 33.0244C130.664 32.7305 132.379 33.1195 133.793 34.122C135.207 35.1246 136.146 36.6198 136.439 38.3311C136.733 40.0424 136.336 41.7623 135.345 43.1797C134.345 44.5885 132.853 45.5306 131.146 45.8245C130.779 45.8878 130.411 45.9195 130.043 45.9195V45.9195ZM130.069 33.8022C129.747 33.8022 129.428 33.8311 129.112 33.8887C127.629 34.1393 126.345 34.9517 125.474 36.179C123.689 38.7114 124.293 42.2204 126.819 44.0095C128.034 44.8824 129.526 45.2195 131 44.9688C132.474 44.7095 133.767 43.8971 134.629 42.6698C135.491 41.4425 135.836 39.956 135.577 38.478C135.327 37.0001 134.517 35.7037 133.293 34.8394C132.336 34.1566 131.215 33.8022 130.069 33.8022V33.8022Z" fill="white"/>
<path opacity="0.7" d="M129.94 56.3255C129.491 56.3255 129.046 56.3082 128.603 56.2737C124.112 55.9193 120.026 53.8364 117.103 50.4052C114.466 47.3197 113.052 43.4736 113.052 39.4547C113.052 39.011 113.069 38.5645 113.103 38.115C113.457 33.6121 115.535 29.524 118.957 26.5855C122.371 23.6555 126.733 22.2295 131.216 22.5838C135.707 22.9295 139.793 25.0125 142.716 28.4437C143.5 29.3598 144.181 30.3537 144.75 31.4082L143.983 31.823C143.448 30.8291 142.793 29.8784 142.052 29.0141C139.276 25.7557 135.405 23.7852 131.147 23.4481C126.897 23.1197 122.767 24.468 119.517 27.251C116.276 30.034 114.31 33.9146 113.974 38.1842C113.94 38.6048 113.922 39.0283 113.922 39.4547C113.922 43.2662 115.267 46.9135 117.767 49.8434C120.543 53.0931 124.414 55.0723 128.664 55.4007C132.922 55.7378 137.052 54.3809 140.302 51.6065C142.5 49.7137 144.147 47.2678 145.06 44.528L145.888 44.8046C144.922 47.6913 143.19 50.2755 140.862 52.2634C137.785 54.9081 133.948 56.3255 129.94 56.3255V56.3255Z" fill="white"/>
<path d="M196.983 67.9588C196.931 67.9588 196.879 67.9501 196.836 67.9242C196.698 67.8378 196.646 67.6563 196.733 67.518C196.931 67.1896 197.112 66.8525 197.284 66.5154C197.362 66.3771 197.534 66.3166 197.681 66.3944C197.819 66.4636 197.879 66.6451 197.802 66.7833C197.621 67.1291 197.431 67.4748 197.233 67.8205C197.181 67.9069 197.077 67.9588 196.983 67.9588V67.9588Z" fill="#91B3FA"/>
<path d="M178.25 77.6994C178.244 77.6994 178.236 77.6994 178.224 77.6994C177.44 77.6389 176.646 77.5265 175.879 77.3709C175.715 77.345 175.621 77.1894 175.646 77.0339C175.681 76.8783 175.836 76.7746 175.991 76.8005C176.741 76.9561 177.508 77.0598 178.276 77.1203C178.431 77.1289 178.552 77.2672 178.543 77.4314C178.526 77.587 178.396 77.6994 178.25 77.6994V77.6994ZM182.043 77.6389C181.896 77.6389 181.776 77.5265 181.758 77.3796C181.741 77.2154 181.853 77.0771 182.017 77.0598C182.776 76.9734 183.543 76.8437 184.284 76.6709C184.44 76.6276 184.595 76.7314 184.638 76.8869C184.672 77.0425 184.577 77.1981 184.414 77.2326C183.655 77.4141 182.862 77.5438 182.077 77.6389C182.066 77.6389 182.054 77.6389 182.043 77.6389ZM172.293 76.2906C172.258 76.2906 172.221 76.2819 172.181 76.2646C171.457 75.9708 170.733 75.6251 170.043 75.2448C169.905 75.167 169.853 74.9941 169.931 74.8472C170.008 74.7089 170.181 74.6571 170.327 74.7349C170.991 75.1065 171.698 75.4436 172.405 75.7288C172.552 75.7893 172.621 75.9621 172.56 76.1091C172.517 76.2214 172.405 76.2906 172.293 76.2906V76.2906ZM187.948 76.0313C187.836 76.0313 187.733 75.9621 187.69 75.8584C187.621 75.7115 187.69 75.5386 187.836 75.4695C188.534 75.1584 189.224 74.804 189.879 74.4064C190.017 74.32 190.19 74.3718 190.276 74.5101C190.362 74.6484 190.31 74.8213 190.172 74.9077C189.5 75.3139 188.793 75.6769 188.069 76.0054C188.029 76.0226 187.988 76.0313 187.948 76.0313V76.0313ZM167.052 73.1359C166.983 73.1359 166.922 73.11 166.862 73.0668C166.258 72.5569 165.681 72.0123 165.138 71.4333C165.026 71.3209 165.034 71.1394 165.146 71.0271C165.267 70.9147 165.448 70.9233 165.56 71.0357C166.086 71.5975 166.655 72.1247 167.241 72.6174C167.362 72.7211 167.379 72.9026 167.276 73.0322C167.215 73.0927 167.138 73.1359 167.052 73.1359ZM193.086 72.6951C193.009 72.6951 192.931 72.6606 192.871 72.6001C192.767 72.4791 192.776 72.2889 192.896 72.1852L193.06 72.0296C193.577 71.5629 194.069 71.0703 194.526 70.5517C194.629 70.4307 194.81 70.4221 194.931 70.5258C195.052 70.6295 195.06 70.8196 194.957 70.9406C194.483 71.4678 193.983 71.9778 193.457 72.4618L193.284 72.6174C193.224 72.6692 193.155 72.6951 193.086 72.6951ZM163.008 68.5293C162.905 68.5293 162.819 68.4861 162.758 68.3996C162.336 67.7341 161.948 67.0341 161.603 66.3253C161.526 66.1784 161.586 66.0056 161.733 65.9364C161.879 65.8586 162.052 65.9191 162.121 66.0661C162.457 66.7575 162.836 67.4403 163.25 68.0798C163.336 68.2181 163.293 68.3996 163.164 68.4861C163.112 68.5206 163.06 68.5293 163.008 68.5293V68.5293Z" fill="#91B3FA"/>
<path d="M160.535 62.9027C160.405 62.9027 160.293 62.8163 160.259 62.6866C160.155 62.3063 160.069 61.926 159.992 61.5371C159.957 61.3815 160.06 61.2259 160.216 61.2C160.371 61.1654 160.526 61.2692 160.56 61.4247C160.629 61.7964 160.724 62.168 160.819 62.5397C160.862 62.6952 160.767 62.8508 160.612 62.894C160.583 62.8998 160.558 62.9027 160.535 62.9027V62.9027Z" fill="#91B3FA"/>
<path d="M162.931 47.1122C162.871 47.1122 162.819 47.1036 162.776 47.069C162.638 46.9826 162.595 46.8011 162.681 46.6714C162.888 46.3344 163.112 46.0059 163.336 45.6862C163.431 45.5565 163.612 45.5306 163.742 45.617C163.871 45.7121 163.905 45.8936 163.811 46.0232C163.586 46.3344 163.379 46.6542 163.173 46.9826C163.121 47.069 163.026 47.1122 162.931 47.1122V47.1122Z" fill="#91B3FA"/>
<path d="M198.181 49.9471C198.069 49.9471 197.966 49.8779 197.914 49.7656C197.621 49.0741 197.284 48.3827 196.905 47.7258C196.828 47.5876 196.879 47.4147 197.017 47.3369C197.155 47.2505 197.336 47.3024 197.414 47.4406C197.793 48.1148 198.147 48.8235 198.448 49.5408C198.509 49.6878 198.44 49.8606 198.293 49.9211C198.259 49.9384 198.221 49.9471 198.181 49.9471V49.9471ZM195.017 44.8132C194.931 44.8132 194.853 44.7786 194.793 44.7095C194.644 44.5366 194.491 44.3638 194.336 44.1909C193.983 43.802 193.612 43.4217 193.224 43.0587C193.112 42.955 193.103 42.7649 193.216 42.6525C193.328 42.5315 193.509 42.5315 193.621 42.6352C194.017 43.0068 194.405 43.3958 194.767 43.802C194.928 43.9748 195.083 44.1506 195.233 44.3292C195.336 44.4502 195.328 44.6404 195.207 44.7441C195.147 44.7873 195.078 44.8132 195.017 44.8132V44.8132ZM166.026 43.318C165.948 43.318 165.871 43.2921 165.81 43.2316C165.698 43.1106 165.707 42.9291 165.819 42.8167C165.94 42.7072 166.06 42.5949 166.181 42.4796C166.629 42.0648 167.112 41.6672 167.595 41.2956C167.724 41.2005 167.905 41.2264 168 41.3561C168.103 41.4857 168.078 41.6672 167.948 41.7623C167.474 42.1253 167.009 42.5056 166.569 42.9118C166.454 43.0213 166.339 43.1307 166.224 43.2402C166.164 43.2921 166.095 43.318 166.026 43.318V43.318ZM190.474 40.8548C190.422 40.8548 190.362 40.8375 190.319 40.8029C189.681 40.4054 189.009 40.0337 188.336 39.7053C188.19 39.6361 188.129 39.4633 188.198 39.3164C188.267 39.1694 188.44 39.1089 188.586 39.1781C189.284 39.5151 189.974 39.8954 190.629 40.3103C190.759 40.3967 190.802 40.5782 190.716 40.7165C190.664 40.8029 190.569 40.8548 190.474 40.8548V40.8548ZM170.948 39.8436C170.836 39.8436 170.733 39.7831 170.69 39.688C170.612 39.5411 170.672 39.3682 170.819 39.2904C171.509 38.9447 172.233 38.6422 172.966 38.3743C173.112 38.3224 173.284 38.4002 173.336 38.5471C173.388 38.7027 173.31 38.8669 173.164 38.9188C172.448 39.1781 171.75 39.4806 171.078 39.8176C171.032 39.8349 170.988 39.8436 170.948 39.8436V39.8436ZM184.957 38.4348C184.934 38.4348 184.908 38.4319 184.879 38.4261C184.155 38.236 183.405 38.0804 182.664 37.9681C182.5 37.9508 182.388 37.8039 182.414 37.6396C182.44 37.4841 182.586 37.3717 182.741 37.3976C183.509 37.51 184.284 37.6656 185.034 37.8644C185.181 37.9076 185.276 38.0631 185.233 38.2187C185.198 38.3484 185.086 38.4348 184.957 38.4348V38.4348ZM176.681 38.0113C176.543 38.0113 176.414 37.9076 176.397 37.7693C176.371 37.6051 176.474 37.4581 176.638 37.4322C177.397 37.3112 178.181 37.2334 178.957 37.1989C179.121 37.1989 179.259 37.3199 179.259 37.4754C179.267 37.6396 179.147 37.7779 178.983 37.7779C178.233 37.8125 177.466 37.8903 176.724 38.0113C176.713 38.0113 176.698 38.0113 176.681 38.0113V38.0113Z" fill="#91B3FA"/>
<path d="M199.526 54.666C199.388 54.666 199.258 54.5623 199.241 54.4154C199.181 54.0438 199.112 53.6635 199.026 53.2918C199 53.1363 199.095 52.9807 199.25 52.9461C199.414 52.9115 199.56 53.0153 199.595 53.1708C199.681 53.5511 199.75 53.94 199.81 54.329C199.836 54.4845 199.733 54.6401 199.569 54.666C199.552 54.666 199.537 54.666 199.526 54.666V54.666Z" fill="#91B3FA"/>
<path d="M194.862 60.5173C194.853 60.621 194.784 60.7074 194.681 60.7333L191.862 61.468C191.448 62.7644 190.827 64.009 190 65.1412L191.069 67.855C191.103 67.9501 191.077 68.0625 191 68.1316L188.345 70.4047C188.267 70.4738 188.155 70.4825 188.069 70.4306L185.56 68.9527C184.319 69.6009 182.991 70.0244 181.646 70.2318L180.483 72.9111C180.448 73.0062 180.353 73.058 180.25 73.0494L176.767 72.7815C176.664 72.7728 176.577 72.7037 176.552 72.6L175.819 69.7737C174.517 69.3589 173.284 68.7366 172.155 67.9069L169.439 68.9786C169.345 69.0132 169.241 68.9872 169.172 68.9095L166.905 66.2475C166.836 66.1697 166.827 66.0573 166.879 65.9709L168.353 63.4558C167.707 62.2026 167.284 60.8802 167.077 59.532L164.405 58.3652C164.31 58.3306 164.258 58.2269 164.267 58.1318L164.534 54.6315C164.543 54.5364 164.612 54.45 164.715 54.424L167.534 53.6894C167.948 52.3843 168.569 51.1398 169.396 50.0075L168.327 47.2937C168.293 47.1986 168.319 47.0949 168.396 47.0258L171.052 44.744C171.129 44.6835 171.241 44.6663 171.327 44.7181L173.836 46.2047C175.086 45.5565 176.405 45.133 177.75 44.9255L178.914 42.2463C178.948 42.1512 179.043 42.0907 179.146 42.0993L182.629 42.3759C182.733 42.3845 182.819 42.4537 182.845 42.5488L183.577 45.3836C184.879 45.7898 186.112 46.4208 187.241 47.2505L189.957 46.1788C190.052 46.1355 190.155 46.1701 190.224 46.2479L192.5 48.9099C192.56 48.9877 192.569 49.1 192.517 49.1865L191.043 51.7015C191.689 52.9461 192.112 54.2771 192.319 55.6254L194.991 56.7835C195.086 56.8268 195.138 56.9218 195.138 57.0255L194.862 60.5173Z" fill="#FC8019"/>
<path opacity="0.7" fill-rule="evenodd" clip-rule="evenodd" d="M179.69 61.1223C178.966 61.1223 178.259 60.8976 177.655 60.4741C176.06 59.3419 175.681 57.1207 176.81 55.5304C177.354 54.7525 178.173 54.2426 179.104 54.0784C180.035 53.9228 180.974 54.1302 181.742 54.6834C182.517 55.2279 183.026 56.0403 183.19 56.9824C183.345 57.9158 183.129 58.8492 182.586 59.6271C182.043 60.3963 181.224 60.9149 180.293 61.0704C180.092 61.105 179.891 61.1223 179.69 61.1223V61.1223ZM179.698 54.8994C178.862 54.8994 178.043 55.297 177.517 56.0317C176.673 57.233 176.957 58.9097 178.155 59.7567C178.742 60.1716 179.448 60.3358 180.147 60.2148C180.854 60.0938 181.466 59.7049 181.879 59.1258C182.285 58.5381 182.448 57.8294 182.328 57.1293C182.207 56.4206 181.819 55.8069 181.242 55.3921C180.776 55.0637 180.233 54.8994 179.698 54.8994V54.8994Z" fill="white"/>
<path opacity="0.7" d="M179.638 66.4722C179.402 66.4722 179.17 66.4635 178.94 66.4462C176.578 66.2561 174.423 65.1585 172.888 63.3607C171.457 61.684 170.759 59.627 170.759 57.5873C170.759 55.0722 171.811 52.5745 173.862 50.82C177.578 47.6307 183.181 48.0715 186.362 51.7966C186.391 51.8254 186.417 51.8542 186.44 51.883C186.785 52.2979 187.086 52.7473 187.354 53.214C187.359 53.2256 187.365 53.2342 187.371 53.24C187.377 53.2515 187.382 53.263 187.388 53.2745C187.394 53.2803 187.397 53.2861 187.397 53.2918C187.408 53.3149 187.42 53.3379 187.431 53.361L186.664 53.7758C186.397 53.2745 186.078 52.7992 185.698 52.367C183.673 49.9816 180.543 49.0914 177.698 49.7915C176.526 50.0853 175.405 50.6471 174.423 51.4855C172.578 53.0671 171.629 55.3142 171.629 57.5787C171.629 59.4282 172.259 61.2778 173.543 62.7903C176.414 66.1524 181.474 66.5413 184.828 63.6719C185.923 62.7298 186.75 61.5025 187.207 60.1283L188.035 60.4049C187.526 61.926 186.612 63.283 185.388 64.3374C183.767 65.7202 181.75 66.4722 179.638 66.4722V66.4722Z" fill="white"/>
<path d="M123.12 97.6903C123.836 97.0161 124.81 96.679 125.784 96.7655C136.233 97.7075 155.715 92.6688 168.457 79.6008C169.345 78.6933 170.957 79.2032 171.965 79.9638C186.129 90.5772 209.612 92.7811 217.767 93.2305C219.457 93.317 220.819 94.6307 220.991 96.316C228.405 168.095 181.793 194.11 172.12 198.699C171.069 199.201 169.819 199.132 168.827 198.509C120.638 168.415 122.698 129.289 122.034 100.292C122.017 99.3065 122.405 98.3558 123.12 97.6903V97.6903Z" fill="url(#paint4_linear_72_8838)"/>
<path opacity="0.6" fill-rule="evenodd" clip-rule="evenodd" d="M170.819 193.488C170.603 193.488 170.388 193.427 170.198 193.306C151.724 181.465 139.689 167.308 133.388 150.031C127.767 134.604 127.491 118.891 127.25 105.028L127.215 103.178C127.215 102.867 127.327 102.582 127.543 102.357C127.758 102.133 128.052 102.012 128.362 102.012C139.802 102.012 156.974 96.947 169.569 85.6335C169.957 85.2877 170.526 85.2445 170.965 85.5297C184.802 94.743 204.543 97.4223 215.077 98.2002C215.638 98.2434 216.077 98.6755 216.129 99.2373C218.577 127.249 212.767 150.93 198.862 169.633C188.474 183.6 176.155 190.878 171.336 193.358C171.172 193.444 171 193.488 170.819 193.488V193.488ZM171.121 192.943C175.905 190.48 188.155 183.246 198.483 169.357C212.319 150.749 218.103 127.171 215.664 99.2805C215.629 98.9521 215.371 98.6928 215.043 98.6669C204.465 97.889 184.629 95.1925 170.707 85.9273C170.448 85.7545 170.112 85.7804 169.879 85.9878C157.198 97.3791 139.896 102.487 128.371 102.487C128.181 102.487 128.008 102.556 127.879 102.686C127.75 102.815 127.681 102.988 127.689 103.17L127.715 105.019C127.965 118.848 128.233 134.517 133.827 149.876C140.086 167.049 152.069 181.128 170.457 192.909C170.655 193.038 170.914 193.056 171.121 192.943V192.943Z" fill="white"/>
<path d="M187.664 124.786H185.483C184.405 124.786 183.526 123.904 183.526 122.824V115.356C183.526 112.677 181.362 110.516 178.698 110.516H165.198C162.526 110.516 160.371 112.677 160.371 115.356V122.824C160.371 123.904 159.491 124.786 158.405 124.786H156.233C155.146 124.786 154.267 123.904 154.267 122.824V115.356C154.267 109.306 159.164 104.397 165.198 104.397H178.698C184.733 104.397 189.621 109.306 189.621 115.356V122.824C189.621 123.904 188.741 124.786 187.664 124.786Z" fill="#FFDBB1"/>
<path fill-rule="evenodd" clip-rule="evenodd" d="M194.448 130.645V158.985C194.448 161.25 192.62 163.082 190.362 163.082H153.526C151.267 163.082 149.439 161.25 149.439 158.985V130.645C149.439 128.381 151.267 126.549 153.526 126.549H190.362C192.62 126.549 194.448 128.381 194.448 130.645ZM175.439 146.54C177.439 145.347 178.776 143.16 178.776 140.662C178.776 136.739 175.474 133.584 171.508 133.835C168.086 134.042 165.31 136.86 165.129 140.291C164.991 142.944 166.353 145.286 168.448 146.54L166.672 153.938C166.448 154.897 167.172 155.813 168.146 155.813H175.741C176.724 155.813 177.448 154.897 177.215 153.938L175.439 146.54Z" fill="#FFDBB1"/>
<path d="M30.7498 117.284C32.7383 117.387 33.8533 119.49 34.0947 123.593C29.4855 127.736 24.0659 130.303 17.836 131.294C17.1378 131.397 18.8188 126.488 19.0688 125.823C20.2757 122.659 24.0602 120.62 30.7498 117.284V117.284Z" fill="url(#paint5_linear_72_8838)"/>
<path d="M50.5257 118.355C48.6176 116.5 42.1694 110.753 31.1809 101.113L31.9309 119.125C31.724 119.632 31.3878 120.032 30.9222 120.326C29.3619 121.328 27.2757 120.577 26.5257 118.874C20.3303 104.815 20.1751 94.0199 26.0602 86.4891C34.5084 87.9296 45.1722 95.7831 58.0515 110.05H64.3446C67.9567 119.444 53.3964 121.147 50.5257 118.355V118.355Z" fill="#7D97F4"/>
<path d="M3.48274 154.966C6.12067 152.65 10.3276 150.049 16.3965 149.305L18.4483 150.559C17.5747 151.849 16.3419 153.177 14.75 154.543C12.5517 155.822 9.15516 157.551 6.34481 157.931C3.61205 158.294 3.20688 156.635 3.48274 154.966V154.966Z" fill="url(#paint6_linear_72_8838)"/>
<path d="M19.0689 125.823C20.6982 126.35 21.4137 128.658 25.5344 127.137C29.5258 125.659 32.4913 123.749 34.0172 122.651C34.0516 122.953 34.0775 123.265 34.0947 123.593C29.2327 128.231 23.6867 131.043 17.4568 132.028C16.7585 132.141 16.1982 131.441 16.4568 130.775C16.9051 129.582 17.7241 127.767 19.0689 125.823V125.823Z" fill="#91B3FA"/>
<path d="M1.49136 156.946C2.01722 156.349 2.68101 155.675 3.48274 154.966C3.20688 156.635 3.61205 158.294 6.34481 157.931C9.15515 157.551 12.5517 155.822 14.75 154.543C11.9914 156.894 7.8017 159.392 2.51722 159.245C1.33619 159.219 0.715497 157.827 1.49136 156.946V156.946Z" fill="#91B3FA"/>
<path d="M76.7846 119.747C72.2673 126.713 66.1035 127.344 58.3621 125.633C47.615 121.294 39.5259 123.941 34.0949 133.575C29.6754 141.435 24.0719 147.585 17.2846 152.028C15.2558 151.849 14.411 151.238 14.7501 150.196C16.7846 135.998 23.4139 124.244 34.638 114.933L64.1208 114.613L76.7846 119.747Z" fill="#7D97F4"/>
<path d="M67.802 98.5027C63.8882 106.5 58.233 111.968 50.8364 114.907L37.8623 114.492L39.164 112.4L44.6985 113.057C55.0663 108.851 61.3077 101.433 63.4226 90.8019C71.233 91.4069 68.0002 98.1051 67.802 98.5027V98.5027Z" fill="url(#paint7_linear_72_8838)"/>
<path d="M61.7243 114.354C64.1266 107.797 65.5863 101.332 66.1036 94.9591C64.3449 93.4437 62.9168 92.3576 61.8191 91.7008C61.2846 91.381 61.0777 90.7155 61.3536 90.1537C62.5605 87.63 69.8967 77.7339 70.4484 77.5956C73.4398 76.8523 85.6898 71.0098 94.3191 82.8418C98.026 87.9238 93.5863 103.559 76.7846 119.747C71.3794 120.628 66.3191 119.073 61.7243 114.354V114.354Z" fill="url(#paint8_linear_72_8838)"/>
<path d="M80.9653 104.648C75.7814 110.957 67.9998 114.296 57.6205 114.665H41.1636C43.4164 111.484 45.3619 109.534 46.9998 108.814C48.6435 108.093 50.5716 108.741 52.7843 110.758C61.3302 109.6 68.9452 105.051 75.6291 97.1111C78.4653 99.3669 80.336 101.337 80.9653 104.648V104.648Z" fill="url(#paint9_linear_72_8838)"/>
<path d="M81.4739 69.2466L83.6722 76.5844C83.7757 76.9214 83.6464 77.2844 83.3619 77.4832C82.3015 78.2092 79.5429 79.6526 75.7584 78.2524C75.3188 78.0882 75.0257 77.682 74.9912 77.2239L74.4653 70.8282L81.4739 69.2466Z" fill="url(#paint10_linear_72_8838)"/>
<path d="M79.3104 58.296L83.1294 68.097C81.2156 73.8272 75.5346 75.5904 72.6208 73.2481C70.6782 71.6924 69.3478 68.3793 68.6294 63.3089L79.3104 58.296Z" fill="url(#paint11_linear_72_8838)"/>
<path d="M79.7414 64.64C79.5173 64.7091 79.2845 64.5622 79.25 64.3375C79.1466 63.6374 78.888 62.2459 78.3535 61.2952C78.5374 60.6325 77.6983 60.8025 75.8362 61.8051C73.0431 63.3176 68.8535 65.5302 66.3793 64.2078C63.9742 62.9287 61.5345 56.4552 67.8966 57.6565C68.138 57.6997 68.3621 57.5096 68.3449 57.259C68.2673 56.1959 68.3707 53.75 70.8449 52.9635C73.1552 52.2288 74.4225 53.2746 74.9397 53.9055C75.0949 54.0957 75.3793 54.087 75.5259 53.8969C76.2156 52.9894 78.1035 51.062 80.8707 52.2893C83.1466 53.2919 83.5 54.7007 83.4656 55.5822C83.4569 55.8675 83.7414 56.0576 84 55.9366C84.6983 55.6168 85.819 55.4526 86.8966 56.8009C88.388 58.6677 86.2587 60.2926 85.6207 60.7161C85.5173 60.7852 85.4483 60.8976 85.4483 61.0272C85.4483 61.9952 85.2931 66.2389 83.1725 68.6329C82.9914 68.8404 82.6552 68.7799 82.5431 68.5206L80.9138 64.6227C80.8362 64.4412 80.638 64.3461 80.4483 64.4066L79.7414 64.64Z" fill="url(#paint12_linear_72_8838)"/>
<path d="M79.707 65.4264C80.3737 62.7126 81.2099 61.7964 82.2157 62.678C83.7329 64.0004 81.8191 66.913 80.0863 67.4661L79.707 65.4264Z" fill="url(#paint13_linear_72_8838)"/>
<path d="M40.7843 116.35L30.9567 115.261C30.155 115.175 29.4739 114.639 29.2067 113.878L20.9481 90.2833C20.6119 89.3239 21.3619 88.33 22.3791 88.3992L32.3619 89.0819C33.405 89.1511 34.3015 89.8684 34.6033 90.8797L41.9912 115.59L40.7843 116.35Z" fill="url(#paint14_linear_72_8838)"/>
<path d="M28.4916 96.6704C29.1123 96.3593 30.0691 97.0161 30.6209 98.1311C31.1726 99.246 31.1123 100.404 30.4916 100.715C29.8623 101.026 28.914 100.37 28.3622 99.2546C27.8105 98.1311 27.8709 96.9816 28.4916 96.6704Z" fill="#91B3FA"/>
<path d="M39.8449 115.46C39.8191 114.941 40.2156 114.501 40.7329 114.475L61.6725 113.412C62.1898 113.377 62.6294 113.783 62.6553 114.302C62.6812 114.82 62.2846 115.27 61.7674 115.296L40.8277 116.35C40.8162 116.35 40.8018 116.35 40.7846 116.35C40.2846 116.35 39.8708 115.961 39.8449 115.46V115.46Z" fill="url(#paint15_linear_72_8838)"/>
<path d="M66.1036 95.106C66.026 95.106 65.9571 95.0368 65.9571 94.9591C65.9484 90.5253 67.6467 84.6654 67.664 84.6049C67.6898 84.5271 67.7674 84.4839 67.845 84.5099C67.9226 84.5271 67.9657 84.6136 67.9398 84.6827C67.9226 84.7432 66.2329 90.5685 66.2502 94.9591C66.2502 95.0368 66.1898 95.106 66.1036 95.106V95.106Z" fill="url(#paint16_linear_72_8838)"/>
<path d="M75.6294 97.2581C75.5949 97.2581 75.5691 97.2494 75.5346 97.2321C75.4743 97.1803 75.4656 97.0852 75.5174 97.0247C75.5605 96.9642 80.1122 91.1648 81.6725 87.2064C81.6984 87.1373 81.7846 87.0941 81.8536 87.1286C81.9312 87.1546 81.9656 87.241 81.9398 87.3188C80.3622 91.3118 75.7846 97.1457 75.7415 97.2062C75.7156 97.2408 75.6725 97.2581 75.6294 97.2581Z" fill="url(#paint17_linear_72_8838)"/>
<path d="M82.0776 106.178L81.25 105.002C81.2069 104.942 81.2242 104.847 81.2845 104.803C81.3535 104.751 81.4397 104.769 81.4914 104.838L82.1811 105.815C88.6379 102.98 92.6379 95.2357 92.6724 95.1579C92.7155 95.0801 92.8017 95.0542 92.8707 95.0888C92.9397 95.132 92.9741 95.2184 92.931 95.2875C92.8966 95.3653 88.8104 103.291 82.1897 106.134L82.0776 106.178Z" fill="url(#paint18_linear_72_8838)"/>
<defs>
<linearGradient id="paint0_linear_72_8838" x1="470188" y1="882383" x2="30860.6" y2="507976" gradientUnits="userSpaceOnUse">
<stop stop-color="#FEDDC1"/>
<stop offset="1" stop-color="#FFD4B0"/>
</linearGradient>
<linearGradient id="paint1_linear_72_8838" x1="-194339" y1="130532" x2="35391" y2="723475" gradientUnits="userSpaceOnUse">
<stop stop-color="#FC8019"/>
<stop offset="1" stop-color="#FFDBB1"/>
</linearGradient>
<linearGradient id="paint2_linear_72_8838" x1="299604" y1="200602" x2="279734" y2="103271" gradientUnits="userSpaceOnUse">
<stop stop-color="white"/>
<stop offset="1" stop-color="#1A0F91"/>
</linearGradient>
<linearGradient id="paint3_linear_72_8838" x1="64355.5" y1="18954.5" x2="72248.4" y2="63636.8" gradientUnits="userSpaceOnUse">
<stop stop-color="#09005D"/>
<stop offset="1" stop-color="#1A0F91"/>
</linearGradient>
<linearGradient id="paint4_linear_72_8838" x1="359651" y1="105436" x2="309150" y2="146538" gradientUnits="userSpaceOnUse">
<stop stop-color="#FC8019"/>
<stop offset="0.458333" stop-color="#FFA961"/>
<stop offset="1" stop-color="#FC8019"/>
</linearGradient>
<linearGradient id="paint5_linear_72_8838" x1="4579.49" y1="19414.1" x2="2870.33" y2="21509.8" gradientUnits="userSpaceOnUse">
<stop stop-color="#09005D"/>
<stop offset="1" stop-color="#1A0F91"/>
</linearGradient>
<linearGradient id="paint6_linear_72_8838" x1="1946.46" y1="15073.8" x2="-77.0442" y2="17648.5" gradientUnits="userSpaceOnUse">
<stop stop-color="#09005D"/>
<stop offset="1" stop-color="#1A0F91"/>
</linearGradient>
<linearGradient id="paint7_linear_72_8838" x1="11481" y1="30200.3" x2="15102.6" y2="35698.4" gradientUnits="userSpaceOnUse">
<stop stop-color="#FEBBBA"/>
<stop offset="1" stop-color="#FF928E"/>
</linearGradient>
<linearGradient id="paint8_linear_72_8838" x1="49247.1" y1="37004" x2="29675.2" y2="52729.5" gradientUnits="userSpaceOnUse">
<stop stop-color="#FC8019"/>
<stop offset="1" stop-color="#FFA052"/>
</linearGradient>
<linearGradient id="paint9_linear_72_8838" x1="36467.7" y1="20218.8" x2="33003.4" y2="9470.5" gradientUnits="userSpaceOnUse">
<stop stop-color="#FEBBBA"/>
<stop offset="1" stop-color="#FF928E"/>
</linearGradient>
<linearGradient id="paint10_linear_72_8838" x1="9086.61" y1="8747.44" x2="8978.15" y2="7803.27" gradientUnits="userSpaceOnUse">
<stop stop-color="#FEBBBA"/>
<stop offset="1" stop-color="#FF928E"/>
</linearGradient>
<linearGradient id="paint11_linear_72_8838" x1="13827.7" y1="13438.7" x2="14661.1" y2="10944.3" gradientUnits="userSpaceOnUse">
<stop stop-color="#FEBBBA"/>
<stop offset="1" stop-color="#FF928E"/>
</linearGradient>
<linearGradient id="paint12_linear_72_8838" x1="18148.1" y1="8410.39" x2="17583.7" y2="12911.5" gradientUnits="userSpaceOnUse">
<stop stop-color="#09005D"/>
<stop offset="1" stop-color="#1A0F91"/>
</linearGradient>
<linearGradient id="paint13_linear_72_8838" x1="2938.89" y1="4350.62" x2="3263.89" y2="3709.76" gradientUnits="userSpaceOnUse">
<stop stop-color="#FEBBBA"/>
<stop offset="1" stop-color="#FF928E"/>
</linearGradient>
<linearGradient id="paint14_linear_72_8838" x1="10310.6" y1="28621.4" x2="5196.37" y2="28621.4" gradientUnits="userSpaceOnUse">
<stop stop-color="#09005D"/>
<stop offset="1" stop-color="#1A0F91"/>
</linearGradient>
<linearGradient id="paint15_linear_72_8838" x1="10186.9" y1="4059.47" x2="11048.3" y2="5890.35" gradientUnits="userSpaceOnUse">
<stop stop-color="#09005D"/>
<stop offset="1" stop-color="#1A0F91"/>
</linearGradient>
<linearGradient id="paint16_linear_72_8838" x1="1717.52" y1="3993.01" x2="-2113.21" y2="15070.4" gradientUnits="userSpaceOnUse">
<stop stop-color="#E1473D"/>
<stop offset="1" stop-color="#E9605A"/>
</linearGradient>
<linearGradient id="paint17_linear_72_8838" x1="6498.34" y1="3936.87" x2="5302.92" y2="15671.8" gradientUnits="userSpaceOnUse">
<stop stop-color="#E1473D"/>
<stop offset="1" stop-color="#E9605A"/>
</linearGradient>
<linearGradient id="paint18_linear_72_8838" x1="13288.3" y1="4406.69" x2="12492.9" y2="17340.5" gradientUnits="userSpaceOnUse">
<stop stop-color="#E1473D"/>
<stop offset="1" stop-color="#E9605A"/>
</linearGradient>
</defs>
</svg>
